<?xml version="1.0" encoding="UTF-8" standalone="no"?>
<!-- Created with Inkscape (http://www.inkscape.org/) -->
<svg
   xmlns:dc="http://purl.org/dc/elements/1.1/"
   xmlns:cc="http://web.resource.org/cc/"
   xmlns:rdf="http://www.w3.org/1999/02/22-rdf-syntax-ns#"
   xmlns:svg="http://www.w3.org/2000/svg"
   xmlns="http://www.w3.org/2000/svg"
   xmlns:sodipodi="http://sodipodi.sourceforge.net/DTD/sodipodi-0.dtd"
   xmlns:inkscape="http://www.inkscape.org/namespaces/inkscape"
   width="744.09448819"
   height="1052.3622047"
   id="svg12001"
   sodipodi:version="0.32"
   inkscape:version="0.45.1"
   sodipodi:docbase="/usr/home/chmbrlnd/FREDsvn/EduDocs/DigiComm/Figures"
   sodipodi:docname="ergodic.svg"
   inkscape:export-filename="/usr/home/chmbrlnd/Figures/DC/Ergodic.png"
   inkscape:export-xdpi="90"
   inkscape:export-ydpi="90"
   inkscape:output_extension="org.inkscape.output.svg.inkscape">
  <defs
     id="defs12003">
    <marker
       inkscape:stockid="Dot_s"
       orient="auto"
       refY="0.0"
       refX="0.0"
       id="Dot_s"
       style="overflow:visible">
      <path
         id="path5854"
         d="M -2.5,-1.0 C -2.5,1.7600000 -4.7400000,4.0 -7.5,4.0 C -10.260000,4.0 -12.5,1.7600000 -12.5,-1.0 C -12.5,-3.7600000 -10.260000,-6.0 -7.5,-6.0 C -4.7400000,-6.0 -2.5,-3.7600000 -2.5,-1.0 z "
         style="fill-rule:evenodd;stroke:#000000;stroke-width:1.0pt;marker-start:none;marker-end:none"
         transform="scale(0.2) translate(7.4, 1)" />
    </marker>
    <marker
       inkscape:stockid="Dot_m"
       orient="auto"
       refY="0.0"
       refX="0.0"
       id="Dot_m"
       style="overflow:visible">
      <path
         id="path5857"
         d="M -2.5,-1.0 C -2.5,1.7600000 -4.7400000,4.0 -7.5,4.0 C -10.260000,4.0 -12.5,1.7600000 -12.5,-1.0 C -12.5,-3.7600000 -10.260000,-6.0 -7.5,-6.0 C -4.7400000,-6.0 -2.5,-3.7600000 -2.5,-1.0 z "
         style="fill-rule:evenodd;stroke:#000000;stroke-width:1.0pt;marker-start:none;marker-end:none"
         transform="scale(0.4) translate(7.4, 1)" />
    </marker>
    <marker
       inkscape:stockid="Arrow2Mend"
       orient="auto"
       refY="0.0"
       refX="0.0"
       id="Arrow2Mend"
       style="overflow:visible;">
      <path
         id="path3839"
         style="font-size:12.0;fill-rule:evenodd;stroke-width:0.62500000;stroke-linejoin:round;"
         d="M 8.7185878,4.0337352 L -2.2072895,0.016013256 L 8.7185884,-4.0017078 C 6.9730900,-1.6296469 6.9831476,1.6157441 8.7185878,4.0337352 z "
         transform="scale(0.6) rotate(180) translate(0,0)" />
    </marker>
    <marker
       inkscape:stockid="Arrow2Lend"
       orient="auto"
       refY="0.0"
       refX="0.0"
       id="Arrow2Lend"
       style="overflow:visible;">
      <path
         id="path3845"
         style="font-size:12.0;fill-rule:evenodd;stroke-width:0.62500000;stroke-linejoin:round;"
         d="M 8.7185878,4.0337352 L -2.2072895,0.016013256 L 8.7185884,-4.0017078 C 6.9730900,-1.6296469 6.9831476,1.6157441 8.7185878,4.0337352 z "
         transform="scale(1.1) rotate(180) translate(1,0)" />
    </marker>
    <marker
       inkscape:stockid="Arrow2Mstart"
       orient="auto"
       refY="0.0"
       refX="0.0"
       id="Arrow2Mstart"
       style="overflow:visible">
      <path
         id="path3842"
         style="font-size:12.0;fill-rule:evenodd;stroke-width:0.62500000;stroke-linejoin:round"
         d="M 8.7185878,4.0337352 L -2.2072895,0.016013256 L 8.7185884,-4.0017078 C 6.9730900,-1.6296469 6.9831476,1.6157441 8.7185878,4.0337352 z "
         transform="scale(0.6) translate(0,0)" />
    </marker>
    <marker
       inkscape:stockid="Arrow2Sstart"
       orient="auto"
       refY="0.0"
       refX="0.0"
       id="Arrow2Sstart"
       style="overflow:visible">
      <path
         id="path3836"
         style="font-size:12.0;fill-rule:evenodd;stroke-width:0.62500000;stroke-linejoin:round"
         d="M 8.7185878,4.0337352 L -2.2072895,0.016013256 L 8.7185884,-4.0017078 C 6.9730900,-1.6296469 6.9831476,1.6157441 8.7185878,4.0337352 z "
         transform="scale(0.3) translate(-2.3,0)" />
    </marker>
  </defs>
  <sodipodi:namedview
     id="base"
     pagecolor="#ffffff"
     bordercolor="#ffffff"
     borderopacity="0.0"
     inkscape:pageopacity="0.0"
     inkscape:pageshadow="0"
     inkscape:zoom="1"
     inkscape:cx="454.14263"
     inkscape:cy="241.92393"
     inkscape:document-units="px"
     inkscape:current-layer="layer1"
     showgrid="true"
     showguides="false"
     inkscape:window-width="914"
     inkscape:window-height="717"
     inkscape:window-x="83"
     inkscape:window-y="22" />
  <metadata
     id="metadata12006">
    <rdf:RDF>
      <cc:Work
         rdf:about="">
        <dc:format>image/svg+xml</dc:format>
        <dc:type
           rdf:resource="http://purl.org/dc/dcmitype/StillImage" />
      </cc:Work>
    </rdf:RDF>
  </metadata>
  <g
     inkscape:label="Layer 1"
     inkscape:groupmode="layer"
     id="layer1">
    <path
       style="fill:none;fill-opacity:0.75;fill-rule:evenodd;stroke:black;stroke-width:3;stroke-linecap:butt;stroke-linejoin:miter;marker-start:url(#Arrow2Mstart);marker-mid:none;marker-end:url(#Arrow2Mend);stroke-miterlimit:4;stroke-dasharray:none;stroke-opacity:1"
       d="M 186.94299,432.36218 L 186.94299,672.36218 L 705.94299,672.36218"
       id="path3016"
       sodipodi:nodetypes="ccc" />
    <text
       xml:space="preserve"
       style="font-size:16px;font-style:normal;font-variant:normal;font-weight:normal;font-stretch:normal;text-align:start;line-height:125%;writing-mode:lr-tb;text-anchor:start;fill:black;fill-opacity:1;stroke:none;stroke-width:1px;stroke-linecap:butt;stroke-linejoin:miter;stroke-opacity:1;font-family:Bitstream Vera Sans"
       x="674.61145"
       y="699.72144"
       id="text3018"
       sodipodi:linespacing="125%"><tspan
         sodipodi:role="line"
         id="tspan3020"
         x="674.61145"
         y="699.72144">t</tspan></text>
    <text
       xml:space="preserve"
       style="font-size:16px;font-style:normal;font-variant:normal;font-weight:normal;font-stretch:normal;text-align:start;line-height:125%;writing-mode:lr-tb;text-anchor:start;fill:#000000;fill-opacity:1;stroke:none;stroke-width:1px;stroke-linecap:butt;stroke-linejoin:miter;stroke-opacity:1;font-family:Bitstream Vera Sans"
       x="-509.53751"
       y="168.35413"
       id="text3022"
       transform="matrix(0,-1,1,0,0,0)"
       sodipodi:linespacing="125%"><tspan
         sodipodi:role="line"
         id="tspan3024"
         x="-509.53751"
         y="168.35413">A</tspan></text>
    <path
       style="fill:none;fill-opacity:0.75;fill-rule:evenodd;stroke:black;stroke-width:4;stroke-linecap:butt;stroke-linejoin:miter;stroke-miterlimit:4;stroke-dasharray:4, 4;stroke-dashoffset:0;stroke-opacity:1"
       d="M 187.98225,583.79845 C 187.91293,580.45246 203.26148,558.36218 213.94299,558.36218 C 235.94299,558.36218 233.00751,587.95494 239.94299,611.36218 C 247.94299,638.36218 251.5544,651.63008 273.94299,646.36218 C 290.94299,642.36218 279.22926,623.80863 298.94299,612.36218 C 323.64949,598.01675 323.83429,670.79221 363.94299,653.36218 C 474.25632,605.42335 439.41759,657.20846 472.85667,630.25908 C 521.49046,591.06391 510.74524,531.54288 564.28845,539.61611 C 589.84375,543.46933 597.75122,621.9885 614.20045,616.10313 C 632.18581,609.66814 672.04778,470.14434 672.09817,475.74032"
       id="path3026"
       sodipodi:nodetypes="csssssssss" />
    <text
       xml:space="preserve"
       style="font-size:16px;font-style:normal;font-variant:normal;font-weight:normal;font-stretch:normal;text-align:start;line-height:125%;writing-mode:lr-tb;text-anchor:start;fill:black;fill-opacity:1;stroke:none;stroke-width:1px;stroke-linecap:butt;stroke-linejoin:miter;stroke-opacity:1;font-family:Bitstream Vera Sans"
       x="341.08594"
       y="699.58862"
       id="text3028"
       sodipodi:linespacing="125%"><tspan
         sodipodi:role="line"
         id="tspan3030"
         x="341.08594"
         y="699.58862">t0</tspan></text>
    <path
       style="fill:none;fill-opacity:0.75;fill-rule:evenodd;stroke:#a00000;stroke-width:4;stroke-linecap:butt;stroke-linejoin:miter;stroke-miterlimit:4;stroke-dasharray:4, 4;stroke-dashoffset:0;stroke-opacity:1"
       d="M 672.94299,564.78936 C 644.83847,510.19769 640.83264,529.62327 587.94299,543.78936 C 556.98718,552.08064 591.29593,605.02437 504.94299,610.78936 C 480.29967,612.43457 486.40632,540.13047 453.94299,534.78936 C 434.1675,531.53575 417.02635,631.64786 393.02931,592.68626 C 349.41041,544.63412 328.31692,514.33005 304.59753,516.04329 C 268.43602,518.65522 276.13476,569.41568 248.68549,573.53031 C 214.67164,578.62897 187.94299,468.78936 187.94299,468.78936"
       id="path3036"
       sodipodi:nodetypes="cssssssc" />
    <path
       style="fill:none;fill-opacity:1;fill-rule:evenodd;stroke:#0000a0;stroke-width:4;stroke-linecap:butt;stroke-linejoin:miter;stroke-miterlimit:4;stroke-dasharray:4, 4;stroke-dashoffset:0;stroke-opacity:1"
       d="M 672.94299,540.30726 C 672.94299,540.30726 670.94299,589.30726 648.94299,589.30726 C 606.2189,575.25625 639.98454,525.91038 588.94299,501.30726 C 555.84044,485.35112 574.40281,473.83645 551.94299,472.30726 C 516.05299,469.86367 521.68643,530.94942 498.94299,542.30726 C 478.19184,552.67017 491.90251,592.55435 460.94299,592.30726 C 444.27828,592.17426 417.85867,502.34597 394.02931,541.41036 C 384.54104,556.96485 389.05011,610.12818 357.12876,618.18969 C 336.31491,623.44608 344.16372,571.36945 329.75695,578.94884 C 317.82976,585.22373 315.1062,609.76098 297.59753,617.05333 C 290.04223,620.20011 265.13476,525.68094 248.68553,531.56631 C 216.30201,543.15282 187.94299,636.30726 187.94299,636.30726"
       id="path3038"
       sodipodi:nodetypes="cssssssssssc" />
    <path
       style="fill:none;fill-opacity:0.75;fill-rule:evenodd;stroke:black;stroke-width:2.5;stroke-linecap:butt;stroke-linejoin:miter;stroke-miterlimit:4;stroke-dasharray:none;stroke-opacity:1"
       d="M 349,671.80318 L 349,457.80318"
       id="path3040"
       sodipodi:nodetypes="cc" />
    <path
       sodipodi:type="arc"
       style="fill:#a00000;fill-opacity:1;fill-rule:nonzero;stroke:#a00000;stroke-width:2.5;stroke-linecap:round;stroke-linejoin:round;stroke-miterlimit:4;stroke-dasharray:none;stroke-dashoffset:0;stroke-opacity:1"
       id="path3044"
       sodipodi:cx="415"
       sodipodi:cy="747.36218"
       sodipodi:rx="5"
       sodipodi:ry="5"
       d="M 420,747.36218 A 5,5 0 1 1 419.99784,747.21538"
       sodipodi:start="0"
       sodipodi:end="6.2538208"
       sodipodi:open="true"
       transform="translate(-66,-207.559)" />
    <path
       sodipodi:type="arc"
       style="fill:#0000a0;fill-opacity:1;fill-rule:nonzero;stroke:#0000a0;stroke-width:2.5;stroke-linecap:round;stroke-linejoin:round;stroke-miterlimit:4;stroke-dasharray:none;stroke-dashoffset:0;stroke-opacity:1"
       id="path3046"
       sodipodi:cx="415"
       sodipodi:cy="747.36218"
       sodipodi:rx="5"
       sodipodi:ry="5"
       d="M 420,747.36218 A 5,5 0 1 1 419.99784,747.21538"
       sodipodi:start="0"
       sodipodi:end="6.2538208"
       sodipodi:open="true"
       transform="translate(-66,-134.559)" />
    <path
       sodipodi:type="arc"
       style="fill:black;fill-opacity:1;fill-rule:nonzero;stroke:black;stroke-width:2.5;stroke-linecap:round;stroke-linejoin:round;stroke-miterlimit:4;stroke-dasharray:none;stroke-dashoffset:0;stroke-opacity:1"
       id="path3048"
       sodipodi:cx="415"
       sodipodi:cy="747.36218"
       sodipodi:rx="5"
       sodipodi:ry="5"
       d="M 420,747.36218 A 5,5 0 1 1 419.99784,747.21538"
       sodipodi:start="0"
       sodipodi:end="6.2538208"
       sodipodi:open="true"
       transform="translate(-66,-92.55896)" />
    <path
       sodipodi:type="arc"
       style="fill:#a0a0a0;fill-opacity:1;fill-rule:nonzero;stroke:black;stroke-width:2.5;stroke-linecap:round;stroke-linejoin:round;stroke-miterlimit:4;stroke-dasharray:none;stroke-dashoffset:0;stroke-opacity:1"
       id="path3096"
       sodipodi:cx="415"
       sodipodi:cy="747.36218"
       sodipodi:rx="5"
       sodipodi:ry="5"
       d="M 420,747.36218 A 5,5 0 1 1 419.99784,747.21538"
       sodipodi:start="0"
       sodipodi:end="6.2538208"
       sodipodi:open="true"
       transform="matrix(2,0,0,2,-481,-921.6122)" />
    <path
       style="fill:none;fill-opacity:0.75;fill-rule:evenodd;stroke:#000000;stroke-width:3;stroke-linecap:butt;stroke-linejoin:miter;marker-start:url(#Arrow2Mstart);marker-mid:none;marker-end:url(#Arrow2Mend);stroke-miterlimit:4;stroke-dasharray:none;stroke-opacity:1"
       d="M 186.94299,733.92118 L 186.94299,973.92118 L 705.94299,973.92118"
       id="path1917"
       sodipodi:nodetypes="ccc" />
    <text
       xml:space="preserve"
       style="font-size:16px;font-style:normal;font-variant:normal;font-weight:normal;font-stretch:normal;text-align:start;line-height:125%;writing-mode:lr-tb;text-anchor:start;fill:#000000;fill-opacity:1;stroke:none;stroke-width:1px;stroke-linecap:butt;stroke-linejoin:miter;stroke-opacity:1;font-family:Bitstream Vera Sans"
       x="674.61145"
       y="1001.2805"
       id="text1919"
       sodipodi:linespacing="125%"><tspan
         sodipodi:role="line"
         id="tspan1921"
         x="674.61145"
         y="1001.2805">t</tspan></text>
    <text
       xml:space="preserve"
       style="font-size:16px;font-style:normal;font-variant:normal;font-weight:normal;font-stretch:normal;text-align:start;line-height:125%;writing-mode:lr-tb;text-anchor:start;fill:#000000;fill-opacity:1;stroke:none;stroke-width:1px;stroke-linecap:butt;stroke-linejoin:miter;stroke-opacity:1;font-family:Bitstream Vera Sans"
       x="-811.0965"
       y="168.35413"
       id="text1923"
       transform="matrix(0,-1,1,0,0,0)"
       sodipodi:linespacing="125%"><tspan
         sodipodi:role="line"
         id="tspan1925"
         x="-811.0965"
         y="168.35413">A</tspan></text>
    <path
       style="fill:#a0a0a0;fill-opacity:1;fill-rule:evenodd;stroke:#000000;stroke-width:4;stroke-linecap:butt;stroke-linejoin:miter;stroke-miterlimit:4;stroke-dasharray:none;stroke-dashoffset:0;stroke-opacity:1"
       d="M 187.94299,971.92118 C 187.94299,971.92118 190.24549,995.59431 187.98225,885.35745 C 187.91293,882.01146 203.26148,859.92118 213.94299,859.92118 C 235.94299,859.92118 233.00751,889.51394 239.94299,912.92118 C 247.94299,939.92118 251.5544,953.18908 273.94299,947.92118 C 290.94299,943.92118 279.22926,925.36763 298.94299,913.92118 C 323.64949,899.57575 323.83429,972.35121 363.94299,954.92118 C 474.25632,906.98235 439.41759,958.76746 472.85667,931.81808 C 521.49046,892.62291 510.74524,833.10188 564.28845,841.17511 C 589.84375,845.02833 597.75122,923.5475 614.20045,917.66213 C 632.18581,911.22714 672.04778,771.70334 672.09817,777.29932 C 673.92877,981.58993 672.94299,971.92118 672.94299,971.92118"
       id="path1927"
       sodipodi:nodetypes="cssssssssssc" />
    <text
       xml:space="preserve"
       style="font-size:16px;font-style:normal;font-variant:normal;font-weight:normal;font-stretch:normal;text-align:start;line-height:125%;writing-mode:lr-tb;text-anchor:start;fill:#000000;fill-opacity:1;stroke:none;stroke-width:1px;stroke-linecap:butt;stroke-linejoin:miter;stroke-opacity:1;font-family:Bitstream Vera Sans"
       x="341.08594"
       y="1001.1476"
       id="text1937"
       sodipodi:linespacing="125%"><tspan
         sodipodi:role="line"
         id="tspan1939"
         x="341.08594"
         y="1001.1476">t0</tspan></text>
    <path
       style="fill:none;fill-opacity:0.75;fill-rule:evenodd;stroke:#a00000;stroke-width:4;stroke-linecap:butt;stroke-linejoin:miter;stroke-miterlimit:4;stroke-dasharray:4, 4;stroke-dashoffset:0;stroke-opacity:1"
       d="M 672.94299,866.34836 C 644.83847,811.75669 640.83264,831.18227 587.94299,845.34836 C 556.98718,853.63964 591.29593,906.58337 504.94299,912.34836 C 480.29967,913.99357 486.40632,841.68947 453.94299,836.34836 C 434.1675,833.09475 417.02635,933.20686 393.02931,894.24526 C 349.41041,846.19312 328.31692,815.88905 304.59753,817.60229 C 268.43602,820.21422 276.13476,870.97468 248.68549,875.08931 C 214.67164,880.18797 187.94299,770.34836 187.94299,770.34836"
       id="path2900"
       sodipodi:nodetypes="cssssssc" />
    <path
       style="fill:none;fill-opacity:1;fill-rule:evenodd;stroke:#0000a0;stroke-width:4;stroke-linecap:butt;stroke-linejoin:miter;stroke-miterlimit:4;stroke-dasharray:4, 4;stroke-dashoffset:0;stroke-opacity:1"
       d="M 672.94299,841.86626 C 672.94299,841.86626 670.94299,890.86626 648.94299,890.86626 C 606.2189,876.81525 639.98454,827.46938 588.94299,802.86626 C 555.84044,786.91012 574.40281,775.39545 551.94299,773.86626 C 516.05299,771.42267 521.68643,832.50842 498.94299,843.86626 C 478.19184,854.22917 491.90251,894.11335 460.94299,893.86626 C 444.27828,893.73326 417.85867,803.90497 394.02931,842.96936 C 384.54104,858.52385 389.05011,911.68718 357.12876,919.74869 C 336.31491,925.00508 344.16372,872.92845 329.75695,880.50784 C 317.82976,886.78273 315.1062,911.31998 297.59753,918.61233 C 290.04223,921.75911 265.13476,827.23994 248.68553,833.12531 C 216.30201,844.71182 187.94299,937.86626 187.94299,937.86626"
       id="path2902"
       sodipodi:nodetypes="cssssssssssc" />
    <path
       style="fill:none;fill-opacity:0.75;fill-rule:evenodd;stroke:#000000;stroke-width:2.5;stroke-linecap:butt;stroke-linejoin:miter;stroke-miterlimit:4;stroke-dasharray:none;stroke-opacity:1"
       d="M 349,973.36218 L 349,759.36218"
       id="path2922"
       sodipodi:nodetypes="cc" />
    <path
       style="fill:none;fill-opacity:0.75;fill-rule:evenodd;stroke:#000000;stroke-width:5;stroke-linecap:butt;stroke-linejoin:miter;stroke-miterlimit:4;stroke-dasharray:none;stroke-opacity:1"
       d="M 185,888.36218 L 674,888.36218"
       id="path3098" />
  </g>
</svg>
