<?xml version="1.0" encoding="UTF-8" standalone="no"?>
<!-- Created with Inkscape (http://www.inkscape.org/) -->
<svg
   xmlns:dc="http://purl.org/dc/elements/1.1/"
   xmlns:cc="http://web.resource.org/cc/"
   xmlns:rdf="http://www.w3.org/1999/02/22-rdf-syntax-ns#"
   xmlns:svg="http://www.w3.org/2000/svg"
   xmlns="http://www.w3.org/2000/svg"
   xmlns:sodipodi="http://sodipodi.sourceforge.net/DTD/sodipodi-0.dtd"
   xmlns:inkscape="http://www.inkscape.org/namespaces/inkscape"
   width="744.09448819"
   height="1052.3622047"
   id="svg12001"
   sodipodi:version="0.32"
   inkscape:version="0.45.1"
   sodipodi:docbase="/usr/home/chmbrlnd/FREDsvn/EduDocs/DigiComm/Figures"
   sodipodi:docname="process.svg"
   inkscape:export-filename="/usr/home/chmbrlnd/Figures/DC/Process.png"
   inkscape:export-xdpi="90"
   inkscape:export-ydpi="90"
   inkscape:output_extension="org.inkscape.output.svg.inkscape">
  <defs
     id="defs12003">
    <marker
       inkscape:stockid="Dot_s"
       orient="auto"
       refY="0.0"
       refX="0.0"
       id="Dot_s"
       style="overflow:visible">
      <path
         id="path5854"
         d="M -2.5,-1.0 C -2.5,1.7600000 -4.7400000,4.0 -7.5,4.0 C -10.260000,4.0 -12.5,1.7600000 -12.5,-1.0 C -12.5,-3.7600000 -10.260000,-6.0 -7.5,-6.0 C -4.7400000,-6.0 -2.5,-3.7600000 -2.5,-1.0 z "
         style="fill-rule:evenodd;stroke:#000000;stroke-width:1.0pt;marker-start:none;marker-end:none"
         transform="scale(0.2) translate(7.4, 1)" />
    </marker>
    <marker
       inkscape:stockid="Dot_m"
       orient="auto"
       refY="0.0"
       refX="0.0"
       id="Dot_m"
       style="overflow:visible">
      <path
         id="path5857"
         d="M -2.5,-1.0 C -2.5,1.7600000 -4.7400000,4.0 -7.5,4.0 C -10.260000,4.0 -12.5,1.7600000 -12.5,-1.0 C -12.5,-3.7600000 -10.260000,-6.0 -7.5,-6.0 C -4.7400000,-6.0 -2.5,-3.7600000 -2.5,-1.0 z "
         style="fill-rule:evenodd;stroke:#000000;stroke-width:1.0pt;marker-start:none;marker-end:none"
         transform="scale(0.4) translate(7.4, 1)" />
    </marker>
    <marker
       inkscape:stockid="Arrow2Mend"
       orient="auto"
       refY="0.0"
       refX="0.0"
       id="Arrow2Mend"
       style="overflow:visible;">
      <path
         id="path3839"
         style="font-size:12.0;fill-rule:evenodd;stroke-width:0.62500000;stroke-linejoin:round;"
         d="M 8.7185878,4.0337352 L -2.2072895,0.016013256 L 8.7185884,-4.0017078 C 6.9730900,-1.6296469 6.9831476,1.6157441 8.7185878,4.0337352 z "
         transform="scale(0.6) rotate(180) translate(0,0)" />
    </marker>
    <marker
       inkscape:stockid="Arrow2Lend"
       orient="auto"
       refY="0.0"
       refX="0.0"
       id="Arrow2Lend"
       style="overflow:visible;">
      <path
         id="path3845"
         style="font-size:12.0;fill-rule:evenodd;stroke-width:0.62500000;stroke-linejoin:round;"
         d="M 8.7185878,4.0337352 L -2.2072895,0.016013256 L 8.7185884,-4.0017078 C 6.9730900,-1.6296469 6.9831476,1.6157441 8.7185878,4.0337352 z "
         transform="scale(1.1) rotate(180) translate(1,0)" />
    </marker>
    <marker
       inkscape:stockid="Arrow2Mstart"
       orient="auto"
       refY="0.0"
       refX="0.0"
       id="Arrow2Mstart"
       style="overflow:visible">
      <path
         id="path3842"
         style="font-size:12.0;fill-rule:evenodd;stroke-width:0.62500000;stroke-linejoin:round"
         d="M 8.7185878,4.0337352 L -2.2072895,0.016013256 L 8.7185884,-4.0017078 C 6.9730900,-1.6296469 6.9831476,1.6157441 8.7185878,4.0337352 z "
         transform="scale(0.6) translate(0,0)" />
    </marker>
    <marker
       inkscape:stockid="Arrow2Sstart"
       orient="auto"
       refY="0.0"
       refX="0.0"
       id="Arrow2Sstart"
       style="overflow:visible">
      <path
         id="path3836"
         style="font-size:12.0;fill-rule:evenodd;stroke-width:0.62500000;stroke-linejoin:round"
         d="M 8.7185878,4.0337352 L -2.2072895,0.016013256 L 8.7185884,-4.0017078 C 6.9730900,-1.6296469 6.9831476,1.6157441 8.7185878,4.0337352 z "
         transform="scale(0.3) translate(-2.3,0)" />
    </marker>
  </defs>
  <sodipodi:namedview
     id="base"
     pagecolor="#ffffff"
     bordercolor="#ffffff"
     borderopacity="0.0"
     inkscape:pageopacity="0.0"
     inkscape:pageshadow="0"
     inkscape:zoom="1"
     inkscape:cx="454.14263"
     inkscape:cy="305.11176"
     inkscape:document-units="px"
     inkscape:current-layer="layer1"
     showgrid="true"
     showguides="false"
     inkscape:window-width="914"
     inkscape:window-height="717"
     inkscape:window-x="278"
     inkscape:window-y="23" />
  <metadata
     id="metadata12006">
    <rdf:RDF>
      <cc:Work
         rdf:about="">
        <dc:format>image/svg+xml</dc:format>
        <dc:type
           rdf:resource="http://purl.org/dc/dcmitype/StillImage" />
      </cc:Work>
    </rdf:RDF>
  </metadata>
  <g
     inkscape:label="Layer 1"
     inkscape:groupmode="layer"
     id="layer1">
    <path
       style="fill:none;fill-opacity:0.75;fill-rule:evenodd;stroke:#000000;stroke-width:3;stroke-linecap:butt;stroke-linejoin:miter;marker-start:url(#Arrow2Mstart);marker-mid:none;marker-end:url(#Arrow2Mend);stroke-miterlimit:4;stroke-dasharray:none;stroke-opacity:1"
       d="M 186.94299,450.36218 L 186.94299,672.36218 L 705.94299,672.36218"
       id="path12009"
       sodipodi:nodetypes="ccc" />
    <text
       xml:space="preserve"
       style="font-size:16px;font-style:normal;font-variant:normal;font-weight:normal;font-stretch:normal;text-align:start;line-height:125%;writing-mode:lr-tb;text-anchor:start;fill:#000000;fill-opacity:1;stroke:none;stroke-width:1px;stroke-linecap:butt;stroke-linejoin:miter;stroke-opacity:1;font-family:Bitstream Vera Sans"
       x="674.61145"
       y="699.7215"
       id="text12021"
       sodipodi:linespacing="125%"><tspan
         sodipodi:role="line"
         id="tspan12023"
         x="674.61145"
         y="699.7215">t</tspan></text>
    <text
       xml:space="preserve"
       style="font-size:16px;font-style:normal;font-variant:normal;font-weight:normal;font-stretch:normal;text-align:start;line-height:125%;writing-mode:lr-tb;text-anchor:start;fill:#000000;fill-opacity:1;stroke:none;stroke-width:1px;stroke-linecap:butt;stroke-linejoin:miter;stroke-opacity:1;font-family:Bitstream Vera Sans"
       x="-529.53748"
       y="168.35414"
       id="text12025"
       transform="matrix(0,-1,1,0,0,0)"
       sodipodi:linespacing="125%"><tspan
         sodipodi:role="line"
         id="tspan12027"
         x="-529.53748"
         y="168.35414">A</tspan></text>
    <path
       style="fill:none;fill-opacity:0.75;fill-rule:evenodd;stroke:#000000;stroke-width:4;stroke-linecap:butt;stroke-linejoin:miter;stroke-miterlimit:4;stroke-dasharray:none;stroke-dashoffset:0;stroke-opacity:1"
       d="M 187.94299,607.36218 C 187.94299,607.36218 189.94299,558.36218 211.94299,558.36218 C 233.94299,558.36218 231.00751,587.95494 237.94299,611.36218 C 245.94299,638.36218 248.94299,646.36218 271.94299,646.36218 C 286.94299,646.36218 289.13573,633.77944 296.94299,612.36218 C 306.1595,587.07899 309.24006,561.43532 316.94299,577.36218 C 332.6055,609.74657 336.19955,656.72002 361.94299,653.36218 C 384.94299,650.36218 370.76015,545.02222 399.94299,555.36218 C 411.6077,559.49518 412.44119,649.71725 452.85667,628.25908 C 472.42864,617.86755 475.1084,545.70337 503.75722,529.47975 C 516.57107,522.22336 516.72226,576.29999 531.12903,568.7206 C 543.05622,562.44571 545.77978,495.90846 563.28845,488.61611 C 570.84375,485.46933 595.75122,621.9885 612.20045,616.10313 C 644.58397,604.51662 672.94299,469.36218 672.94299,469.36218"
       id="path12053"
       sodipodi:nodetypes="cssssssssssssc" />
    <path
       style="fill:none;fill-opacity:1;fill-rule:evenodd;stroke:#0000a0;stroke-width:4;stroke-linecap:butt;stroke-linejoin:miter;stroke-miterlimit:4;stroke-dasharray:4, 4;stroke-dashoffset:0;stroke-opacity:1"
       d="M 672.94299,515.44743 C 672.94299,515.44743 670.94299,564.44743 648.94299,564.44743 C 606.2189,550.39642 645.3749,481.54576 588.94299,476.44743 C 563.84044,475.49129 555.40281,558.97662 543.94299,545.44743 C 528.28048,513.06304 521.68643,506.08959 498.94299,517.44743 C 478.19184,527.81034 491.90251,567.69452 460.94299,567.44743 C 444.27828,567.31443 417.85867,477.48614 394.02931,516.55053 C 384.54104,532.10502 389.05011,585.26835 357.12876,593.32986 C 336.31491,598.58625 344.16372,546.50962 329.75695,554.08901 C 317.82976,560.3639 315.1062,584.90115 297.59753,592.1935 C 290.04223,595.34028 265.13476,500.82111 248.68553,506.70648 C 216.30201,518.29299 187.94299,611.44743 187.94299,611.44743"
       id="path2011"
       sodipodi:nodetypes="cssssssssssc" />
    <path
       style="fill:none;fill-opacity:0.75;fill-rule:evenodd;stroke:#a00000;stroke-width:4;stroke-linecap:butt;stroke-linejoin:miter;stroke-miterlimit:4;stroke-dasharray:4, 4;stroke-dashoffset:0;stroke-opacity:1"
       d="M 187.94299,543.44743 C 216.04751,598.0391 217.05334,562.61352 269.94299,548.44743 C 300.8988,540.15615 275.59005,503.21242 361.94299,497.44743 C 386.58631,495.80222 374.47966,568.10632 406.94299,573.44743 C 426.71848,576.70104 446.85963,481.58893 470.85667,520.55053 C 514.47557,568.60267 532.56906,593.90674 556.28845,592.1935 C 592.44996,589.58157 584.75122,538.82111 612.20049,534.70648 C 646.21434,529.60782 672.94299,639.44743 672.94299,639.44743"
       id="path2898"
       sodipodi:nodetypes="cssssssc" />
    <path
       style="fill:none;fill-opacity:0.75;fill-rule:evenodd;stroke:#000000;stroke-width:3;stroke-linecap:butt;stroke-linejoin:miter;marker-start:url(#Arrow2Mstart);marker-mid:none;marker-end:url(#Arrow2Mend);stroke-miterlimit:4;stroke-dasharray:none;stroke-opacity:1"
       d="M 186.94299,733.92118 L 186.94299,973.92118 L 705.94299,973.92118"
       id="path1917"
       sodipodi:nodetypes="ccc" />
    <text
       xml:space="preserve"
       style="font-size:16px;font-style:normal;font-variant:normal;font-weight:normal;font-stretch:normal;text-align:start;line-height:125%;writing-mode:lr-tb;text-anchor:start;fill:#000000;fill-opacity:1;stroke:none;stroke-width:1px;stroke-linecap:butt;stroke-linejoin:miter;stroke-opacity:1;font-family:Bitstream Vera Sans"
       x="674.61145"
       y="1001.2805"
       id="text1919"
       sodipodi:linespacing="125%"><tspan
         sodipodi:role="line"
         id="tspan1921"
         x="674.61145"
         y="1001.2805">t</tspan></text>
    <text
       xml:space="preserve"
       style="font-size:16px;font-style:normal;font-variant:normal;font-weight:normal;font-stretch:normal;text-align:start;line-height:125%;writing-mode:lr-tb;text-anchor:start;fill:#000000;fill-opacity:1;stroke:none;stroke-width:1px;stroke-linecap:butt;stroke-linejoin:miter;stroke-opacity:1;font-family:Bitstream Vera Sans"
       x="-811.0965"
       y="168.35413"
       id="text1923"
       transform="matrix(0,-1,1,0,0,0)"
       sodipodi:linespacing="125%"><tspan
         sodipodi:role="line"
         id="tspan1925"
         x="-811.0965"
         y="168.35413">A</tspan></text>
    <path
       style="fill:none;fill-opacity:0.75;fill-rule:evenodd;stroke:#000000;stroke-width:4;stroke-linecap:butt;stroke-linejoin:miter;stroke-miterlimit:4;stroke-dasharray:4, 4;stroke-dashoffset:0;stroke-opacity:1"
       d="M 187.94299,908.92118 C 187.94299,908.92118 189.94299,859.92118 211.94299,859.92118 C 233.94299,859.92118 231.00751,889.51394 237.94299,912.92118 C 245.94299,939.92118 249.5544,953.18908 271.94299,947.92118 C 288.94299,943.92118 277.22926,925.36763 296.94299,913.92118 C 321.64949,899.57575 321.83429,972.35121 361.94299,954.92118 C 472.25632,906.98235 437.41759,958.76746 470.85667,931.81808 C 519.49046,892.62291 508.74524,833.10188 562.28845,841.17511 C 587.84375,845.02833 595.75122,923.5475 612.20045,917.66213 C 644.58397,906.07562 672.94299,778.92118 672.94299,778.92118"
       id="path1927"
       sodipodi:nodetypes="cssssssssc" />
    <text
       xml:space="preserve"
       style="font-size:16px;font-style:normal;font-variant:normal;font-weight:normal;font-stretch:normal;text-align:start;line-height:125%;writing-mode:lr-tb;text-anchor:start;fill:#000000;fill-opacity:1;stroke:none;stroke-width:1px;stroke-linecap:butt;stroke-linejoin:miter;stroke-opacity:1;font-family:Bitstream Vera Sans"
       x="341.08594"
       y="1001.1476"
       id="text1937"
       sodipodi:linespacing="125%"><tspan
         sodipodi:role="line"
         id="tspan1939"
         x="341.08594"
         y="1001.1476">t0</tspan></text>
    <text
       xml:space="preserve"
       style="font-size:16px;font-style:normal;font-variant:normal;font-weight:normal;font-stretch:normal;text-align:start;line-height:125%;writing-mode:lr-tb;text-anchor:start;fill:#000000;fill-opacity:1;stroke:none;stroke-width:1px;stroke-linecap:butt;stroke-linejoin:miter;stroke-opacity:1;font-family:Bitstream Vera Sans"
       x="526.29297"
       y="1001.1398"
       id="text1941"
       sodipodi:linespacing="125%"><tspan
         sodipodi:role="line"
         id="tspan1943"
         x="526.29297"
         y="1001.1398">t1</tspan></text>
    <path
       style="fill:none;fill-opacity:0.75;fill-rule:evenodd;stroke:#a00000;stroke-width:4;stroke-linecap:butt;stroke-linejoin:miter;stroke-miterlimit:4;stroke-dasharray:4, 4;stroke-dashoffset:0;stroke-opacity:1"
       d="M 672.94299,866.34836 C 644.83847,811.75669 640.83264,831.18227 587.94299,845.34836 C 556.98718,853.63964 591.29593,906.58337 504.94299,912.34836 C 480.29967,913.99357 486.40632,841.68947 453.94299,836.34836 C 434.1675,833.09475 417.02635,933.20686 393.02931,894.24526 C 349.41041,846.19312 328.31692,815.88905 304.59753,817.60229 C 268.43602,820.21422 276.13476,870.97468 248.68549,875.08931 C 214.67164,880.18797 187.94299,770.34836 187.94299,770.34836"
       id="path2900"
       sodipodi:nodetypes="cssssssc" />
    <path
       style="fill:none;fill-opacity:1;fill-rule:evenodd;stroke:#0000a0;stroke-width:4;stroke-linecap:butt;stroke-linejoin:miter;stroke-miterlimit:4;stroke-dasharray:4, 4;stroke-dashoffset:0;stroke-opacity:1"
       d="M 672.94299,841.86626 C 672.94299,841.86626 670.94299,890.86626 648.94299,890.86626 C 606.2189,876.81525 639.98454,827.46938 588.94299,802.86626 C 555.84044,786.91012 574.40281,775.39545 551.94299,773.86626 C 516.05299,771.42267 521.68643,832.50842 498.94299,843.86626 C 478.19184,854.22917 491.90251,894.11335 460.94299,893.86626 C 444.27828,893.73326 417.85867,803.90497 394.02931,842.96936 C 384.54104,858.52385 389.05011,911.68718 357.12876,919.74869 C 336.31491,925.00508 344.16372,872.92845 329.75695,880.50784 C 317.82976,886.78273 315.1062,911.31998 297.59753,918.61233 C 290.04223,921.75911 265.13476,827.23994 248.68553,833.12531 C 216.30201,844.71182 187.94299,937.86626 187.94299,937.86626"
       id="path2902"
       sodipodi:nodetypes="cssssssssssc" />
    <path
       style="fill:none;fill-opacity:0.75;fill-rule:evenodd;stroke:#000000;stroke-width:2.5;stroke-linecap:butt;stroke-linejoin:miter;stroke-miterlimit:4;stroke-dasharray:none;stroke-opacity:1"
       d="M 349,973.36218 L 349,759.36218"
       id="path2922"
       sodipodi:nodetypes="cc" />
    <path
       style="fill:none;fill-opacity:0.75;fill-rule:evenodd;stroke:#000000;stroke-width:2.5;stroke-linecap:butt;stroke-linejoin:miter;stroke-miterlimit:4;stroke-dasharray:none;stroke-opacity:1"
       d="M 534,973.36218 L 534,759.36218"
       id="path2924"
       sodipodi:nodetypes="cc" />
    <path
       sodipodi:type="arc"
       style="fill:#a00000;fill-opacity:1;fill-rule:nonzero;stroke:#a00000;stroke-width:2.5;stroke-linecap:round;stroke-linejoin:round;stroke-miterlimit:4;stroke-dasharray:none;stroke-dashoffset:0;stroke-opacity:1"
       id="path2926"
       sodipodi:cx="415"
       sodipodi:cy="747.36218"
       sodipodi:rx="5"
       sodipodi:ry="5"
       d="M 420,747.36218 A 5,5 0 1 1 419.99784,747.21538"
       sodipodi:start="0"
       sodipodi:end="6.2538208"
       sodipodi:open="true"
       transform="translate(-66,94)" />
    <path
       sodipodi:type="arc"
       style="fill:#0000a0;fill-opacity:1;fill-rule:nonzero;stroke:#0000a0;stroke-width:2.5;stroke-linecap:round;stroke-linejoin:round;stroke-miterlimit:4;stroke-dasharray:none;stroke-dashoffset:0;stroke-opacity:1"
       id="path2930"
       sodipodi:cx="415"
       sodipodi:cy="747.36218"
       sodipodi:rx="5"
       sodipodi:ry="5"
       d="M 420,747.36218 A 5,5 0 1 1 419.99784,747.21538"
       sodipodi:start="0"
       sodipodi:end="6.2538208"
       sodipodi:open="true"
       transform="translate(-66,167)" />
    <path
       sodipodi:type="arc"
       style="fill:#000000;fill-opacity:1;fill-rule:nonzero;stroke:#000000;stroke-width:2.5;stroke-linecap:round;stroke-linejoin:round;stroke-miterlimit:4;stroke-dasharray:none;stroke-dashoffset:0;stroke-opacity:1"
       id="path2932"
       sodipodi:cx="415"
       sodipodi:cy="747.36218"
       sodipodi:rx="5"
       sodipodi:ry="5"
       d="M 420,747.36218 A 5,5 0 1 1 419.99784,747.21538"
       sodipodi:start="0"
       sodipodi:end="6.2538208"
       sodipodi:open="true"
       transform="translate(-66,209)" />
    <path
       sodipodi:type="arc"
       style="fill:#a00000;fill-opacity:1;fill-rule:nonzero;stroke:#a00000;stroke-width:2.5;stroke-linecap:round;stroke-linejoin:round;stroke-miterlimit:4;stroke-dasharray:none;stroke-dashoffset:0;stroke-opacity:1"
       id="path2934"
       sodipodi:cx="415"
       sodipodi:cy="747.36218"
       sodipodi:rx="5"
       sodipodi:ry="5"
       d="M 420,747.36218 A 5,5 0 1 1 419.99784,747.21538"
       sodipodi:start="0"
       sodipodi:end="6.2538208"
       sodipodi:open="true"
       transform="translate(119,159)" />
    <path
       sodipodi:type="arc"
       style="fill:#0000a0;fill-opacity:1;fill-rule:nonzero;stroke:#0000a0;stroke-width:2.5;stroke-linecap:round;stroke-linejoin:round;stroke-miterlimit:4;stroke-dasharray:none;stroke-dashoffset:0;stroke-opacity:1"
       id="path2936"
       sodipodi:cx="415"
       sodipodi:cy="747.36218"
       sodipodi:rx="5"
       sodipodi:ry="5"
       d="M 420,747.36218 A 5,5 0 1 1 419.99784,747.21538"
       sodipodi:start="0"
       sodipodi:end="6.2538208"
       sodipodi:open="true"
       transform="translate(119,34)" />
    <path
       sodipodi:type="arc"
       style="fill:#000000;fill-opacity:1;fill-rule:nonzero;stroke:#000000;stroke-width:2.5;stroke-linecap:round;stroke-linejoin:round;stroke-miterlimit:4;stroke-dasharray:none;stroke-dashoffset:0;stroke-opacity:1"
       id="path2938"
       sodipodi:cx="415"
       sodipodi:cy="747.36218"
       sodipodi:rx="5"
       sodipodi:ry="5"
       d="M 420,747.36218 A 5,5 0 1 1 419.99784,747.21538"
       sodipodi:start="0"
       sodipodi:end="6.2538208"
       sodipodi:open="true"
       transform="translate(119,96)" />
  </g>
</svg>
