<?xml version="1.0" encoding="UTF-8" standalone="no"?>
<!-- Created with Inkscape (http://www.inkscape.org/) -->
<svg
   xmlns:dc="http://purl.org/dc/elements/1.1/"
   xmlns:cc="http://web.resource.org/cc/"
   xmlns:rdf="http://www.w3.org/1999/02/22-rdf-syntax-ns#"
   xmlns:svg="http://www.w3.org/2000/svg"
   xmlns="http://www.w3.org/2000/svg"
   xmlns:sodipodi="http://sodipodi.sourceforge.net/DTD/sodipodi-0.dtd"
   xmlns:inkscape="http://www.inkscape.org/namespaces/inkscape"
   width="744.09448819"
   height="1052.3622047"
   id="svg3267"
   sodipodi:version="0.32"
   inkscape:version="0.45.1"
   sodipodi:docbase="/Users/chmbrlnd/Desktop/FREDsvn/EduDocs/Probability/Figures/5Chapter"
   sodipodi:docname="rvdices.svg"
   inkscape:export-filename="/Users/chmbrlnd/Desktop/FREDsvn/EduDocs/Probability/Figures/5Chapter/rvdices.png"
   inkscape:export-xdpi="90"
   inkscape:export-ydpi="90"
   inkscape:output_extension="org.inkscape.output.svg.inkscape">
  <defs
     id="defs3269">
    <marker
       inkscape:stockid="Arrow2Mend"
       orient="auto"
       refY="0.0"
       refX="0.0"
       id="Arrow2Mend"
       style="overflow:visible;">
      <path
         id="path3106"
         style="font-size:12.0;fill-rule:evenodd;stroke-width:0.62500000;stroke-linejoin:round;"
         d="M 8.7185878,4.0337352 L -2.2072895,0.016013256 L 8.7185884,-4.0017078 C 6.9730900,-1.6296469 6.9831476,1.6157441 8.7185878,4.0337352 z "
         transform="scale(0.6) rotate(180) translate(0,0)" />
    </marker>
  </defs>
  <sodipodi:namedview
     id="base"
     pagecolor="#ffffff"
     bordercolor="#ffffff"
     borderopacity="0.0"
     inkscape:pageopacity="0.0"
     inkscape:pageshadow="0"
     inkscape:zoom="1"
     inkscape:cx="347.25762"
     inkscape:cy="389.95681"
     inkscape:document-units="px"
     inkscape:current-layer="layer1"
     showgrid="true"
     inkscape:window-width="1280"
     inkscape:window-height="768"
     inkscape:window-x="405"
     inkscape:window-y="63" />
  <metadata
     id="metadata3272">
    <rdf:RDF>
      <cc:Work
         rdf:about="">
        <dc:format>image/svg+xml</dc:format>
        <dc:type
           rdf:resource="http://purl.org/dc/dcmitype/StillImage" />
      </cc:Work>
    </rdf:RDF>
  </metadata>
  <g
     inkscape:label="Layer 1"
     inkscape:groupmode="layer"
     id="layer1">
    <g
       id="g2056"
       transform="translate(-92,-299.9999)">
      <rect
         ry="10"
         y="978.61218"
         x="1.2500342"
         height="72.499947"
         width="72.499931"
         id="rect3275"
         style="fill:#ffffff;fill-opacity:0;fill-rule:nonzero;stroke:#808080;stroke-width:2.5;stroke-linecap:round;stroke-linejoin:round;stroke-miterlimit:4;stroke-dasharray:none;stroke-dashoffset:0;stroke-opacity:1" />
      <path
         transform="matrix(0.46875,0,0,0.652174,-33.59375,439.5172)"
         d="M 125 912.86218 A 16 11.5 0 1 1  93,912.86218 A 16 11.5 0 1 1  125 912.86218 z"
         sodipodi:ry="11.5"
         sodipodi:rx="16"
         sodipodi:cy="912.86218"
         sodipodi:cx="109"
         id="path3280"
         style="fill:#6060e0;fill-opacity:1;fill-rule:nonzero;stroke:#000000;stroke-width:0;stroke-linecap:round;stroke-linejoin:round;stroke-miterlimit:4;stroke-dasharray:none;stroke-dashoffset:0;stroke-opacity:1"
         sodipodi:type="arc" />
      <path
         transform="matrix(0.46875,0,0,0.652174,-33.59375,399.5172)"
         d="M 125 912.86218 A 16 11.5 0 1 1  93,912.86218 A 16 11.5 0 1 1  125 912.86218 z"
         sodipodi:ry="11.5"
         sodipodi:rx="16"
         sodipodi:cy="912.86218"
         sodipodi:cx="109"
         id="path3284"
         style="fill:#6060e0;fill-opacity:1;fill-rule:nonzero;stroke:#000000;stroke-width:0;stroke-linecap:round;stroke-linejoin:round;stroke-miterlimit:4;stroke-dasharray:none;stroke-dashoffset:0;stroke-opacity:1"
         sodipodi:type="arc" />
      <path
         transform="matrix(0.46875,0,0,0.652174,6.40625,439.5172)"
         d="M 125 912.86218 A 16 11.5 0 1 1  93,912.86218 A 16 11.5 0 1 1  125 912.86218 z"
         sodipodi:ry="11.5"
         sodipodi:rx="16"
         sodipodi:cy="912.86218"
         sodipodi:cx="109"
         id="path3302"
         style="fill:#6060e0;fill-opacity:1;fill-rule:nonzero;stroke:#000000;stroke-width:0;stroke-linecap:round;stroke-linejoin:round;stroke-miterlimit:4;stroke-dasharray:none;stroke-dashoffset:0;stroke-opacity:1"
         sodipodi:type="arc" />
      <path
         transform="matrix(0.46875,0,0,0.652174,6.40625,399.5172)"
         d="M 125 912.86218 A 16 11.5 0 1 1  93,912.86218 A 16 11.5 0 1 1  125 912.86218 z"
         sodipodi:ry="11.5"
         sodipodi:rx="16"
         sodipodi:cy="912.86218"
         sodipodi:cx="109"
         id="path3306"
         style="fill:#6060e0;fill-opacity:1;fill-rule:nonzero;stroke:#000000;stroke-width:0;stroke-linecap:round;stroke-linejoin:round;stroke-miterlimit:4;stroke-dasharray:none;stroke-dashoffset:0;stroke-opacity:1"
         sodipodi:type="arc" />
    </g>
    <g
       id="g2048"
       transform="translate(-192,-399.9999)">
      <rect
         ry="10"
         y="978.61218"
         x="101.25001"
         height="72.499947"
         width="72.499931"
         id="rect3342"
         style="fill:#ffffff;fill-opacity:0;fill-rule:nonzero;stroke:#808080;stroke-width:2.5;stroke-linecap:round;stroke-linejoin:round;stroke-miterlimit:4;stroke-dasharray:none;stroke-dashoffset:0;stroke-opacity:1" />
      <path
         transform="matrix(0.46875,0,0,0.652174,66.40622,439.5172)"
         d="M 125 912.86218 A 16 11.5 0 1 1  93,912.86218 A 16 11.5 0 1 1  125 912.86218 z"
         sodipodi:ry="11.5"
         sodipodi:rx="16"
         sodipodi:cy="912.86218"
         sodipodi:cx="109"
         id="path3344"
         style="fill:#6060e0;fill-opacity:1;fill-rule:nonzero;stroke:#000000;stroke-width:0;stroke-linecap:round;stroke-linejoin:round;stroke-miterlimit:4;stroke-dasharray:none;stroke-dashoffset:0;stroke-opacity:1"
         sodipodi:type="arc" />
      <path
         transform="matrix(0.46875,0,0,0.652174,66.40622,399.5172)"
         d="M 125 912.86218 A 16 11.5 0 1 1  93,912.86218 A 16 11.5 0 1 1  125 912.86218 z"
         sodipodi:ry="11.5"
         sodipodi:rx="16"
         sodipodi:cy="912.86218"
         sodipodi:cx="109"
         id="path3348"
         style="fill:#6060e0;fill-opacity:1;fill-rule:nonzero;stroke:#000000;stroke-width:0;stroke-linecap:round;stroke-linejoin:round;stroke-miterlimit:4;stroke-dasharray:none;stroke-dashoffset:0;stroke-opacity:1"
         sodipodi:type="arc" />
      <path
         transform="matrix(0.46875,0,0,0.652174,86.40622,419.5172)"
         d="M 125 912.86218 A 16 11.5 0 1 1  93,912.86218 A 16 11.5 0 1 1  125 912.86218 z"
         sodipodi:ry="11.5"
         sodipodi:rx="16"
         sodipodi:cy="912.86218"
         sodipodi:cx="109"
         id="path3352"
         style="fill:#6060e0;fill-opacity:1;fill-rule:nonzero;stroke:#000000;stroke-width:0;stroke-linecap:round;stroke-linejoin:round;stroke-miterlimit:4;stroke-dasharray:none;stroke-dashoffset:0;stroke-opacity:1"
         sodipodi:type="arc" />
      <path
         transform="matrix(0.46875,0,0,0.652174,106.4062,439.5172)"
         d="M 125 912.86218 A 16 11.5 0 1 1  93,912.86218 A 16 11.5 0 1 1  125 912.86218 z"
         sodipodi:ry="11.5"
         sodipodi:rx="16"
         sodipodi:cy="912.86218"
         sodipodi:cx="109"
         id="path3356"
         style="fill:#6060e0;fill-opacity:1;fill-rule:nonzero;stroke:#000000;stroke-width:0;stroke-linecap:round;stroke-linejoin:round;stroke-miterlimit:4;stroke-dasharray:none;stroke-dashoffset:0;stroke-opacity:1"
         sodipodi:type="arc" />
      <path
         transform="matrix(0.46875,0,0,0.652174,106.4062,399.5172)"
         d="M 125 912.86218 A 16 11.5 0 1 1  93,912.86218 A 16 11.5 0 1 1  125 912.86218 z"
         sodipodi:ry="11.5"
         sodipodi:rx="16"
         sodipodi:cy="912.86218"
         sodipodi:cx="109"
         id="path3360"
         style="fill:#6060e0;fill-opacity:1;fill-rule:nonzero;stroke:#000000;stroke-width:0;stroke-linecap:round;stroke-linejoin:round;stroke-miterlimit:4;stroke-dasharray:none;stroke-dashoffset:0;stroke-opacity:1"
         sodipodi:type="arc" />
    </g>
    <g
       id="g2039"
       transform="translate(-292,-499.9999)">
      <rect
         ry="10"
         y="978.61218"
         x="201.25003"
         height="72.499947"
         width="72.499931"
         id="rect3364"
         style="fill:#ffffff;fill-opacity:0;fill-rule:nonzero;stroke:#808080;stroke-width:2.5;stroke-linecap:round;stroke-linejoin:round;stroke-miterlimit:4;stroke-dasharray:none;stroke-dashoffset:0;stroke-opacity:1" />
      <path
         transform="matrix(0.46875,0,0,0.652174,166.4062,439.5172)"
         d="M 125 912.86218 A 16 11.5 0 1 1  93,912.86218 A 16 11.5 0 1 1  125 912.86218 z"
         sodipodi:ry="11.5"
         sodipodi:rx="16"
         sodipodi:cy="912.86218"
         sodipodi:cx="109"
         id="path3366"
         style="fill:#6060e0;fill-opacity:1;fill-rule:nonzero;stroke:#000000;stroke-width:0;stroke-linecap:round;stroke-linejoin:round;stroke-miterlimit:4;stroke-dasharray:none;stroke-dashoffset:0;stroke-opacity:1"
         sodipodi:type="arc" />
      <path
         transform="matrix(0.46875,0,0,0.652174,166.4062,419.5172)"
         d="M 125 912.86218 A 16 11.5 0 1 1  93,912.86218 A 16 11.5 0 1 1  125 912.86218 z"
         sodipodi:ry="11.5"
         sodipodi:rx="16"
         sodipodi:cy="912.86218"
         sodipodi:cx="109"
         id="path3368"
         style="fill:#6060e0;fill-opacity:1;fill-rule:nonzero;stroke:#000000;stroke-width:0;stroke-linecap:round;stroke-linejoin:round;stroke-miterlimit:4;stroke-dasharray:none;stroke-dashoffset:0;stroke-opacity:1"
         sodipodi:type="arc" />
      <path
         transform="matrix(0.46875,0,0,0.652174,166.4062,399.5172)"
         d="M 125 912.86218 A 16 11.5 0 1 1  93,912.86218 A 16 11.5 0 1 1  125 912.86218 z"
         sodipodi:ry="11.5"
         sodipodi:rx="16"
         sodipodi:cy="912.86218"
         sodipodi:cx="109"
         id="path3370"
         style="fill:#6060e0;fill-opacity:1;fill-rule:nonzero;stroke:#000000;stroke-width:0;stroke-linecap:round;stroke-linejoin:round;stroke-miterlimit:4;stroke-dasharray:none;stroke-dashoffset:0;stroke-opacity:1"
         sodipodi:type="arc" />
      <path
         transform="matrix(0.46875,0,0,0.652174,206.4062,439.5172)"
         d="M 125 912.86218 A 16 11.5 0 1 1  93,912.86218 A 16 11.5 0 1 1  125 912.86218 z"
         sodipodi:ry="11.5"
         sodipodi:rx="16"
         sodipodi:cy="912.86218"
         sodipodi:cx="109"
         id="path3378"
         style="fill:#6060e0;fill-opacity:1;fill-rule:nonzero;stroke:#000000;stroke-width:0;stroke-linecap:round;stroke-linejoin:round;stroke-miterlimit:4;stroke-dasharray:none;stroke-dashoffset:0;stroke-opacity:1"
         sodipodi:type="arc" />
      <path
         transform="matrix(0.46875,0,0,0.652174,206.4062,419.5172)"
         d="M 125 912.86218 A 16 11.5 0 1 1  93,912.86218 A 16 11.5 0 1 1  125 912.86218 z"
         sodipodi:ry="11.5"
         sodipodi:rx="16"
         sodipodi:cy="912.86218"
         sodipodi:cx="109"
         id="path3380"
         style="fill:#6060e0;fill-opacity:1;fill-rule:nonzero;stroke:#000000;stroke-width:0;stroke-linecap:round;stroke-linejoin:round;stroke-miterlimit:4;stroke-dasharray:none;stroke-dashoffset:0;stroke-opacity:1"
         sodipodi:type="arc" />
      <path
         transform="matrix(0.46875,0,0,0.652174,206.4062,399.5172)"
         d="M 125 912.86218 A 16 11.5 0 1 1  93,912.86218 A 16 11.5 0 1 1  125 912.86218 z"
         sodipodi:ry="11.5"
         sodipodi:rx="16"
         sodipodi:cy="912.86218"
         sodipodi:cx="109"
         id="path3382"
         style="fill:#6060e0;fill-opacity:1;fill-rule:nonzero;stroke:#000000;stroke-width:0;stroke-linecap:round;stroke-linejoin:round;stroke-miterlimit:4;stroke-dasharray:none;stroke-dashoffset:0;stroke-opacity:1"
         sodipodi:type="arc" />
    </g>
    <g
       id="g2034"
       transform="translate(-192,-7.629395e-6)">
      <rect
         ry="10"
         y="878.61224"
         x="101.25001"
         height="72.499947"
         width="72.499931"
         id="rect3386"
         style="fill:#ffffff;fill-opacity:0;fill-rule:nonzero;stroke:#808080;stroke-width:2.5;stroke-linecap:round;stroke-linejoin:round;stroke-miterlimit:4;stroke-dasharray:none;stroke-dashoffset:0;stroke-opacity:1" />
      <path
         transform="matrix(0.46875,0,0,0.652174,66.40622,299.5172)"
         d="M 125 912.86218 A 16 11.5 0 1 1  93,912.86218 A 16 11.5 0 1 1  125 912.86218 z"
         sodipodi:ry="11.5"
         sodipodi:rx="16"
         sodipodi:cy="912.86218"
         sodipodi:cx="109"
         id="path3392"
         style="fill:#6060e0;fill-opacity:1;fill-rule:nonzero;stroke:#000000;stroke-width:0;stroke-linecap:round;stroke-linejoin:round;stroke-miterlimit:4;stroke-dasharray:none;stroke-dashoffset:0;stroke-opacity:1"
         sodipodi:type="arc" />
      <path
         transform="matrix(0.46875,0,0,0.652174,106.4062,339.5172)"
         d="M 125 912.86218 A 16 11.5 0 1 1  93,912.86218 A 16 11.5 0 1 1  125 912.86218 z"
         sodipodi:ry="11.5"
         sodipodi:rx="16"
         sodipodi:cy="912.86218"
         sodipodi:cx="109"
         id="path3400"
         style="fill:#6060e0;fill-opacity:1;fill-rule:nonzero;stroke:#000000;stroke-width:0;stroke-linecap:round;stroke-linejoin:round;stroke-miterlimit:4;stroke-dasharray:none;stroke-dashoffset:0;stroke-opacity:1"
         sodipodi:type="arc" />
    </g>
    <g
       id="g3215"
       transform="translate(-292,99.99999)">
      <rect
         ry="10"
         y="878.61224"
         x="201.25"
         height="72.499947"
         width="72.499931"
         id="rect3408"
         style="fill:#ffffff;fill-opacity:0;fill-rule:nonzero;stroke:#808080;stroke-width:2.5;stroke-linecap:round;stroke-linejoin:round;stroke-miterlimit:4;stroke-dasharray:none;stroke-dashoffset:0;stroke-opacity:1" />
      <path
         transform="matrix(0.46875,0,0,0.652174,186.4062,319.5172)"
         d="M 125 912.86218 A 16 11.5 0 1 1  93,912.86218 A 16 11.5 0 1 1  125 912.86218 z"
         sodipodi:ry="11.5"
         sodipodi:rx="16"
         sodipodi:cy="912.86218"
         sodipodi:cx="109"
         id="path3418"
         style="fill:#6060e0;fill-opacity:1;fill-rule:nonzero;stroke:#000000;stroke-width:0;stroke-linecap:round;stroke-linejoin:round;stroke-miterlimit:4;stroke-dasharray:none;stroke-dashoffset:0;stroke-opacity:1"
         sodipodi:type="arc" />
    </g>
    <g
       id="g2028"
       transform="translate(-292,-100)">
      <rect
         ry="10"
         y="878.61224"
         x="201.25003"
         height="72.499947"
         width="72.499931"
         id="rect3430"
         style="fill:#ffffff;fill-opacity:0;fill-rule:nonzero;stroke:#808080;stroke-width:2.5;stroke-linecap:round;stroke-linejoin:round;stroke-miterlimit:4;stroke-dasharray:none;stroke-dashoffset:0;stroke-opacity:1" />
      <path
         transform="matrix(0.46875,0,0,0.652174,166.4062,299.5172)"
         d="M 125 912.86218 A 16 11.5 0 1 1  93,912.86218 A 16 11.5 0 1 1  125 912.86218 z"
         sodipodi:ry="11.5"
         sodipodi:rx="16"
         sodipodi:cy="912.86218"
         sodipodi:cx="109"
         id="path3436"
         style="fill:#6060e0;fill-opacity:1;fill-rule:nonzero;stroke:#000000;stroke-width:0;stroke-linecap:round;stroke-linejoin:round;stroke-miterlimit:4;stroke-dasharray:none;stroke-dashoffset:0;stroke-opacity:1"
         sodipodi:type="arc" />
      <path
         transform="matrix(0.46875,0,0,0.652174,186.4062,319.5172)"
         d="M 125 912.86218 A 16 11.5 0 1 1  93,912.86218 A 16 11.5 0 1 1  125 912.86218 z"
         sodipodi:ry="11.5"
         sodipodi:rx="16"
         sodipodi:cy="912.86218"
         sodipodi:cx="109"
         id="path3440"
         style="fill:#6060e0;fill-opacity:1;fill-rule:nonzero;stroke:#000000;stroke-width:0;stroke-linecap:round;stroke-linejoin:round;stroke-miterlimit:4;stroke-dasharray:none;stroke-dashoffset:0;stroke-opacity:1"
         sodipodi:type="arc" />
      <path
         transform="matrix(0.46875,0,0,0.652174,206.4062,339.5172)"
         d="M 125 912.86218 A 16 11.5 0 1 1  93,912.86218 A 16 11.5 0 1 1  125 912.86218 z"
         sodipodi:ry="11.5"
         sodipodi:rx="16"
         sodipodi:cy="912.86218"
         sodipodi:cx="109"
         id="path3444"
         style="fill:#6060e0;fill-opacity:1;fill-rule:nonzero;stroke:#000000;stroke-width:0;stroke-linecap:round;stroke-linejoin:round;stroke-miterlimit:4;stroke-dasharray:none;stroke-dashoffset:0;stroke-opacity:1"
         sodipodi:type="arc" />
    </g>
    <path
       style="fill:none;fill-opacity:0.75;fill-rule:evenodd;stroke:#606060;stroke-width:2.5;stroke-linecap:butt;stroke-linejoin:miter;stroke-opacity:1;stroke-miterlimit:4;stroke-dasharray:none;marker-end:url(#Arrow2Mend)"
       d="M 5,1014.3622 C 5,1014.3622 55.059518,1013.9318 80.059518,1022.1818 C 105.05952,1030.4318 105,1047.3622 105,1047.3622"
       id="path3394"
       sodipodi:nodetypes="csc" />
    <path
       style="fill:none;fill-opacity:0.75;fill-rule:evenodd;stroke:#606060;stroke-width:2.5;stroke-linecap:butt;stroke-linejoin:miter;stroke-opacity:1;stroke-miterlimit:4;stroke-dasharray:none;marker-end:url(#Arrow2Mend)"
       d="M 4,914.36218 C 4,914.36218 104.59918,914.06911 154.84918,947.06912 C 205.09918,980.06912 205,1046.3622 205,1046.3622"
       id="path3396"
       sodipodi:nodetypes="csc" />
    <path
       style="fill:none;fill-opacity:0.75;fill-rule:evenodd;stroke:#606060;stroke-width:2.5;stroke-linecap:butt;stroke-linejoin:miter;stroke-opacity:1;stroke-miterlimit:4;stroke-dasharray:none;marker-end:url(#Arrow2Mend)"
       d="M 4,814.36218 C 4,814.36218 155.16489,814.57621 230.41489,872.82621 C 305.66489,931.07622 305,1047.3622 305,1047.3622"
       id="path3398"
       sodipodi:nodetypes="csc" />
    <path
       style="fill:none;fill-opacity:0.75;fill-rule:evenodd;stroke:#606060;stroke-width:2.5;stroke-linecap:butt;stroke-linejoin:miter;stroke-opacity:1;stroke-miterlimit:4;stroke-dasharray:none;marker-end:url(#Arrow2Mend)"
       d="M 4,714.36218 C 4,714.36218 204.65916,714.42578 304.90916,797.67578 C 405.15916,880.92579 405,1047.3622 405,1047.3622"
       id="path3401"
       sodipodi:nodetypes="csc" />
    <path
       style="fill:none;fill-opacity:0.75;fill-rule:evenodd;stroke:#606060;stroke-width:2.5;stroke-linecap:butt;stroke-linejoin:miter;stroke-opacity:1;stroke-miterlimit:4;stroke-dasharray:none;marker-end:url(#Arrow2Mend)"
       d="M 4,614.36218 C 4,614.36218 254.97088,614.01367 380.22088,722.26367 C 505.47088,830.51368 505,1047.3622 505,1047.3622"
       id="path3403"
       sodipodi:nodetypes="csc" />
    <path
       style="fill:none;fill-opacity:0.75;fill-rule:evenodd;stroke:#606060;stroke-width:2.5;stroke-linecap:butt;stroke-linejoin:miter;stroke-opacity:1;stroke-miterlimit:4;stroke-dasharray:none;marker-end:url(#Arrow2Mend)"
       d="M 4,514.36218 C 4,514.36218 304.34692,514.56669 454.59692,647.8167 C 604.84692,781.0667 605,1047.3622 605,1047.3622"
       id="path3405"
       sodipodi:nodetypes="csc" />
    <text
       xml:space="preserve"
       style="font-size:18px;font-style:normal;font-variant:normal;font-weight:normal;font-stretch:normal;text-align:start;line-height:125%;writing-mode:lr-tb;text-anchor:start;fill:#000000;fill-opacity:1;stroke:none;stroke-width:1px;stroke-linecap:butt;stroke-linejoin:miter;stroke-opacity:1;font-family:Bitstream Vera Sans"
       x="103.11576"
       y="1076.1161"
       id="text2485"
       sodipodi:linespacing="125%"><tspan
         sodipodi:role="line"
         id="tspan2487"
         x="103.11576"
         y="1076.1161">1</tspan></text>
    <text
       xml:space="preserve"
       style="font-size:18px;font-style:normal;font-variant:normal;font-weight:normal;font-stretch:normal;text-align:start;line-height:125%;writing-mode:lr-tb;text-anchor:start;fill:#000000;fill-opacity:1;stroke:none;stroke-width:1px;stroke-linecap:butt;stroke-linejoin:miter;stroke-opacity:1;font-family:Bitstream Vera Sans"
       x="203.51556"
       y="1076.2347"
       id="text4108"
       sodipodi:linespacing="125%"><tspan
         sodipodi:role="line"
         id="tspan4110"
         x="203.51556"
         y="1076.2347">2</tspan></text>
    <text
       xml:space="preserve"
       style="font-size:18px;font-style:normal;font-variant:normal;font-weight:normal;font-stretch:normal;text-align:start;line-height:125%;writing-mode:lr-tb;text-anchor:start;fill:#000000;fill-opacity:1;stroke:none;stroke-width:1px;stroke-linecap:butt;stroke-linejoin:miter;stroke-opacity:1;font-family:Bitstream Vera Sans"
       x="303.30902"
       y="1076.1073"
       id="text4112"
       sodipodi:linespacing="125%"><tspan
         sodipodi:role="line"
         id="tspan4114"
         x="303.30902"
         y="1076.1073">3</tspan></text>
    <text
       xml:space="preserve"
       style="font-size:18px;font-style:normal;font-variant:normal;font-weight:normal;font-stretch:normal;text-align:start;line-height:125%;writing-mode:lr-tb;text-anchor:start;fill:#000000;fill-opacity:1;stroke:none;stroke-width:1px;stroke-linecap:butt;stroke-linejoin:miter;stroke-opacity:1;font-family:Bitstream Vera Sans"
       x="403.33978"
       y="1076.1161"
       id="text4116"
       sodipodi:linespacing="125%"><tspan
         sodipodi:role="line"
         id="tspan4118"
         x="403.33978"
         y="1076.1161">4</tspan></text>
    <text
       xml:space="preserve"
       style="font-size:18px;font-style:normal;font-variant:normal;font-weight:normal;font-stretch:normal;text-align:start;line-height:125%;writing-mode:lr-tb;text-anchor:start;fill:#000000;fill-opacity:1;stroke:none;stroke-width:1px;stroke-linecap:butt;stroke-linejoin:miter;stroke-opacity:1;font-family:Bitstream Vera Sans"
       x="503.36615"
       y="1075.9886"
       id="text4120"
       sodipodi:linespacing="125%"><tspan
         sodipodi:role="line"
         id="tspan4122"
         x="503.36615"
         y="1075.9886">5</tspan></text>
    <text
       xml:space="preserve"
       style="font-size:18px;font-style:normal;font-variant:normal;font-weight:normal;font-stretch:normal;text-align:start;line-height:125%;writing-mode:lr-tb;text-anchor:start;fill:#000000;fill-opacity:1;stroke:none;stroke-width:1px;stroke-linecap:butt;stroke-linejoin:miter;stroke-opacity:1;font-family:Bitstream Vera Sans"
       x="603.21246"
       y="1076.1073"
       id="text4124"
       sodipodi:linespacing="125%"><tspan
         sodipodi:role="line"
         id="tspan4126"
         x="603.21246"
         y="1076.1073">6</tspan></text>
    <path
       sodipodi:type="arc"
       style="fill:black;fill-opacity:1;fill-rule:nonzero;stroke:black;stroke-width:0;stroke-linecap:round;stroke-linejoin:round;stroke-miterlimit:4;stroke-dasharray:none;stroke-dashoffset:0;stroke-opacity:1"
       id="path3192"
       sodipodi:cx="109"
       sodipodi:cy="912.86218"
       sodipodi:rx="16"
       sodipodi:ry="11.5"
       d="M 125 912.86218 A 16 11.5 0 1 1  93,912.86218 A 16 11.5 0 1 1  125 912.86218 z"
       transform="matrix(0.3125,0,0,0.434783,-29.0625,317.9653)" />
    <path
       sodipodi:type="arc"
       style="fill:black;fill-opacity:1;fill-rule:nonzero;stroke:black;stroke-width:0;stroke-linecap:round;stroke-linejoin:round;stroke-miterlimit:4;stroke-dasharray:none;stroke-dashoffset:0;stroke-opacity:1"
       id="path3194"
       sodipodi:cx="109"
       sodipodi:cy="912.86218"
       sodipodi:rx="16"
       sodipodi:ry="11.5"
       d="M 125 912.86218 A 16 11.5 0 1 1  93,912.86218 A 16 11.5 0 1 1  125 912.86218 z"
       transform="matrix(0.3125,0,0,0.434783,-29.0625,217.9653)" />
    <path
       sodipodi:type="arc"
       style="fill:black;fill-opacity:1;fill-rule:nonzero;stroke:black;stroke-width:0;stroke-linecap:round;stroke-linejoin:round;stroke-miterlimit:4;stroke-dasharray:none;stroke-dashoffset:0;stroke-opacity:1"
       id="path3205"
       sodipodi:cx="109"
       sodipodi:cy="912.86218"
       sodipodi:rx="16"
       sodipodi:ry="11.5"
       d="M 125 912.86218 A 16 11.5 0 1 1  93,912.86218 A 16 11.5 0 1 1  125 912.86218 z"
       transform="matrix(0.3125,0,0,0.434783,-29.0625,417.9653)" />
    <path
       sodipodi:type="arc"
       style="fill:black;fill-opacity:1;fill-rule:nonzero;stroke:black;stroke-width:0;stroke-linecap:round;stroke-linejoin:round;stroke-miterlimit:4;stroke-dasharray:none;stroke-dashoffset:0;stroke-opacity:1"
       id="path3207"
       sodipodi:cx="109"
       sodipodi:cy="912.86218"
       sodipodi:rx="16"
       sodipodi:ry="11.5"
       d="M 125 912.86218 A 16 11.5 0 1 1  93,912.86218 A 16 11.5 0 1 1  125 912.86218 z"
       transform="matrix(0.3125,0,0,0.434783,-29.0625,117.9653)" />
    <path
       sodipodi:type="arc"
       style="fill:black;fill-opacity:1;fill-rule:nonzero;stroke:black;stroke-width:0;stroke-linecap:round;stroke-linejoin:round;stroke-miterlimit:4;stroke-dasharray:none;stroke-dashoffset:0;stroke-opacity:1"
       id="path3209"
       sodipodi:cx="109"
       sodipodi:cy="912.86218"
       sodipodi:rx="16"
       sodipodi:ry="11.5"
       d="M 125 912.86218 A 16 11.5 0 1 1  93,912.86218 A 16 11.5 0 1 1  125 912.86218 z"
       transform="matrix(0.3125,0,0,0.434783,-29.0625,617.9652)" />
    <path
       sodipodi:type="arc"
       style="fill:black;fill-opacity:1;fill-rule:nonzero;stroke:black;stroke-width:0;stroke-linecap:round;stroke-linejoin:round;stroke-miterlimit:4;stroke-dasharray:none;stroke-dashoffset:0;stroke-opacity:1"
       id="path3211"
       sodipodi:cx="109"
       sodipodi:cy="912.86218"
       sodipodi:rx="16"
       sodipodi:ry="11.5"
       d="M 125 912.86218 A 16 11.5 0 1 1  93,912.86218 A 16 11.5 0 1 1  125 912.86218 z"
       transform="matrix(0.3125,0,0,0.434783,-29.0625,517.9653)" />
    <path
       sodipodi:type="arc"
       style="fill:black;fill-opacity:1;fill-rule:nonzero;stroke:black;stroke-width:0;stroke-linecap:round;stroke-linejoin:round;stroke-miterlimit:4;stroke-dasharray:none;stroke-dashoffset:0;stroke-opacity:1"
       id="path3244"
       sodipodi:cx="109"
       sodipodi:cy="912.86218"
       sodipodi:rx="16"
       sodipodi:ry="11.5"
       d="M 125 912.86218 A 16 11.5 0 1 1  93,912.86218 A 16 11.5 0 1 1  125 912.86218 z"
       transform="matrix(0,0.3125,-0.434783,0,801.8969,1013.3)" />
    <path
       sodipodi:type="arc"
       style="fill:black;fill-opacity:1;fill-rule:nonzero;stroke:black;stroke-width:0;stroke-linecap:round;stroke-linejoin:round;stroke-miterlimit:4;stroke-dasharray:none;stroke-dashoffset:0;stroke-opacity:1"
       id="path3246"
       sodipodi:cx="109"
       sodipodi:cy="912.86218"
       sodipodi:rx="16"
       sodipodi:ry="11.5"
       d="M 125 912.86218 A 16 11.5 0 1 1  93,912.86218 A 16 11.5 0 1 1  125 912.86218 z"
       transform="matrix(0,0.3125,-0.434783,0,901.8969,1013.3)" />
    <path
       sodipodi:type="arc"
       style="fill:black;fill-opacity:1;fill-rule:nonzero;stroke:black;stroke-width:0;stroke-linecap:round;stroke-linejoin:round;stroke-miterlimit:4;stroke-dasharray:none;stroke-dashoffset:0;stroke-opacity:1"
       id="path3248"
       sodipodi:cx="109"
       sodipodi:cy="912.86218"
       sodipodi:rx="16"
       sodipodi:ry="11.5"
       d="M 125 912.86218 A 16 11.5 0 1 1  93,912.86218 A 16 11.5 0 1 1  125 912.86218 z"
       transform="matrix(0,0.3125,-0.434783,0,701.8969,1013.3)" />
    <path
       sodipodi:type="arc"
       style="fill:black;fill-opacity:1;fill-rule:nonzero;stroke:black;stroke-width:0;stroke-linecap:round;stroke-linejoin:round;stroke-miterlimit:4;stroke-dasharray:none;stroke-dashoffset:0;stroke-opacity:1"
       id="path3250"
       sodipodi:cx="109"
       sodipodi:cy="912.86218"
       sodipodi:rx="16"
       sodipodi:ry="11.5"
       d="M 125 912.86218 A 16 11.5 0 1 1  93,912.86218 A 16 11.5 0 1 1  125 912.86218 z"
       transform="matrix(0,0.3125,-0.434783,0,1001.897,1013.3)" />
    <path
       sodipodi:type="arc"
       style="fill:black;fill-opacity:1;fill-rule:nonzero;stroke:black;stroke-width:0;stroke-linecap:round;stroke-linejoin:round;stroke-miterlimit:4;stroke-dasharray:none;stroke-dashoffset:0;stroke-opacity:1"
       id="path3252"
       sodipodi:cx="109"
       sodipodi:cy="912.86218"
       sodipodi:rx="16"
       sodipodi:ry="11.5"
       d="M 125 912.86218 A 16 11.5 0 1 1  93,912.86218 A 16 11.5 0 1 1  125 912.86218 z"
       transform="matrix(0,0.3125,-0.434783,0,501.897,1013.3)" />
    <path
       sodipodi:type="arc"
       style="fill:black;fill-opacity:1;fill-rule:nonzero;stroke:black;stroke-width:0;stroke-linecap:round;stroke-linejoin:round;stroke-miterlimit:4;stroke-dasharray:none;stroke-dashoffset:0;stroke-opacity:1"
       id="path3254"
       sodipodi:cx="109"
       sodipodi:cy="912.86218"
       sodipodi:rx="16"
       sodipodi:ry="11.5"
       d="M 125 912.86218 A 16 11.5 0 1 1  93,912.86218 A 16 11.5 0 1 1  125 912.86218 z"
       transform="matrix(0,0.3125,-0.434783,0,601.8969,1012.3)" />
    <path
       style="fill:none;fill-opacity:0.75;fill-rule:evenodd;stroke:black;stroke-width:2.50037003;stroke-linecap:butt;stroke-linejoin:miter;stroke-miterlimit:4;stroke-dasharray:none;stroke-opacity:1;marker-end:url(#Arrow2Mend)"
       d="M 76.250185,1047.3625 L 648.74987,1047.3625"
       id="path3413" />
  </g>
</svg>
