<?xml version="1.0" encoding="UTF-8" standalone="no"?>
<!-- Created with Inkscape (http://www.inkscape.org/) -->
<svg
   xmlns:dc="http://purl.org/dc/elements/1.1/"
   xmlns:cc="http://web.resource.org/cc/"
   xmlns:rdf="http://www.w3.org/1999/02/22-rdf-syntax-ns#"
   xmlns:svg="http://www.w3.org/2000/svg"
   xmlns="http://www.w3.org/2000/svg"
   xmlns:sodipodi="http://sodipodi.sourceforge.net/DTD/sodipodi-0.dtd"
   xmlns:inkscape="http://www.inkscape.org/namespaces/inkscape"
   width="744.09448819"
   height="1052.3622047"
   id="svg4480"
   sodipodi:version="0.32"
   inkscape:version="0.44.1"
   sodipodi:docbase="/usr/home/chmbrlnd/Courses"
   sodipodi:docname="balls.svg"
   inkscape:export-filename="/usr/home/chmbrlnd/Courses/balls.png"
   inkscape:export-xdpi="89.999969"
   inkscape:export-ydpi="89.999969">
  <defs
     id="defs4482">
    <marker
       inkscape:stockid="Arrow1Mend"
       orient="auto"
       refY="0.0"
       refX="0.0"
       id="Arrow1Mend"
       style="overflow:visible;">
      <path
         id="path4897"
         d="M 0.0,0.0 L 5.0,-5.0 L -12.5,0.0 L 5.0,5.0 L 0.0,0.0 z "
         style="fill-rule:evenodd;stroke:#000000;stroke-width:1.0pt;marker-start:none;"
         transform="scale(0.4) rotate(180)" />
    </marker>
  </defs>
  <sodipodi:namedview
     id="base"
     pagecolor="#ffffff"
     bordercolor="#ffffff"
     borderopacity="0.0"
     inkscape:pageopacity="0.0"
     inkscape:pageshadow="0"
     inkscape:zoom="1"
     inkscape:cx="322.09928"
     inkscape:cy="233.26951"
     inkscape:document-units="px"
     inkscape:current-layer="layer1"
     showgrid="true"
     inkscape:window-width="891"
     inkscape:window-height="691"
     inkscape:window-x="1317"
     inkscape:window-y="112" />
  <metadata
     id="metadata4485">
    <rdf:RDF>
      <cc:Work
         rdf:about="">
        <dc:format>image/svg+xml</dc:format>
        <dc:type
           rdf:resource="http://purl.org/dc/dcmitype/StillImage" />
      </cc:Work>
    </rdf:RDF>
  </metadata>
  <g
     inkscape:label="Layer 1"
     inkscape:groupmode="layer"
     id="layer1">
    <path
       sodipodi:type="arc"
       style="fill:white;fill-opacity:0;fill-rule:nonzero;stroke:#404040;stroke-width:6.79785511;stroke-linecap:butt;stroke-linejoin:round;stroke-miterlimit:4;stroke-dasharray:none;stroke-dashoffset:0;stroke-opacity:1"
       id="path3337"
       sodipodi:cx="-65.714287"
       sodipodi:cy="509.50504"
       sodipodi:rx="174.28572"
       sodipodi:ry="165.71428"
       d="M 108.57143 509.50504 A 174.28572 165.71428 0 1 1  -240.00001,509.50504 A 174.28572 165.71428 0 1 1  108.57143 509.50504 z"
       transform="matrix(0.143442,0,0,0.150862,599.7594,947.9972)" />
    <path
       sodipodi:type="arc"
       style="fill:white;fill-opacity:0;fill-rule:nonzero;stroke:#404040;stroke-width:6.79785511;stroke-linecap:butt;stroke-linejoin:round;stroke-miterlimit:4;stroke-dasharray:none;stroke-dashoffset:0;stroke-opacity:1"
       id="path3339"
       sodipodi:cx="-65.714287"
       sodipodi:cy="509.50504"
       sodipodi:rx="174.28572"
       sodipodi:ry="165.71428"
       d="M 108.57143 509.50504 A 174.28572 165.71428 0 1 1  -240.00001,509.50504 A 174.28572 165.71428 0 1 1  108.57143 509.50504 z"
       transform="matrix(0.143442,0,0,0.150862,518.3428,947.9972)" />
    <path
       sodipodi:type="arc"
       style="fill:white;fill-opacity:0;fill-rule:nonzero;stroke:#404040;stroke-width:6.79785511;stroke-linecap:butt;stroke-linejoin:round;stroke-miterlimit:4;stroke-dasharray:none;stroke-dashoffset:0;stroke-opacity:1"
       id="path3341"
       sodipodi:cx="-65.714287"
       sodipodi:cy="509.50504"
       sodipodi:rx="174.28572"
       sodipodi:ry="165.71428"
       d="M 108.57143 509.50504 A 174.28572 165.71428 0 1 1  -240.00001,509.50504 A 174.28572 165.71428 0 1 1  108.57143 509.50504 z"
       transform="matrix(0.143442,0,0,0.150862,436.9261,947.9972)" />
    <path
       sodipodi:type="arc"
       style="fill:white;fill-opacity:0;fill-rule:nonzero;stroke:#404040;stroke-width:6.79785511;stroke-linecap:butt;stroke-linejoin:round;stroke-miterlimit:4;stroke-dasharray:none;stroke-dashoffset:0;stroke-opacity:1"
       id="path4976"
       sodipodi:cx="-65.714287"
       sodipodi:cy="509.50504"
       sodipodi:rx="174.28572"
       sodipodi:ry="165.71428"
       d="M 108.57143 509.50504 A 174.28572 165.71428 0 1 1  -240.00001,509.50504 A 174.28572 165.71428 0 1 1  108.57143 509.50504 z"
       transform="matrix(0.143442,0,0,0.150862,599.7594,781.4972)" />
    <path
       sodipodi:type="arc"
       style="fill:white;fill-opacity:0;fill-rule:nonzero;stroke:#404040;stroke-width:6.79785511;stroke-linecap:butt;stroke-linejoin:round;stroke-miterlimit:4;stroke-dasharray:none;stroke-dashoffset:0;stroke-opacity:1"
       id="path4978"
       sodipodi:cx="-65.714287"
       sodipodi:cy="509.50504"
       sodipodi:rx="174.28572"
       sodipodi:ry="165.71428"
       d="M 108.57143 509.50504 A 174.28572 165.71428 0 1 1  -240.00001,509.50504 A 174.28572 165.71428 0 1 1  108.57143 509.50504 z"
       transform="matrix(0.143442,0,0,0.150862,518.3428,781.4972)" />
    <path
       sodipodi:type="arc"
       style="fill:white;fill-opacity:0;fill-rule:nonzero;stroke:#404040;stroke-width:6.79785511;stroke-linecap:butt;stroke-linejoin:round;stroke-miterlimit:4;stroke-dasharray:none;stroke-dashoffset:0;stroke-opacity:1"
       id="path4980"
       sodipodi:cx="-65.714287"
       sodipodi:cy="509.50504"
       sodipodi:rx="174.28572"
       sodipodi:ry="165.71428"
       d="M 108.57143 509.50504 A 174.28572 165.71428 0 1 1  -240.00001,509.50504 A 174.28572 165.71428 0 1 1  108.57143 509.50504 z"
       transform="matrix(0.143442,0,0,0.150862,436.9261,781.4972)" />
    <path
       sodipodi:type="arc"
       style="fill:white;fill-opacity:0;fill-rule:nonzero;stroke:#404040;stroke-width:6.79785511;stroke-linecap:butt;stroke-linejoin:round;stroke-miterlimit:4;stroke-dasharray:none;stroke-dashoffset:0;stroke-opacity:1"
       id="path5092"
       sodipodi:cx="-65.714287"
       sodipodi:cy="509.50504"
       sodipodi:rx="174.28572"
       sodipodi:ry="165.71428"
       d="M 108.57143 509.50504 A 174.28572 165.71428 0 1 1  -240.00001,509.50504 A 174.28572 165.71428 0 1 1  108.57143 509.50504 z"
       transform="matrix(0.143442,0,0,0.150862,599.7594,614.9972)" />
    <path
       sodipodi:type="arc"
       style="fill:white;fill-opacity:0;fill-rule:nonzero;stroke:#404040;stroke-width:6.79785511;stroke-linecap:butt;stroke-linejoin:round;stroke-miterlimit:4;stroke-dasharray:none;stroke-dashoffset:0;stroke-opacity:1"
       id="path5094"
       sodipodi:cx="-65.714287"
       sodipodi:cy="509.50504"
       sodipodi:rx="174.28572"
       sodipodi:ry="165.71428"
       d="M 108.57143 509.50504 A 174.28572 165.71428 0 1 1  -240.00001,509.50504 A 174.28572 165.71428 0 1 1  108.57143 509.50504 z"
       transform="matrix(0.143442,0,0,0.150862,518.3428,614.9972)" />
    <path
       sodipodi:type="arc"
       style="fill:white;fill-opacity:0;fill-rule:nonzero;stroke:#404040;stroke-width:6.79785511;stroke-linecap:butt;stroke-linejoin:round;stroke-miterlimit:4;stroke-dasharray:none;stroke-dashoffset:0;stroke-opacity:1"
       id="path5096"
       sodipodi:cx="-65.714287"
       sodipodi:cy="509.50504"
       sodipodi:rx="174.28572"
       sodipodi:ry="165.71428"
       d="M 108.57143 509.50504 A 174.28572 165.71428 0 1 1  -240.00001,509.50504 A 174.28572 165.71428 0 1 1  108.57143 509.50504 z"
       transform="matrix(0.143442,0,0,0.150862,436.9261,614.9972)" />
    <path
       sodipodi:type="arc"
       style="fill:#a0a0e0;fill-opacity:1;fill-rule:nonzero;stroke:#000040;stroke-width:6.79784346;stroke-linecap:round;stroke-linejoin:round;stroke-miterlimit:4;stroke-dasharray:none;stroke-dashoffset:0;stroke-opacity:1"
       id="path4594"
       sodipodi:cx="-65.714287"
       sodipodi:cy="509.50504"
       sodipodi:rx="174.28572"
       sodipodi:ry="165.71428"
       d="M 108.57143 509.50504 A 174.28572 165.71428 0 1 1  -240.00001,509.50504 A 174.28572 165.71428 0 1 1  108.57143 509.50504 z"
       transform="matrix(0.143442,0,0,0.150862,518.3428,947.9972)" />
    <path
       sodipodi:type="arc"
       style="fill:#a0a0e0;fill-opacity:1;fill-rule:nonzero;stroke:#000040;stroke-width:6.79784346;stroke-linecap:round;stroke-linejoin:round;stroke-miterlimit:4;stroke-dasharray:none;stroke-dashoffset:0;stroke-opacity:1"
       id="path4602"
       sodipodi:cx="-65.714287"
       sodipodi:cy="509.50504"
       sodipodi:rx="174.28572"
       sodipodi:ry="165.71428"
       d="M 108.57143 509.50504 A 174.28572 165.71428 0 1 1  -240.00001,509.50504 A 174.28572 165.71428 0 1 1  108.57143 509.50504 z"
       transform="matrix(0.143442,0,0,0.150862,436.9261,947.9972)" />
    <path
       sodipodi:type="arc"
       style="fill:#a0a0e0;fill-opacity:1;fill-rule:nonzero;stroke:#000040;stroke-width:6.79784346;stroke-linecap:round;stroke-linejoin:round;stroke-miterlimit:4;stroke-dasharray:none;stroke-dashoffset:0;stroke-opacity:1"
       id="path5080"
       sodipodi:cx="-65.714287"
       sodipodi:cy="509.50504"
       sodipodi:rx="174.28572"
       sodipodi:ry="165.71428"
       d="M 108.57143 509.50504 A 174.28572 165.71428 0 1 1  -240.00001,509.50504 A 174.28572 165.71428 0 1 1  108.57143 509.50504 z"
       transform="matrix(0.143442,0,0,0.150862,436.9261,781.4972)" />
    <path
       sodipodi:type="arc"
       style="fill:#a0a0e0;fill-opacity:1;fill-rule:nonzero;stroke:#000040;stroke-width:6.79784346;stroke-linecap:round;stroke-linejoin:round;stroke-miterlimit:4;stroke-dasharray:none;stroke-dashoffset:0;stroke-opacity:1"
       id="path2684"
       sodipodi:cx="-65.714287"
       sodipodi:cy="509.50504"
       sodipodi:rx="174.28572"
       sodipodi:ry="165.71428"
       d="M 108.57143 509.50504 A 174.28572 165.71428 0 1 1  -240.00001,509.50504 A 174.28572 165.71428 0 1 1  108.57143 509.50504 z"
       transform="matrix(0.143442,0,0,0.150862,34.9261,949.9972)" />
    <path
       sodipodi:type="arc"
       style="fill:#a0e0a0;fill-opacity:1;fill-rule:nonzero;stroke:#004000;stroke-width:6.79717922;stroke-linecap:round;stroke-linejoin:round;stroke-miterlimit:4;stroke-dasharray:none;stroke-dashoffset:0;stroke-opacity:1"
       id="path2668"
       sodipodi:cx="-65.714287"
       sodipodi:cy="509.50504"
       sodipodi:rx="174.28572"
       sodipodi:ry="165.71428"
       d="M 108.57143 509.50504 A 174.28572 165.71428 0 1 1  -240.00001,509.50504 A 174.28572 165.71428 0 1 1  108.57143 509.50504 z"
       transform="matrix(0.143442,0,0,0.150862,238.925,949.9972)" />
    <path
       sodipodi:type="arc"
       style="fill:#a0a0e0;fill-opacity:1;fill-rule:nonzero;stroke:#000040;stroke-width:6.79784346;stroke-linecap:round;stroke-linejoin:round;stroke-miterlimit:4;stroke-dasharray:none;stroke-dashoffset:0;stroke-opacity:1"
       id="path4522"
       sodipodi:cx="-65.714287"
       sodipodi:cy="509.50504"
       sodipodi:rx="174.28572"
       sodipodi:ry="165.71428"
       d="M 108.57143 509.50504 A 174.28572 165.71428 0 1 1  -240.00001,509.50504 A 174.28572 165.71428 0 1 1  108.57143 509.50504 z"
       transform="matrix(0.143442,0,0,0.150862,187.9253,949.9972)" />
    <path
       sodipodi:type="arc"
       style="fill:#a0a0e0;fill-opacity:1;fill-rule:nonzero;stroke:#000040;stroke-width:6.79784346;stroke-linecap:round;stroke-linejoin:round;stroke-miterlimit:4;stroke-dasharray:none;stroke-dashoffset:0;stroke-opacity:1"
       id="path4538"
       sodipodi:cx="-65.714287"
       sodipodi:cy="509.50504"
       sodipodi:rx="174.28572"
       sodipodi:ry="165.71428"
       d="M 108.57143 509.50504 A 174.28572 165.71428 0 1 1  -240.00001,509.50504 A 174.28572 165.71428 0 1 1  108.57143 509.50504 z"
       transform="matrix(0.143442,0,0,0.150862,136.9256,949.9972)" />
    <path
       sodipodi:type="arc"
       style="fill:#a0e0a0;fill-opacity:1;fill-rule:nonzero;stroke:#004000;stroke-width:6.79717922;stroke-linecap:round;stroke-linejoin:round;stroke-miterlimit:4;stroke-dasharray:none;stroke-dashoffset:0;stroke-opacity:1"
       id="path4570"
       sodipodi:cx="-65.714287"
       sodipodi:cy="509.50504"
       sodipodi:rx="174.28572"
       sodipodi:ry="165.71428"
       d="M 108.57143 509.50504 A 174.28572 165.71428 0 1 1  -240.00001,509.50504 A 174.28572 165.71428 0 1 1  108.57143 509.50504 z"
       transform="matrix(0.143442,0,0,0.150862,85.92583,949.9972)" />
    <path
       sodipodi:type="arc"
       style="fill:#a0a0e0;fill-opacity:1;fill-rule:nonzero;stroke:#000040;stroke-width:6.79784346;stroke-linecap:round;stroke-linejoin:round;stroke-miterlimit:4;stroke-dasharray:none;stroke-dashoffset:0;stroke-opacity:1"
       id="path4530"
       sodipodi:cx="-65.714287"
       sodipodi:cy="509.50504"
       sodipodi:rx="174.28572"
       sodipodi:ry="165.71428"
       d="M 108.57143 509.50504 A 174.28572 165.71428 0 1 1  -240.00001,509.50504 A 174.28572 165.71428 0 1 1  108.57143 509.50504 z"
       transform="matrix(0.143442,0,0,0.150862,213.4251,904.9972)" />
    <path
       sodipodi:type="arc"
       style="fill:#a0a0e0;fill-opacity:1;fill-rule:nonzero;stroke:#000040;stroke-width:6.79784346;stroke-linecap:round;stroke-linejoin:round;stroke-miterlimit:4;stroke-dasharray:none;stroke-dashoffset:0;stroke-opacity:1"
       id="path4546"
       sodipodi:cx="-65.714287"
       sodipodi:cy="509.50504"
       sodipodi:rx="174.28572"
       sodipodi:ry="165.71428"
       d="M 108.57143 509.50504 A 174.28572 165.71428 0 1 1  -240.00001,509.50504 A 174.28572 165.71428 0 1 1  108.57143 509.50504 z"
       transform="matrix(0.143442,0,0,0.150862,60.4259,904.9972)" />
    <path
       sodipodi:type="arc"
       style="fill:#a0e0a0;fill-opacity:1;fill-rule:nonzero;stroke:#004000;stroke-width:6.79717922;stroke-linecap:round;stroke-linejoin:round;stroke-miterlimit:4;stroke-dasharray:none;stroke-dashoffset:0;stroke-opacity:1"
       id="path4578"
       sodipodi:cx="-65.714287"
       sodipodi:cy="509.50504"
       sodipodi:rx="174.28572"
       sodipodi:ry="165.71428"
       d="M 108.57143 509.50504 A 174.28572 165.71428 0 1 1  -240.00001,509.50504 A 174.28572 165.71428 0 1 1  108.57143 509.50504 z"
       transform="matrix(0.143442,0,0,0.150862,162.4254,904.9972)" />
    <path
       sodipodi:type="arc"
       style="fill:#a0a0e0;fill-opacity:1;fill-rule:nonzero;stroke:#000040;stroke-width:6.79784346;stroke-linecap:round;stroke-linejoin:round;stroke-miterlimit:4;stroke-dasharray:none;stroke-dashoffset:0;stroke-opacity:1"
       id="path4586"
       sodipodi:cx="-65.714287"
       sodipodi:cy="509.50504"
       sodipodi:rx="174.28572"
       sodipodi:ry="165.71428"
       d="M 108.57143 509.50504 A 174.28572 165.71428 0 1 1  -240.00001,509.50504 A 174.28572 165.71428 0 1 1  108.57143 509.50504 z"
       transform="matrix(0.143442,0,0,0.150862,111.4257,904.9972)" />
    <path
       sodipodi:type="arc"
       style="fill:#a0e0a0;fill-opacity:1;fill-rule:nonzero;stroke:#004000;stroke-width:6.79717922;stroke-linecap:round;stroke-linejoin:round;stroke-miterlimit:4;stroke-dasharray:none;stroke-dashoffset:0;stroke-opacity:1"
       id="path4562"
       sodipodi:cx="-65.714287"
       sodipodi:cy="509.50504"
       sodipodi:rx="174.28572"
       sodipodi:ry="165.71428"
       d="M 108.57143 509.50504 A 174.28572 165.71428 0 1 1  -240.00001,509.50504 A 174.28572 165.71428 0 1 1  108.57143 509.50504 z"
       transform="matrix(0.143442,0,0,0.150862,85.92573,859.9972)" />
    <path
       style="fill:none;fill-opacity:0.75;fill-rule:evenodd;stroke:#000000;stroke-width:3.125;stroke-linecap:butt;stroke-linejoin:miter;marker-end:url(#Arrow1Mend);stroke-miterlimit:4;stroke-dasharray:none;stroke-opacity:1"
       d="M 263.69468,943.92637 C 263.69468,943.92637 283.7391,913.19587 324.69468,912.92637 C 363.79347,912.66265 383.69468,943.92637 383.69468,943.92637"
       id="path4731"
       sodipodi:nodetypes="csc" />
    <path
       sodipodi:type="arc"
       style="fill:#a0a0e0;fill-opacity:1;fill-rule:nonzero;stroke:#000040;stroke-width:6.79784346;stroke-linecap:round;stroke-linejoin:round;stroke-miterlimit:4;stroke-dasharray:none;stroke-dashoffset:0;stroke-opacity:1"
       id="path4988"
       sodipodi:cx="-65.714287"
       sodipodi:cy="509.50504"
       sodipodi:rx="174.28572"
       sodipodi:ry="165.71428"
       d="M 108.57143 509.50504 A 174.28572 165.71428 0 1 1  -240.00001,509.50504 A 174.28572 165.71428 0 1 1  108.57143 509.50504 z"
       transform="matrix(0.143442,0,0,0.150862,34.9261,783.4972)" />
    <path
       sodipodi:type="arc"
       style="fill:#a0e0a0;fill-opacity:1;fill-rule:nonzero;stroke:#004000;stroke-width:6.79717922;stroke-linecap:round;stroke-linejoin:round;stroke-miterlimit:4;stroke-dasharray:none;stroke-dashoffset:0;stroke-opacity:1"
       id="path4996"
       sodipodi:cx="-65.714287"
       sodipodi:cy="509.50504"
       sodipodi:rx="174.28572"
       sodipodi:ry="165.71428"
       d="M 108.57143 509.50504 A 174.28572 165.71428 0 1 1  -240.00001,509.50504 A 174.28572 165.71428 0 1 1  108.57143 509.50504 z"
       transform="matrix(0.143442,0,0,0.150862,238.925,783.4973)" />
    <path
       sodipodi:type="arc"
       style="fill:#a0a0e0;fill-opacity:1;fill-rule:nonzero;stroke:#000040;stroke-width:6.79784346;stroke-linecap:round;stroke-linejoin:round;stroke-miterlimit:4;stroke-dasharray:none;stroke-dashoffset:0;stroke-opacity:1"
       id="path5004"
       sodipodi:cx="-65.714287"
       sodipodi:cy="509.50504"
       sodipodi:rx="174.28572"
       sodipodi:ry="165.71428"
       d="M 108.57143 509.50504 A 174.28572 165.71428 0 1 1  -240.00001,509.50504 A 174.28572 165.71428 0 1 1  108.57143 509.50504 z"
       transform="matrix(0.143442,0,0,0.150862,187.9253,783.4972)" />
    <path
       sodipodi:type="arc"
       style="fill:#a0a0e0;fill-opacity:1;fill-rule:nonzero;stroke:#000040;stroke-width:6.79784346;stroke-linecap:round;stroke-linejoin:round;stroke-miterlimit:4;stroke-dasharray:none;stroke-dashoffset:0;stroke-opacity:1"
       id="path5012"
       sodipodi:cx="-65.714287"
       sodipodi:cy="509.50504"
       sodipodi:rx="174.28572"
       sodipodi:ry="165.71428"
       d="M 108.57143 509.50504 A 174.28572 165.71428 0 1 1  -240.00001,509.50504 A 174.28572 165.71428 0 1 1  108.57143 509.50504 z"
       transform="matrix(0.143442,0,0,0.150862,136.9256,783.4972)" />
    <path
       sodipodi:type="arc"
       style="fill:#a0e0a0;fill-opacity:1;fill-rule:nonzero;stroke:#004000;stroke-width:6.79717922;stroke-linecap:round;stroke-linejoin:round;stroke-miterlimit:4;stroke-dasharray:none;stroke-dashoffset:0;stroke-opacity:1"
       id="path5020"
       sodipodi:cx="-65.714287"
       sodipodi:cy="509.50504"
       sodipodi:rx="174.28572"
       sodipodi:ry="165.71428"
       d="M 108.57143 509.50504 A 174.28572 165.71428 0 1 1  -240.00001,509.50504 A 174.28572 165.71428 0 1 1  108.57143 509.50504 z"
       transform="matrix(0.143442,0,0,0.150862,85.92583,783.4973)" />
    <path
       sodipodi:type="arc"
       style="fill:#a0a0e0;fill-opacity:1;fill-rule:nonzero;stroke:#000040;stroke-width:6.79784346;stroke-linecap:round;stroke-linejoin:round;stroke-miterlimit:4;stroke-dasharray:none;stroke-dashoffset:0;stroke-opacity:1"
       id="path5030"
       sodipodi:cx="-65.714287"
       sodipodi:cy="509.50504"
       sodipodi:rx="174.28572"
       sodipodi:ry="165.71428"
       d="M 108.57143 509.50504 A 174.28572 165.71428 0 1 1  -240.00001,509.50504 A 174.28572 165.71428 0 1 1  108.57143 509.50504 z"
       transform="matrix(0.143442,0,0,0.150862,213.4251,738.4972)" />
    <path
       sodipodi:type="arc"
       style="fill:#a0a0e0;fill-opacity:1;fill-rule:nonzero;stroke:#000040;stroke-width:6.79784346;stroke-linecap:round;stroke-linejoin:round;stroke-miterlimit:4;stroke-dasharray:none;stroke-dashoffset:0;stroke-opacity:1"
       id="path5038"
       sodipodi:cx="-65.714287"
       sodipodi:cy="509.50504"
       sodipodi:rx="174.28572"
       sodipodi:ry="165.71428"
       d="M 108.57143 509.50504 A 174.28572 165.71428 0 1 1  -240.00001,509.50504 A 174.28572 165.71428 0 1 1  108.57143 509.50504 z"
       transform="matrix(0.143442,0,0,0.150862,60.4259,738.4972)" />
    <path
       sodipodi:type="arc"
       style="fill:#a0e0a0;fill-opacity:1;fill-rule:nonzero;stroke:#004000;stroke-width:6.79717922;stroke-linecap:round;stroke-linejoin:round;stroke-miterlimit:4;stroke-dasharray:none;stroke-dashoffset:0;stroke-opacity:1"
       id="path5046"
       sodipodi:cx="-65.714287"
       sodipodi:cy="509.50504"
       sodipodi:rx="174.28572"
       sodipodi:ry="165.71428"
       d="M 108.57143 509.50504 A 174.28572 165.71428 0 1 1  -240.00001,509.50504 A 174.28572 165.71428 0 1 1  108.57143 509.50504 z"
       transform="matrix(0.143442,0,0,0.150862,162.4254,738.4972)" />
    <path
       sodipodi:type="arc"
       style="fill:#a0a0e0;fill-opacity:1;fill-rule:nonzero;stroke:#000040;stroke-width:6.79784346;stroke-linecap:round;stroke-linejoin:round;stroke-miterlimit:4;stroke-dasharray:none;stroke-dashoffset:0;stroke-opacity:1"
       id="path5054"
       sodipodi:cx="-65.714287"
       sodipodi:cy="509.50504"
       sodipodi:rx="174.28572"
       sodipodi:ry="165.71428"
       d="M 108.57143 509.50504 A 174.28572 165.71428 0 1 1  -240.00001,509.50504 A 174.28572 165.71428 0 1 1  108.57143 509.50504 z"
       transform="matrix(0.143442,0,0,0.150862,111.4257,738.4972)" />
    <path
       sodipodi:type="arc"
       style="fill:#a0e0a0;fill-opacity:1;fill-rule:nonzero;stroke:#004000;stroke-width:6.79717922;stroke-linecap:round;stroke-linejoin:round;stroke-miterlimit:4;stroke-dasharray:none;stroke-dashoffset:0;stroke-opacity:1"
       id="path5064"
       sodipodi:cx="-65.714287"
       sodipodi:cy="509.50504"
       sodipodi:rx="174.28572"
       sodipodi:ry="165.71428"
       d="M 108.57143 509.50504 A 174.28572 165.71428 0 1 1  -240.00001,509.50504 A 174.28572 165.71428 0 1 1  108.57143 509.50504 z"
       transform="matrix(0.143442,0,0,0.150862,85.92573,693.4973)" />
    <path
       sodipodi:type="arc"
       style="fill:#a0a0e0;fill-opacity:1;fill-rule:nonzero;stroke:#000040;stroke-width:6.79784346;stroke-linecap:round;stroke-linejoin:round;stroke-miterlimit:4;stroke-dasharray:none;stroke-dashoffset:0;stroke-opacity:1"
       id="path5072"
       sodipodi:cx="-65.714287"
       sodipodi:cy="509.50504"
       sodipodi:rx="174.28572"
       sodipodi:ry="165.71428"
       d="M 108.57143 509.50504 A 174.28572 165.71428 0 1 1  -240.00001,509.50504 A 174.28572 165.71428 0 1 1  108.57143 509.50504 z"
       transform="matrix(0.143442,0,0,0.150862,136.9255,693.4973)" />
    <path
       style="fill:none;fill-opacity:0.75;fill-rule:evenodd;stroke:#000000;stroke-width:3.125;stroke-linecap:butt;stroke-linejoin:miter;marker-end:url(#Arrow1Mend);stroke-miterlimit:4;stroke-dasharray:none;stroke-opacity:1"
       d="M 263.69468,777.42637 C 263.69468,777.42637 283.7391,746.69587 324.69468,746.42637 C 363.79347,746.16265 383.69468,777.42637 383.69468,777.42637"
       id="path5086"
       sodipodi:nodetypes="csc" />
    <path
       sodipodi:type="arc"
       style="fill:#a0a0e0;fill-opacity:1;fill-rule:nonzero;stroke:#000040;stroke-width:6.79784346;stroke-linecap:round;stroke-linejoin:round;stroke-miterlimit:4;stroke-dasharray:none;stroke-dashoffset:0;stroke-opacity:1"
       id="path5104"
       sodipodi:cx="-65.714287"
       sodipodi:cy="509.50504"
       sodipodi:rx="174.28572"
       sodipodi:ry="165.71428"
       d="M 108.57143 509.50504 A 174.28572 165.71428 0 1 1  -240.00001,509.50504 A 174.28572 165.71428 0 1 1  108.57143 509.50504 z"
       transform="matrix(0.143442,0,0,0.150862,34.9261,616.9973)" />
    <path
       sodipodi:type="arc"
       style="fill:#a0e0a0;fill-opacity:1;fill-rule:nonzero;stroke:#004000;stroke-width:6.79717922;stroke-linecap:round;stroke-linejoin:round;stroke-miterlimit:4;stroke-dasharray:none;stroke-dashoffset:0;stroke-opacity:1"
       id="path5112"
       sodipodi:cx="-65.714287"
       sodipodi:cy="509.50504"
       sodipodi:rx="174.28572"
       sodipodi:ry="165.71428"
       d="M 108.57143 509.50504 A 174.28572 165.71428 0 1 1  -240.00001,509.50504 A 174.28572 165.71428 0 1 1  108.57143 509.50504 z"
       transform="matrix(0.143442,0,0,0.150862,238.925,616.9973)" />
    <path
       sodipodi:type="arc"
       style="fill:#a0a0e0;fill-opacity:1;fill-rule:nonzero;stroke:#000040;stroke-width:6.79784346;stroke-linecap:round;stroke-linejoin:round;stroke-miterlimit:4;stroke-dasharray:none;stroke-dashoffset:0;stroke-opacity:1"
       id="path5120"
       sodipodi:cx="-65.714287"
       sodipodi:cy="509.50504"
       sodipodi:rx="174.28572"
       sodipodi:ry="165.71428"
       d="M 108.57143 509.50504 A 174.28572 165.71428 0 1 1  -240.00001,509.50504 A 174.28572 165.71428 0 1 1  108.57143 509.50504 z"
       transform="matrix(0.143442,0,0,0.150862,187.9253,616.9973)" />
    <path
       sodipodi:type="arc"
       style="fill:#a0a0e0;fill-opacity:1;fill-rule:nonzero;stroke:#000040;stroke-width:6.79784346;stroke-linecap:round;stroke-linejoin:round;stroke-miterlimit:4;stroke-dasharray:none;stroke-dashoffset:0;stroke-opacity:1"
       id="path5128"
       sodipodi:cx="-65.714287"
       sodipodi:cy="509.50504"
       sodipodi:rx="174.28572"
       sodipodi:ry="165.71428"
       d="M 108.57143 509.50504 A 174.28572 165.71428 0 1 1  -240.00001,509.50504 A 174.28572 165.71428 0 1 1  108.57143 509.50504 z"
       transform="matrix(0.143442,0,0,0.150862,136.9256,616.9973)" />
    <path
       sodipodi:type="arc"
       style="fill:#a0e0a0;fill-opacity:1;fill-rule:nonzero;stroke:#004000;stroke-width:6.79717922;stroke-linecap:round;stroke-linejoin:round;stroke-miterlimit:4;stroke-dasharray:none;stroke-dashoffset:0;stroke-opacity:1"
       id="path5136"
       sodipodi:cx="-65.714287"
       sodipodi:cy="509.50504"
       sodipodi:rx="174.28572"
       sodipodi:ry="165.71428"
       d="M 108.57143 509.50504 A 174.28572 165.71428 0 1 1  -240.00001,509.50504 A 174.28572 165.71428 0 1 1  108.57143 509.50504 z"
       transform="matrix(0.143442,0,0,0.150862,85.92583,616.9973)" />
    <path
       sodipodi:type="arc"
       style="fill:#a0a0e0;fill-opacity:1;fill-rule:nonzero;stroke:#000040;stroke-width:6.79784346;stroke-linecap:round;stroke-linejoin:round;stroke-miterlimit:4;stroke-dasharray:none;stroke-dashoffset:0;stroke-opacity:1"
       id="path5146"
       sodipodi:cx="-65.714287"
       sodipodi:cy="509.50504"
       sodipodi:rx="174.28572"
       sodipodi:ry="165.71428"
       d="M 108.57143 509.50504 A 174.28572 165.71428 0 1 1  -240.00001,509.50504 A 174.28572 165.71428 0 1 1  108.57143 509.50504 z"
       transform="matrix(0.143442,0,0,0.150862,213.4251,571.9972)" />
    <path
       sodipodi:type="arc"
       style="fill:#a0a0e0;fill-opacity:1;fill-rule:nonzero;stroke:#000040;stroke-width:6.79784346;stroke-linecap:round;stroke-linejoin:round;stroke-miterlimit:4;stroke-dasharray:none;stroke-dashoffset:0;stroke-opacity:1"
       id="path5154"
       sodipodi:cx="-65.714287"
       sodipodi:cy="509.50504"
       sodipodi:rx="174.28572"
       sodipodi:ry="165.71428"
       d="M 108.57143 509.50504 A 174.28572 165.71428 0 1 1  -240.00001,509.50504 A 174.28572 165.71428 0 1 1  108.57143 509.50504 z"
       transform="matrix(0.143442,0,0,0.150862,60.4259,571.9972)" />
    <path
       sodipodi:type="arc"
       style="fill:#a0e0a0;fill-opacity:1;fill-rule:nonzero;stroke:#004000;stroke-width:6.79717922;stroke-linecap:round;stroke-linejoin:round;stroke-miterlimit:4;stroke-dasharray:none;stroke-dashoffset:0;stroke-opacity:1"
       id="path5162"
       sodipodi:cx="-65.714287"
       sodipodi:cy="509.50504"
       sodipodi:rx="174.28572"
       sodipodi:ry="165.71428"
       d="M 108.57143 509.50504 A 174.28572 165.71428 0 1 1  -240.00001,509.50504 A 174.28572 165.71428 0 1 1  108.57143 509.50504 z"
       transform="matrix(0.143442,0,0,0.150862,162.4254,571.9972)" />
    <path
       sodipodi:type="arc"
       style="fill:#a0a0e0;fill-opacity:1;fill-rule:nonzero;stroke:#000040;stroke-width:6.79784346;stroke-linecap:round;stroke-linejoin:round;stroke-miterlimit:4;stroke-dasharray:none;stroke-dashoffset:0;stroke-opacity:1"
       id="path5170"
       sodipodi:cx="-65.714287"
       sodipodi:cy="509.50504"
       sodipodi:rx="174.28572"
       sodipodi:ry="165.71428"
       d="M 108.57143 509.50504 A 174.28572 165.71428 0 1 1  -240.00001,509.50504 A 174.28572 165.71428 0 1 1  108.57143 509.50504 z"
       transform="matrix(0.143442,0,0,0.150862,111.4257,571.9972)" />
    <path
       sodipodi:type="arc"
       style="fill:#a0e0a0;fill-opacity:1;fill-rule:nonzero;stroke:#004000;stroke-width:6.79717922;stroke-linecap:round;stroke-linejoin:round;stroke-miterlimit:4;stroke-dasharray:none;stroke-dashoffset:0;stroke-opacity:1"
       id="path5180"
       sodipodi:cx="-65.714287"
       sodipodi:cy="509.50504"
       sodipodi:rx="174.28572"
       sodipodi:ry="165.71428"
       d="M 108.57143 509.50504 A 174.28572 165.71428 0 1 1  -240.00001,509.50504 A 174.28572 165.71428 0 1 1  108.57143 509.50504 z"
       transform="matrix(0.143442,0,0,0.150862,85.92573,526.9972)" />
    <path
       sodipodi:type="arc"
       style="fill:#a0a0e0;fill-opacity:1;fill-rule:nonzero;stroke:#000040;stroke-width:6.79784346;stroke-linecap:round;stroke-linejoin:round;stroke-miterlimit:4;stroke-dasharray:none;stroke-dashoffset:0;stroke-opacity:1"
       id="path5188"
       sodipodi:cx="-65.714287"
       sodipodi:cy="509.50504"
       sodipodi:rx="174.28572"
       sodipodi:ry="165.71428"
       d="M 108.57143 509.50504 A 174.28572 165.71428 0 1 1  -240.00001,509.50504 A 174.28572 165.71428 0 1 1  108.57143 509.50504 z"
       transform="matrix(0.143442,0,0,0.150862,136.9255,526.9972)" />
    <path
       sodipodi:type="arc"
       style="fill:#a0a0e0;fill-opacity:1;fill-rule:nonzero;stroke:#000040;stroke-width:6.79784346;stroke-linecap:round;stroke-linejoin:round;stroke-miterlimit:4;stroke-dasharray:none;stroke-dashoffset:0;stroke-opacity:1"
       id="path5196"
       sodipodi:cx="-65.714287"
       sodipodi:cy="509.50504"
       sodipodi:rx="174.28572"
       sodipodi:ry="165.71428"
       d="M 108.57143 509.50504 A 174.28572 165.71428 0 1 1  -240.00001,509.50504 A 174.28572 165.71428 0 1 1  108.57143 509.50504 z"
       transform="matrix(0.143442,0,0,0.150862,187.9252,526.9972)" />
    <path
       style="fill:none;fill-opacity:0.75;fill-rule:evenodd;stroke:#000000;stroke-width:3.125;stroke-linecap:butt;stroke-linejoin:miter;marker-end:url(#Arrow1Mend);stroke-miterlimit:4;stroke-dasharray:none;stroke-opacity:1"
       d="M 263.69468,610.92637 C 263.69468,610.92637 283.7391,580.19587 324.69468,579.92637 C 363.79347,579.66265 383.69468,610.92637 383.69468,610.92637"
       id="path5202"
       sodipodi:nodetypes="csc" />
  </g>
</svg>
