<?xml version="1.0" encoding="UTF-8" standalone="no"?>
<!-- Created with Inkscape (http://www.inkscape.org/) -->
<svg
   xmlns:dc="http://purl.org/dc/elements/1.1/"
   xmlns:cc="http://web.resource.org/cc/"
   xmlns:rdf="http://www.w3.org/1999/02/22-rdf-syntax-ns#"
   xmlns:svg="http://www.w3.org/2000/svg"
   xmlns="http://www.w3.org/2000/svg"
   xmlns:sodipodi="http://sodipodi.sourceforge.net/DTD/sodipodi-0.dtd"
   xmlns:inkscape="http://www.inkscape.org/namespaces/inkscape"
   width="744.09448819"
   height="1052.3622047"
   id="svg3267"
   sodipodi:version="0.32"
   inkscape:version="0.45.1"
   sodipodi:docbase="/Users/chmbrlnd/Desktop/FREDsvn/EduDocs/Probability/Figures/3Chapter"
   sodipodi:docname="condevent.svg"
   inkscape:export-filename="/usr/home/chmbrlnd/Courses/samplespaced.png"
   inkscape:export-xdpi="89.999969"
   inkscape:export-ydpi="89.999969"
   inkscape:output_extension="org.inkscape.output.svg.inkscape">
  <defs
     id="defs3269" />
  <sodipodi:namedview
     id="base"
     pagecolor="#ffffff"
     bordercolor="#ffffff"
     borderopacity="0.0"
     inkscape:pageopacity="0.0"
     inkscape:pageshadow="0"
     inkscape:zoom="1"
     inkscape:cx="305.00521"
     inkscape:cy="31.611211"
     inkscape:document-units="px"
     inkscape:current-layer="layer1"
     showgrid="true"
     inkscape:window-width="954"
     inkscape:window-height="654"
     inkscape:window-x="516"
     inkscape:window-y="103" />
  <metadata
     id="metadata3272">
    <rdf:RDF>
      <cc:Work
         rdf:about="">
        <dc:format>image/svg+xml</dc:format>
        <dc:type
           rdf:resource="http://purl.org/dc/dcmitype/StillImage" />
      </cc:Work>
    </rdf:RDF>
  </metadata>
  <g
     inkscape:label="Layer 1"
     inkscape:groupmode="layer"
     id="layer1">
    <rect
       style="opacity:1;fill:#ffffff;fill-opacity:0;fill-rule:nonzero;stroke:#000000;stroke-width:2.50001216;stroke-linecap:round;stroke-linejoin:round;stroke-miterlimit:4;stroke-dasharray:none;stroke-dashoffset:0;stroke-opacity:1"
       id="rect3886"
       width="322"
       height="242.49998"
       x="-23.500017"
       y="828.61212"
       ry="14.131333"
       rx="14.514501" />
    <rect
       style="fill:#ffffff;fill-opacity:0;fill-rule:nonzero;stroke:#6060e0;stroke-width:1.87501407;stroke-linecap:round;stroke-linejoin:round;stroke-miterlimit:4;stroke-dasharray:none;stroke-dashoffset:0;stroke-opacity:1"
       id="rect3739"
       width="98.124985"
       height="298.12454"
       x="840.79974"
       y="-286.56226"
       ry="8.9999866"
       transform="matrix(0,1,-1,0,0,0)" />
    <rect
       style="fill:#ffffff;fill-opacity:0;fill-rule:nonzero;stroke:#808080;stroke-width:2.5;stroke-linecap:round;stroke-linejoin:round;stroke-miterlimit:4;stroke-dasharray:none;stroke-dashoffset:0;stroke-opacity:1"
       id="rect3275"
       width="72.499931"
       height="72.499947"
       x="1.2500342"
       y="978.61218"
       ry="10" />
    <path
       sodipodi:type="arc"
       style="fill:#6060e0;fill-opacity:1;fill-rule:nonzero;stroke:#000000;stroke-width:0;stroke-linecap:round;stroke-linejoin:round;stroke-miterlimit:4;stroke-dasharray:none;stroke-dashoffset:0;stroke-opacity:1"
       id="path3280"
       sodipodi:cx="109"
       sodipodi:cy="912.86218"
       sodipodi:rx="16"
       sodipodi:ry="11.5"
       d="M 125 912.86218 A 16 11.5 0 1 1  93,912.86218 A 16 11.5 0 1 1  125 912.86218 z"
       transform="matrix(0.46875,0,0,0.652174,-33.59375,439.5172)" />
    <path
       sodipodi:type="arc"
       style="fill:#6060e0;fill-opacity:1;fill-rule:nonzero;stroke:#000000;stroke-width:0;stroke-linecap:round;stroke-linejoin:round;stroke-miterlimit:4;stroke-dasharray:none;stroke-dashoffset:0;stroke-opacity:1"
       id="path3284"
       sodipodi:cx="109"
       sodipodi:cy="912.86218"
       sodipodi:rx="16"
       sodipodi:ry="11.5"
       d="M 125 912.86218 A 16 11.5 0 1 1  93,912.86218 A 16 11.5 0 1 1  125 912.86218 z"
       transform="matrix(0.46875,0,0,0.652174,-33.59375,399.5172)" />
    <path
       sodipodi:type="arc"
       style="fill:#6060e0;fill-opacity:1;fill-rule:nonzero;stroke:#000000;stroke-width:0;stroke-linecap:round;stroke-linejoin:round;stroke-miterlimit:4;stroke-dasharray:none;stroke-dashoffset:0;stroke-opacity:1"
       id="path3302"
       sodipodi:cx="109"
       sodipodi:cy="912.86218"
       sodipodi:rx="16"
       sodipodi:ry="11.5"
       d="M 125 912.86218 A 16 11.5 0 1 1  93,912.86218 A 16 11.5 0 1 1  125 912.86218 z"
       transform="matrix(0.46875,0,0,0.652174,6.40625,439.5172)" />
    <path
       sodipodi:type="arc"
       style="fill:#6060e0;fill-opacity:1;fill-rule:nonzero;stroke:#000000;stroke-width:0;stroke-linecap:round;stroke-linejoin:round;stroke-miterlimit:4;stroke-dasharray:none;stroke-dashoffset:0;stroke-opacity:1"
       id="path3306"
       sodipodi:cx="109"
       sodipodi:cy="912.86218"
       sodipodi:rx="16"
       sodipodi:ry="11.5"
       d="M 125 912.86218 A 16 11.5 0 1 1  93,912.86218 A 16 11.5 0 1 1  125 912.86218 z"
       transform="matrix(0.46875,0,0,0.652174,6.40625,399.5172)" />
    <rect
       style="fill:#ffffff;fill-opacity:0;fill-rule:nonzero;stroke:#808080;stroke-width:2.5;stroke-linecap:round;stroke-linejoin:round;stroke-miterlimit:4;stroke-dasharray:none;stroke-dashoffset:0;stroke-opacity:1"
       id="rect3364"
       width="72.499931"
       height="72.499947"
       x="201.25003"
       y="978.61218"
       ry="10" />
    <path
       sodipodi:type="arc"
       style="fill:#6060e0;fill-opacity:1;fill-rule:nonzero;stroke:#000000;stroke-width:0;stroke-linecap:round;stroke-linejoin:round;stroke-miterlimit:4;stroke-dasharray:none;stroke-dashoffset:0;stroke-opacity:1"
       id="path3366"
       sodipodi:cx="109"
       sodipodi:cy="912.86218"
       sodipodi:rx="16"
       sodipodi:ry="11.5"
       d="M 125 912.86218 A 16 11.5 0 1 1  93,912.86218 A 16 11.5 0 1 1  125 912.86218 z"
       transform="matrix(0.46875,0,0,0.652174,166.4062,439.5172)" />
    <path
       sodipodi:type="arc"
       style="fill:#6060e0;fill-opacity:1;fill-rule:nonzero;stroke:#000000;stroke-width:0;stroke-linecap:round;stroke-linejoin:round;stroke-miterlimit:4;stroke-dasharray:none;stroke-dashoffset:0;stroke-opacity:1"
       id="path3368"
       sodipodi:cx="109"
       sodipodi:cy="912.86218"
       sodipodi:rx="16"
       sodipodi:ry="11.5"
       d="M 125 912.86218 A 16 11.5 0 1 1  93,912.86218 A 16 11.5 0 1 1  125 912.86218 z"
       transform="matrix(0.46875,0,0,0.652174,166.4062,419.5172)" />
    <path
       sodipodi:type="arc"
       style="fill:#6060e0;fill-opacity:1;fill-rule:nonzero;stroke:#000000;stroke-width:0;stroke-linecap:round;stroke-linejoin:round;stroke-miterlimit:4;stroke-dasharray:none;stroke-dashoffset:0;stroke-opacity:1"
       id="path3370"
       sodipodi:cx="109"
       sodipodi:cy="912.86218"
       sodipodi:rx="16"
       sodipodi:ry="11.5"
       d="M 125 912.86218 A 16 11.5 0 1 1  93,912.86218 A 16 11.5 0 1 1  125 912.86218 z"
       transform="matrix(0.46875,0,0,0.652174,166.4062,399.5172)" />
    <path
       sodipodi:type="arc"
       style="fill:#6060e0;fill-opacity:1;fill-rule:nonzero;stroke:#000000;stroke-width:0;stroke-linecap:round;stroke-linejoin:round;stroke-miterlimit:4;stroke-dasharray:none;stroke-dashoffset:0;stroke-opacity:1"
       id="path3378"
       sodipodi:cx="109"
       sodipodi:cy="912.86218"
       sodipodi:rx="16"
       sodipodi:ry="11.5"
       d="M 125 912.86218 A 16 11.5 0 1 1  93,912.86218 A 16 11.5 0 1 1  125 912.86218 z"
       transform="matrix(0.46875,0,0,0.652174,206.4062,439.5172)" />
    <path
       sodipodi:type="arc"
       style="fill:#6060e0;fill-opacity:1;fill-rule:nonzero;stroke:#000000;stroke-width:0;stroke-linecap:round;stroke-linejoin:round;stroke-miterlimit:4;stroke-dasharray:none;stroke-dashoffset:0;stroke-opacity:1"
       id="path3380"
       sodipodi:cx="109"
       sodipodi:cy="912.86218"
       sodipodi:rx="16"
       sodipodi:ry="11.5"
       d="M 125 912.86218 A 16 11.5 0 1 1  93,912.86218 A 16 11.5 0 1 1  125 912.86218 z"
       transform="matrix(0.46875,0,0,0.652174,206.4062,419.5172)" />
    <path
       sodipodi:type="arc"
       style="fill:#6060e0;fill-opacity:1;fill-rule:nonzero;stroke:#000000;stroke-width:0;stroke-linecap:round;stroke-linejoin:round;stroke-miterlimit:4;stroke-dasharray:none;stroke-dashoffset:0;stroke-opacity:1"
       id="path3382"
       sodipodi:cx="109"
       sodipodi:cy="912.86218"
       sodipodi:rx="16"
       sodipodi:ry="11.5"
       d="M 125 912.86218 A 16 11.5 0 1 1  93,912.86218 A 16 11.5 0 1 1  125 912.86218 z"
       transform="matrix(0.46875,0,0,0.652174,206.4062,399.5172)" />
    <rect
       style="fill:#ffffff;fill-opacity:0;fill-rule:nonzero;stroke:#808080;stroke-width:2.5;stroke-linecap:round;stroke-linejoin:round;stroke-miterlimit:4;stroke-dasharray:none;stroke-dashoffset:0;stroke-opacity:1"
       id="rect3408"
       width="72.499931"
       height="72.499947"
       x="1.25"
       y="853.61224"
       ry="10" />
    <path
       sodipodi:type="arc"
       style="fill:#6060e0;fill-opacity:1;fill-rule:nonzero;stroke:#000000;stroke-width:0;stroke-linecap:round;stroke-linejoin:round;stroke-miterlimit:4;stroke-dasharray:none;stroke-dashoffset:0;stroke-opacity:1"
       id="path3418"
       sodipodi:cx="109"
       sodipodi:cy="912.86218"
       sodipodi:rx="16"
       sodipodi:ry="11.5"
       d="M 125 912.86218 A 16 11.5 0 1 1  93,912.86218 A 16 11.5 0 1 1  125 912.86218 z"
       transform="matrix(0.46875,0,0,0.652174,-13.59378,294.5172)" />
    <rect
       style="fill:#ffffff;fill-opacity:0;fill-rule:nonzero;stroke:#808080;stroke-width:2.5;stroke-linecap:round;stroke-linejoin:round;stroke-miterlimit:4;stroke-dasharray:none;stroke-dashoffset:0;stroke-opacity:1"
       id="rect3430"
       width="72.499931"
       height="72.499947"
       x="201.25003"
       y="853.61224"
       ry="10" />
    <rect
       style="fill:#ffffff;fill-opacity:0;fill-rule:nonzero;stroke:#808080;stroke-width:2.5;stroke-linecap:round;stroke-linejoin:round;stroke-miterlimit:4;stroke-dasharray:none;stroke-dashoffset:0;stroke-opacity:1"
       id="rect3342"
       width="72.499931"
       height="72.499947"
       x="101.25001"
       y="-926.11182"
       ry="10"
       transform="scale(1,-1)" />
    <path
       sodipodi:type="arc"
       style="fill:#6060e0;fill-opacity:1;fill-rule:nonzero;stroke:#000000;stroke-width:0;stroke-linecap:round;stroke-linejoin:round;stroke-miterlimit:4;stroke-dasharray:none;stroke-dashoffset:0;stroke-opacity:1"
       id="path3344"
       sodipodi:cx="109"
       sodipodi:cy="912.86218"
       sodipodi:rx="16"
       sodipodi:ry="11.5"
       d="M 125 912.86218 A 16 11.5 0 1 1  93,912.86218 A 16 11.5 0 1 1  125 912.86218 z"
       transform="matrix(0.46875,0,0,-0.652174,66.40622,1465.207)" />
    <path
       sodipodi:type="arc"
       style="fill:#6060e0;fill-opacity:1;fill-rule:nonzero;stroke:#000000;stroke-width:0;stroke-linecap:round;stroke-linejoin:round;stroke-miterlimit:4;stroke-dasharray:none;stroke-dashoffset:0;stroke-opacity:1"
       id="path3348"
       sodipodi:cx="109"
       sodipodi:cy="912.86218"
       sodipodi:rx="16"
       sodipodi:ry="11.5"
       d="M 125 912.86218 A 16 11.5 0 1 1  93,912.86218 A 16 11.5 0 1 1  125 912.86218 z"
       transform="matrix(0.46875,0,0,-0.652174,66.40622,1505.207)" />
    <path
       sodipodi:type="arc"
       style="fill:#6060e0;fill-opacity:1;fill-rule:nonzero;stroke:#000000;stroke-width:0;stroke-linecap:round;stroke-linejoin:round;stroke-miterlimit:4;stroke-dasharray:none;stroke-dashoffset:0;stroke-opacity:1"
       id="path3352"
       sodipodi:cx="109"
       sodipodi:cy="912.86218"
       sodipodi:rx="16"
       sodipodi:ry="11.5"
       d="M 125 912.86218 A 16 11.5 0 1 1  93,912.86218 A 16 11.5 0 1 1  125 912.86218 z"
       transform="matrix(0.46875,0,0,-0.652174,86.40622,1485.207)" />
    <path
       sodipodi:type="arc"
       style="fill:#6060e0;fill-opacity:1;fill-rule:nonzero;stroke:#000000;stroke-width:0;stroke-linecap:round;stroke-linejoin:round;stroke-miterlimit:4;stroke-dasharray:none;stroke-dashoffset:0;stroke-opacity:1"
       id="path3356"
       sodipodi:cx="109"
       sodipodi:cy="912.86218"
       sodipodi:rx="16"
       sodipodi:ry="11.5"
       d="M 125 912.86218 A 16 11.5 0 1 1  93,912.86218 A 16 11.5 0 1 1  125 912.86218 z"
       transform="matrix(0.46875,0,0,-0.652174,106.4062,1465.207)" />
    <path
       sodipodi:type="arc"
       style="fill:#6060e0;fill-opacity:1;fill-rule:nonzero;stroke:#000000;stroke-width:0;stroke-linecap:round;stroke-linejoin:round;stroke-miterlimit:4;stroke-dasharray:none;stroke-dashoffset:0;stroke-opacity:1"
       id="path3360"
       sodipodi:cx="109"
       sodipodi:cy="912.86218"
       sodipodi:rx="16"
       sodipodi:ry="11.5"
       d="M 125 912.86218 A 16 11.5 0 1 1  93,912.86218 A 16 11.5 0 1 1  125 912.86218 z"
       transform="matrix(0.46875,0,0,-0.652174,106.4062,1505.207)" />
    <g
       id="g4268"
       transform="matrix(1,0,0,-1,0,2029.724)">
      <rect
         transform="scale(1,-1)"
         ry="10"
         y="-1051.1118"
         x="101.25001"
         height="72.499947"
         width="72.499931"
         id="rect3386"
         style="fill:#ffffff;fill-opacity:0;fill-rule:nonzero;stroke:#808080;stroke-width:2.5;stroke-linecap:round;stroke-linejoin:round;stroke-miterlimit:4;stroke-dasharray:none;stroke-dashoffset:0;stroke-opacity:1" />
      <path
         transform="matrix(0.46875,0,0,-0.652174,66.40622,1630.207)"
         d="M 125 912.86218 A 16 11.5 0 1 1  93,912.86218 A 16 11.5 0 1 1  125 912.86218 z"
         sodipodi:ry="11.5"
         sodipodi:rx="16"
         sodipodi:cy="912.86218"
         sodipodi:cx="109"
         id="path3392"
         style="fill:#6060e0;fill-opacity:1;fill-rule:nonzero;stroke:#000000;stroke-width:0;stroke-linecap:round;stroke-linejoin:round;stroke-miterlimit:4;stroke-dasharray:none;stroke-dashoffset:0;stroke-opacity:1"
         sodipodi:type="arc" />
      <path
         transform="matrix(0.46875,0,0,-0.652174,106.4062,1590.207)"
         d="M 125 912.86218 A 16 11.5 0 1 1  93,912.86218 A 16 11.5 0 1 1  125 912.86218 z"
         sodipodi:ry="11.5"
         sodipodi:rx="16"
         sodipodi:cy="912.86218"
         sodipodi:cx="109"
         id="path3400"
         style="fill:#6060e0;fill-opacity:1;fill-rule:nonzero;stroke:#000000;stroke-width:0;stroke-linecap:round;stroke-linejoin:round;stroke-miterlimit:4;stroke-dasharray:none;stroke-dashoffset:0;stroke-opacity:1"
         sodipodi:type="arc" />
    </g>
    <path
       sodipodi:type="arc"
       style="fill:#6060e0;fill-opacity:1;fill-rule:nonzero;stroke:#000000;stroke-width:0;stroke-linecap:round;stroke-linejoin:round;stroke-miterlimit:4;stroke-dasharray:none;stroke-dashoffset:0;stroke-opacity:1"
       id="path3436"
       sodipodi:cx="109"
       sodipodi:cy="912.86218"
       sodipodi:rx="16"
       sodipodi:ry="11.5"
       d="M 125 912.86218 A 16 11.5 0 1 1  93,912.86218 A 16 11.5 0 1 1  125 912.86218 z"
       transform="matrix(0.46875,0,0,0.652174,166.4062,274.5172)" />
    <path
       sodipodi:type="arc"
       style="fill:#6060e0;fill-opacity:1;fill-rule:nonzero;stroke:#000000;stroke-width:0;stroke-linecap:round;stroke-linejoin:round;stroke-miterlimit:4;stroke-dasharray:none;stroke-dashoffset:0;stroke-opacity:1"
       id="path3440"
       sodipodi:cx="109"
       sodipodi:cy="912.86218"
       sodipodi:rx="16"
       sodipodi:ry="11.5"
       d="M 125 912.86218 A 16 11.5 0 1 1  93,912.86218 A 16 11.5 0 1 1  125 912.86218 z"
       transform="matrix(0.46875,0,0,0.652174,186.4062,294.5172)" />
    <path
       sodipodi:type="arc"
       style="fill:#6060e0;fill-opacity:1;fill-rule:nonzero;stroke:#000000;stroke-width:0;stroke-linecap:round;stroke-linejoin:round;stroke-miterlimit:4;stroke-dasharray:none;stroke-dashoffset:0;stroke-opacity:1"
       id="path3444"
       sodipodi:cx="109"
       sodipodi:cy="912.86218"
       sodipodi:rx="16"
       sodipodi:ry="11.5"
       d="M 125 912.86218 A 16 11.5 0 1 1  93,912.86218 A 16 11.5 0 1 1  125 912.86218 z"
       transform="matrix(0.46875,0,0,0.652174,206.4062,314.5172)" />
    <g
       id="g4171"
       transform="matrix(1.125002,0,0,1.124994,-457.5008,-124.0392)">
      <path
         transform="matrix(1.33333,0,0,1.519999,-111.332,-473.2274)"
         d="M 442 977.36218 A 28.5 25 0 1 1  385,977.36218 A 28.5 25 0 1 1  442 977.36218 z"
         sodipodi:ry="25"
         sodipodi:rx="28.5"
         sodipodi:cy="977.36218"
         sodipodi:cx="413.5"
         id="path2211"
         style="opacity:1;fill:#ffffff;fill-opacity:0;fill-rule:nonzero;stroke:#e06060;stroke-width:2.80989909;stroke-linecap:round;stroke-linejoin:round;stroke-miterlimit:4;stroke-dasharray:none;stroke-dashoffset:0;stroke-opacity:1"
         sodipodi:type="arc" />
      <path
         id="path4165"
         d="M 414.99344,1037.3685 L 465.00647,987.35581"
         style="fill:none;fill-opacity:0.75;fill-rule:evenodd;stroke:#e06060;stroke-width:4.98738337;stroke-linecap:round;stroke-linejoin:miter;stroke-miterlimit:4;stroke-dasharray:none;stroke-opacity:1" />
    </g>
    <g
       id="g4187"
       transform="matrix(1.125002,0,0,1.124994,-357.5009,-124.0392)">
      <path
         transform="matrix(1.33333,0,0,1.519999,-111.332,-473.2274)"
         d="M 442 977.36218 A 28.5 25 0 1 1  385,977.36218 A 28.5 25 0 1 1  442 977.36218 z"
         sodipodi:ry="25"
         sodipodi:rx="28.5"
         sodipodi:cy="977.36218"
         sodipodi:cx="413.5"
         id="path4189"
         style="opacity:1;fill:#ffffff;fill-opacity:0;fill-rule:nonzero;stroke:#e06060;stroke-width:2.80989909;stroke-linecap:round;stroke-linejoin:round;stroke-miterlimit:4;stroke-dasharray:none;stroke-dashoffset:0;stroke-opacity:1"
         sodipodi:type="arc" />
      <path
         id="path4191"
         d="M 414.99344,1037.3685 L 465.00647,987.35581"
         style="fill:none;fill-opacity:0.75;fill-rule:evenodd;stroke:#e06060;stroke-width:4.98738337;stroke-linecap:round;stroke-linejoin:miter;stroke-miterlimit:4;stroke-dasharray:none;stroke-opacity:1" />
    </g>
    <g
       id="g4193"
       transform="matrix(1.125002,0,0,1.124994,-257.5008,-124.0392)">
      <path
         transform="matrix(1.33333,0,0,1.519999,-111.332,-473.2274)"
         d="M 442 977.36218 A 28.5 25 0 1 1  385,977.36218 A 28.5 25 0 1 1  442 977.36218 z"
         sodipodi:ry="25"
         sodipodi:rx="28.5"
         sodipodi:cy="977.36218"
         sodipodi:cx="413.5"
         id="path4195"
         style="opacity:1;fill:#ffffff;fill-opacity:0;fill-rule:nonzero;stroke:#e06060;stroke-width:2.80989909;stroke-linecap:round;stroke-linejoin:round;stroke-miterlimit:4;stroke-dasharray:none;stroke-dashoffset:0;stroke-opacity:1"
         sodipodi:type="arc" />
      <path
         id="path4197"
         d="M 414.99344,1037.3685 L 465.00647,987.35581"
         style="fill:none;fill-opacity:0.75;fill-rule:evenodd;stroke:#e06060;stroke-width:4.98738337;stroke-linecap:round;stroke-linejoin:miter;stroke-miterlimit:4;stroke-dasharray:none;stroke-opacity:1" />
    </g>
  </g>
</svg>
