<?xml version="1.0" encoding="UTF-8" standalone="no"?>
<!-- Created with Inkscape (http://www.inkscape.org/) -->
<svg
   xmlns:dc="http://purl.org/dc/elements/1.1/"
   xmlns:cc="http://web.resource.org/cc/"
   xmlns:rdf="http://www.w3.org/1999/02/22-rdf-syntax-ns#"
   xmlns:svg="http://www.w3.org/2000/svg"
   xmlns="http://www.w3.org/2000/svg"
   xmlns:sodipodi="http://sodipodi.sourceforge.net/DTD/sodipodi-0.dtd"
   xmlns:inkscape="http://www.inkscape.org/namespaces/inkscape"
   width="744.09448819"
   height="1052.3622047"
   id="svg1454"
   sodipodi:version="0.32"
   inkscape:version="0.45.1"
   sodipodi:docbase="/Users/chmbrlnd/Desktop/FREDsvn/EduDocs/Probability/Figures/3Chapter"
   sodipodi:docname="setpartition3.svg"
   inkscape:export-filename="/usr/home/chmbrlnd/Courses/setpartition3.png"
   inkscape:export-xdpi="59.888721"
   inkscape:export-ydpi="59.888721"
   inkscape:output_extension="org.inkscape.output.svg.inkscape">
  <defs
     id="defs1456">
    <marker
       inkscape:stockid="Arrow1Mend"
       orient="auto"
       refY="0.0"
       refX="0.0"
       id="Arrow1Mend"
       style="overflow:visible;">
      <path
         id="path2936"
         d="M 0.0,0.0 L 5.0,-5.0 L -12.5,0.0 L 5.0,5.0 L 0.0,0.0 z "
         style="fill-rule:evenodd;stroke:#000000;stroke-width:1.0pt;marker-start:none;"
         transform="scale(0.4) rotate(180)" />
    </marker>
  </defs>
  <sodipodi:namedview
     id="base"
     pagecolor="#ffffff"
     bordercolor="#ffffff"
     borderopacity="0.0"
     inkscape:pageopacity="0.0"
     inkscape:pageshadow="0"
     inkscape:zoom="1"
     inkscape:cx="275.99348"
     inkscape:cy="143.44672"
     inkscape:document-units="px"
     inkscape:current-layer="layer1"
     showgrid="true"
     inkscape:window-width="1280"
     inkscape:window-height="768"
     inkscape:window-x="47"
     inkscape:window-y="23" />
  <metadata
     id="metadata1459">
    <rdf:RDF>
      <cc:Work
         rdf:about="">
        <dc:format>image/svg+xml</dc:format>
        <dc:type
           rdf:resource="http://purl.org/dc/dcmitype/StillImage" />
      </cc:Work>
    </rdf:RDF>
  </metadata>
  <g
     inkscape:label="Layer 1"
     inkscape:groupmode="layer"
     id="layer1">
    <g
       id="g2602"
       transform="matrix(0,-1,1,0,-323.23107,1201.2344)">
      <path
         id="path2590"
         d="M 250.92188,906.90059 C 286.41267,907.57569 317.37311,926.86719 334.45313,955.40059 C 317.06147,984.43579 285.26928,1003.9006 248.98438,1003.9006 C 212.69972,1003.9006 180.93862,984.43549 163.54688,955.40059 C 180.93559,926.35289 212.69007,906.90059 248.98438,906.90059 C 249.62821,906.90059 250.28095,906.8884 250.92188,906.90059 z "
         style="fill:#e0e0e0;fill-opacity:1;fill-rule:nonzero;stroke:#808080;stroke-width:3.18499994;stroke-miterlimit:4;stroke-dasharray:none;stroke-dashoffset:0;stroke-opacity:1" />
      <path
         id="path2592"
         d="M 249.00004,906.91824 C 224.96736,906.91824 202.91767,915.44069 185.71879,929.63699 L 185.71879,967.63699 L 312.28129,967.63699 L 312.28129,929.60579 C 295.54021,915.79379 274.21273,907.36096 250.93754,906.91824 C 250.29661,906.90605 249.64387,906.91822 249.00004,906.91824 z "
         style="fill:#a0a0e0;fill-opacity:1;fill-rule:nonzero;stroke:#000000;stroke-width:3.18527365;stroke-miterlimit:4;stroke-dasharray:none;stroke-opacity:1" />
      <path
         id="path2594"
         d="M 335.0625,814.36934 C 343.61948,829.06236 348.53125,846.15182 348.53125,864.36934 C 348.53125,883.0154 343.40264,900.4772 334.46875,915.40059 C 317.38873,886.86712 286.4283,867.57571 250.9375,866.90059 C 250.29657,866.8884 249.64384,866.90061 249,866.90059 C 212.70569,866.90059 180.95119,886.35288 163.5625,915.40059 C 154.61983,900.47329 149.46875,883.02396 149.46875,864.36934 C 149.46875,846.15182 154.38052,829.06236 162.9375,814.36934 C 180.1894,843.97573 212.28609,863.90061 249,863.90059 C 285.71392,863.9006 317.81061,843.97575 335.0625,814.36934 z M 163.875,915.90059 C 163.92661,915.98559 163.97935,916.06569 164.03125,916.15059 C 163.97857,916.06439 163.92743,915.98699 163.875,915.90059 z "
         style="fill:#e0e0e0;fill-opacity:1;fill-rule:nonzero;stroke:#808080;stroke-width:3.18499994;stroke-miterlimit:4;stroke-dasharray:none;stroke-dashoffset:0;stroke-opacity:1" />
      <path
         id="path2596"
         d="M 185.71879,841.19949 L 185.71879,889.66824 C 202.92044,875.46256 224.9585,866.91823 249.00004,866.91824 C 249.64388,866.91826 250.29661,866.90603 250.93754,866.91824 C 274.2126,867.36099 295.54025,875.79397 312.28129,889.60574 L 312.28129,841.19949 C 295.07762,855.3901 273.02184,863.91823 249.00004,863.91824 C 224.97824,863.91825 202.92246,855.3901 185.71879,841.19949 z "
         style="fill:#a0e0a0;fill-opacity:1;fill-rule:nonzero;stroke:#000000;stroke-width:3.18527365;stroke-miterlimit:4;stroke-dasharray:none;stroke-opacity:1" />
      <path
         id="path2598"
         d="M 250.9375,724.8292 C 286.85379,725.51239 318.11592,745.26185 335.0625,774.36045 C 317.8106,803.96684 285.71392,823.89171 249,823.8917 C 212.28608,823.8917 180.1894,803.96684 162.9375,774.36045 C 180.18649,744.74258 212.27749,724.82919 249,724.8292 C 249.64383,724.8292 250.29657,724.81701 250.9375,724.8292 z "
         style="fill:#e0e0e0;fill-opacity:1;fill-rule:nonzero;stroke:#808080;stroke-width:3.18499994;stroke-miterlimit:4;stroke-dasharray:none;stroke-dashoffset:0;stroke-opacity:1" />
      <path
         id="path2600"
         d="M 185.71879,761.09685 L 185.71879,801.1906 C 202.92246,815.3812 224.97824,823.90934 249.00004,823.90935 C 273.02184,823.90936 295.07762,815.38121 312.28129,801.1906 L 312.28129,761.09685 L 185.71879,761.09685 z "
         style="fill:#e0a0a0;fill-opacity:1;fill-rule:nonzero;stroke:#000000;stroke-width:3.18527198;stroke-miterlimit:4;stroke-dasharray:none;stroke-opacity:1" />
    </g>
    <g
       id="g2581"
       transform="matrix(0,-1,1,0,-640.23561,1250.2344)">
      <path
         transform="matrix(0,-0.916714,-0.967643,0,721.90164,1018.9881)"
         d="M 411.42857 438.07648 A 108.57143 102.85714 0 1 1  194.28572,438.07648 A 108.57143 102.85714 0 1 1  411.42857 438.07648 z"
         sodipodi:ry="102.85714"
         sodipodi:rx="108.57143"
         sodipodi:cy="438.07648"
         sodipodi:cx="302.85715"
         id="path2567"
         style="fill:#ffffff;fill-opacity:1;fill-rule:nonzero;stroke:#808080;stroke-width:3.18527365;stroke-miterlimit:4;stroke-dasharray:none;stroke-opacity:1"
         sodipodi:type="arc" />
      <path
         id="path2569"
         d="M 299.92188,743.89614 C 335.41267,744.57124 366.37311,763.8627 383.45313,792.39614 C 366.06147,821.43134 334.26928,840.89614 297.98438,840.89614 C 261.69972,840.89614 229.93862,821.43104 212.54688,792.39614 C 229.93559,763.34847 261.69007,743.89614 297.98438,743.89614 C 298.62821,743.89614 299.28095,743.88395 299.92188,743.89614 z "
         style="fill:#e0e0e0;fill-opacity:1;fill-rule:nonzero;stroke:#808080;stroke-width:3.18499994;stroke-miterlimit:4;stroke-dasharray:none;stroke-dashoffset:0;stroke-opacity:1" />
      <path
         id="path2571"
         d="M 298.00004,743.91379 C 273.96736,743.91379 251.91767,752.43628 234.71879,766.63254 L 234.71879,804.63254 L 361.28129,804.63254 L 361.28129,766.60129 C 344.54021,752.78937 323.21273,744.35651 299.93754,743.91379 C 299.29661,743.9016 298.64387,743.91377 298.00004,743.91379 z "
         style="fill:#a0a0e0;fill-opacity:1;fill-rule:nonzero;stroke:#000000;stroke-width:3.18527365;stroke-miterlimit:4;stroke-dasharray:none;stroke-opacity:1" />
      <path
         id="path2573"
         d="M 384.0625,691.36489 C 392.61948,706.05791 397.53125,723.14737 397.53125,741.36489 C 397.53125,760.01095 392.40264,777.47275 383.46875,792.39614 C 366.38873,763.86267 335.4283,744.57126 299.9375,743.89614 C 299.29657,743.88395 298.64384,743.89616 298,743.89614 C 261.70569,743.89614 229.95119,763.34843 212.5625,792.39614 C 203.61983,777.46884 198.46875,760.01951 198.46875,741.36489 C 198.46875,723.14737 203.38052,706.05791 211.9375,691.36489 C 229.1894,720.97128 261.28609,740.89616 298,740.89614 C 334.71392,740.89615 366.81061,720.9713 384.0625,691.36489 z M 212.875,792.89614 C 212.92661,792.98114 212.97935,793.06124 213.03125,793.14614 C 212.97857,793.05994 212.92743,792.98254 212.875,792.89614 z "
         style="fill:#e0e0e0;fill-opacity:1;fill-rule:nonzero;stroke:#808080;stroke-width:3.18499994;stroke-miterlimit:4;stroke-dasharray:none;stroke-dashoffset:0;stroke-opacity:1" />
      <path
         id="path2575"
         d="M 234.71879,718.19504 L 234.71879,766.66379 C 251.92044,752.45811 273.9585,743.91378 298.00004,743.91379 C 298.64388,743.91381 299.29661,743.90158 299.93754,743.91379 C 323.2126,744.35654 344.54025,752.78952 361.28129,766.60129 L 361.28129,718.19504 C 344.07762,732.38565 322.02184,740.91378 298.00004,740.91379 C 273.97824,740.9138 251.92246,732.38565 234.71879,718.19504 z "
         style="fill:#a0e0a0;fill-opacity:1;fill-rule:nonzero;stroke:#000000;stroke-width:3.18527365;stroke-miterlimit:4;stroke-dasharray:none;stroke-opacity:1" />
      <path
         id="path2577"
         d="M 299.9375,641.83364 C 335.85379,642.51683 367.11592,662.26629 384.0625,691.36489 C 366.8106,720.97128 334.71392,740.89615 298,740.89614 C 261.28608,740.89614 229.1894,720.97128 211.9375,691.36489 C 229.18649,661.74702 261.27749,641.83363 298,641.83364 C 298.64383,641.83364 299.29657,641.82145 299.9375,641.83364 z "
         style="fill:#e0e0e0;fill-opacity:1;fill-rule:nonzero;stroke:#808080;stroke-width:3.18499994;stroke-miterlimit:4;stroke-dasharray:none;stroke-dashoffset:0;stroke-opacity:1" />
      <path
         id="path2579"
         d="M 234.71879,678.10129 L 234.71879,718.19504 C 251.92246,732.38564 273.97824,740.91378 298.00004,740.91379 C 322.02184,740.9138 344.07762,732.38565 361.28129,718.19504 L 361.28129,678.10129 L 234.71879,678.10129 z "
         style="fill:#e0a0a0;fill-opacity:1;fill-rule:nonzero;stroke:#000000;stroke-width:3.18527198;stroke-miterlimit:4;stroke-dasharray:none;stroke-opacity:1" />
    </g>
    <path
       style="fill:none;fill-opacity:0.75;fill-rule:evenodd;stroke:black;stroke-width:5;stroke-linecap:round;stroke-linejoin:miter;marker-mid:none;marker-end:url(#Arrow1Mend);stroke-miterlimit:4;stroke-dasharray:none;stroke-opacity:1"
       d="M 252.22994,951.34104 L 326.2679,951.34104"
       id="path2770" />
  </g>
</svg>
