<?xml version="1.0" encoding="UTF-8" standalone="no"?>
<!-- Created with Inkscape (http://www.inkscape.org/) -->
<svg
   xmlns:dc="http://purl.org/dc/elements/1.1/"
   xmlns:cc="http://web.resource.org/cc/"
   xmlns:rdf="http://www.w3.org/1999/02/22-rdf-syntax-ns#"
   xmlns:svg="http://www.w3.org/2000/svg"
   xmlns="http://www.w3.org/2000/svg"
   xmlns:sodipodi="http://sodipodi.sourceforge.net/DTD/sodipodi-0.dtd"
   xmlns:inkscape="http://www.inkscape.org/namespaces/inkscape"
   width="744.09448819"
   height="1052.3622047"
   id="svg1454"
   sodipodi:version="0.32"
   inkscape:version="0.45.1"
   sodipodi:docbase="/Users/chmbrlnd/Desktop/FREDsvn/EduDocs/Probability/Figures/3Chapter"
   sodipodi:docname="setpartition2.svg"
   inkscape:export-filename="/usr/home/chmbrlnd/Courses/setpartition.png"
   inkscape:export-xdpi="59.888721"
   inkscape:export-ydpi="59.888721"
   inkscape:output_extension="org.inkscape.output.svg.inkscape">
  <defs
     id="defs1456">
    <marker
       inkscape:stockid="Arrow1Mend"
       orient="auto"
       refY="0.0"
       refX="0.0"
       id="Arrow1Mend"
       style="overflow:visible;">
      <path
         id="path2936"
         d="M 0.0,0.0 L 5.0,-5.0 L -12.5,0.0 L 5.0,5.0 L 0.0,0.0 z "
         style="fill-rule:evenodd;stroke:#000000;stroke-width:1.0pt;marker-start:none;"
         transform="scale(0.4) rotate(180)" />
    </marker>
  </defs>
  <sodipodi:namedview
     id="base"
     pagecolor="#ffffff"
     bordercolor="#ffffff"
     borderopacity="0.0"
     inkscape:pageopacity="0.0"
     inkscape:pageshadow="0"
     inkscape:zoom="1"
     inkscape:cx="275.99348"
     inkscape:cy="122.87905"
     inkscape:document-units="px"
     inkscape:current-layer="layer1"
     showgrid="true"
     inkscape:window-width="810"
     inkscape:window-height="581"
     inkscape:window-x="132"
     inkscape:window-y="115" />
  <metadata
     id="metadata1459">
    <rdf:RDF>
      <cc:Work
         rdf:about="">
        <dc:format>image/svg+xml</dc:format>
        <dc:type
           rdf:resource="http://purl.org/dc/dcmitype/StillImage" />
      </cc:Work>
    </rdf:RDF>
  </metadata>
  <g
     inkscape:label="Layer 1"
     inkscape:groupmode="layer"
     id="layer1">
    <g
       id="g2468"
       transform="matrix(0,-1,1,0,-934.23561,1285.2344)">
      <path
         transform="matrix(0,-0.916714,-0.967643,0,756.90164,1312.9881)"
         d="M 411.42857 438.07648 A 108.57143 102.85714 0 1 1  194.28572,438.07648 A 108.57143 102.85714 0 1 1  411.42857 438.07648 z"
         sodipodi:ry="102.85714"
         sodipodi:rx="108.57143"
         sodipodi:cy="438.07648"
         sodipodi:cx="302.85715"
         id="path2460"
         style="fill:#ffffff;fill-opacity:1;fill-rule:nonzero;stroke:#808080;stroke-width:3.18527365;stroke-miterlimit:4;stroke-dasharray:none;stroke-opacity:1"
         sodipodi:type="arc" />
      <path
         id="path2462"
         d="M 419.0625,985.36489 C 427.61948,1000.0579 432.53125,1017.1474 432.53125,1035.3649 C 432.53125,1054.011 427.40264,1071.4728 418.46875,1086.3961 C 401.38873,1057.8627 370.4283,1038.5713 334.9375,1037.8961 C 334.29657,1037.884 333.64384,1037.8962 333,1037.8961 C 296.70569,1037.8961 264.95119,1057.3484 247.5625,1086.3961 C 238.61983,1071.4688 233.46875,1054.0195 233.46875,1035.3649 C 233.46875,1017.1474 238.38052,1000.0579 246.9375,985.36489 C 264.1894,1014.9713 296.28609,1034.8962 333,1034.8961 C 369.71392,1034.8962 401.81061,1014.9713 419.0625,985.36489 z M 247.875,1086.8961 C 247.92661,1086.9811 247.97935,1087.0612 248.03125,1087.1461 C 247.97857,1087.0599 247.92743,1086.9825 247.875,1086.8961 z "
         style="fill:#a0e0a0;fill-opacity:1;fill-rule:nonzero;stroke:#000000;stroke-width:3.18527365;stroke-miterlimit:4;stroke-dasharray:none;stroke-opacity:1" />
      <path
         id="path2464"
         d="M 334.9375,935.83364 C 370.85379,936.51683 402.11592,956.26629 419.0625,985.36489 C 401.8106,1014.9713 369.71392,1034.8962 333,1034.8961 C 296.28608,1034.8961 264.1894,1014.9713 246.9375,985.36489 C 264.18649,955.74702 296.27749,935.83363 333,935.83364 C 333.64383,935.83364 334.29657,935.82145 334.9375,935.83364 z "
         style="fill:#e0a0a0;fill-opacity:1;fill-rule:nonzero;stroke:#000000;stroke-width:3.18527198;stroke-miterlimit:4;stroke-dasharray:none;stroke-opacity:1" />
      <path
         id="path2466"
         d="M 334.92188,1037.8961 C 370.41267,1038.5712 401.37311,1057.8627 418.45313,1086.3961 C 401.06147,1115.4313 369.26928,1134.8961 332.98438,1134.8961 C 296.69972,1134.8961 264.93862,1115.431 247.54688,1086.3961 C 264.93559,1057.3485 296.69007,1037.8961 332.98438,1037.8961 C 333.62821,1037.8961 334.28095,1037.884 334.92188,1037.8961 z "
         style="fill:#a0a0e0;fill-opacity:1;fill-rule:nonzero;stroke:#000000;stroke-width:3.18527365;stroke-miterlimit:4;stroke-dasharray:none;stroke-opacity:1" />
    </g>
    <path
       style="fill:none;fill-opacity:0.75;fill-rule:evenodd;stroke:black;stroke-width:5;stroke-linecap:round;stroke-linejoin:miter;marker-mid:none;marker-end:url(#Arrow1Mend);stroke-miterlimit:4;stroke-dasharray:none;stroke-opacity:1"
       d="M 252.22994,951.34104 L 326.2679,951.34104"
       id="path2770" />
    <g
       id="g2448"
       transform="matrix(0,-1,1,0,-510.23551,1415.2344)">
      <path
         id="path2442"
         d="M 549.0625,1001.3649 C 557.61948,1016.0579 562.53125,1033.1474 562.53125,1051.3649 C 562.53125,1070.011 557.40264,1087.4728 548.46875,1102.3961 C 531.38873,1073.8627 500.4283,1054.5713 464.9375,1053.8961 C 464.29657,1053.884 463.64384,1053.8962 463,1053.8961 C 426.70569,1053.8961 394.95119,1073.3484 377.5625,1102.3961 C 368.61983,1087.4688 363.46875,1070.0195 363.46875,1051.3649 C 363.46875,1033.1474 368.38052,1016.0579 376.9375,1001.3649 C 394.1894,1030.9713 426.28609,1050.8962 463,1050.8961 C 499.71392,1050.8962 531.81061,1030.9713 549.0625,1001.3649 z M 377.875,1102.8961 C 377.92661,1102.9811 377.97935,1103.0612 378.03125,1103.1461 C 377.97857,1103.0599 377.92743,1102.9825 377.875,1102.8961 z "
         style="fill:#a0e0a0;fill-opacity:1;fill-rule:nonzero;stroke:#000000;stroke-width:3.18527365;stroke-miterlimit:4;stroke-dasharray:none;stroke-opacity:1" />
      <path
         id="path2444"
         d="M 464.9375,911.83364 C 500.85379,912.51683 532.11592,932.26629 549.0625,961.36489 C 531.8106,990.97128 499.71392,1010.8962 463,1010.8961 C 426.28608,1010.8961 394.1894,990.97128 376.9375,961.36489 C 394.18649,931.74702 426.27749,911.83363 463,911.83364 C 463.64383,911.83364 464.29657,911.82145 464.9375,911.83364 z "
         style="fill:#e0a0a0;fill-opacity:1;fill-rule:nonzero;stroke:#000000;stroke-width:3.18527198;stroke-miterlimit:4;stroke-dasharray:none;stroke-opacity:1" />
      <path
         id="path2446"
         d="M 464.92188,1093.8961 C 500.41267,1094.5712 531.37311,1113.8627 548.45313,1142.3961 C 531.06147,1171.4313 499.26928,1190.8961 462.98438,1190.8961 C 426.69972,1190.8961 394.93862,1171.431 377.54688,1142.3961 C 394.93559,1113.3484 426.69007,1093.8961 462.98438,1093.8961 C 463.62821,1093.8961 464.28095,1093.884 464.92188,1093.8961 z "
         style="fill:#a0a0e0;fill-opacity:1;fill-rule:nonzero;stroke:#000000;stroke-width:3.18527365;stroke-miterlimit:4;stroke-dasharray:none;stroke-opacity:1" />
    </g>
  </g>
</svg>
