<?xml version="1.0" encoding="UTF-8" standalone="no"?>
<!-- Created with Inkscape (http://www.inkscape.org/) -->
<svg
   xmlns:dc="http://purl.org/dc/elements/1.1/"
   xmlns:cc="http://web.resource.org/cc/"
   xmlns:rdf="http://www.w3.org/1999/02/22-rdf-syntax-ns#"
   xmlns:svg="http://www.w3.org/2000/svg"
   xmlns="http://www.w3.org/2000/svg"
   xmlns:sodipodi="http://sodipodi.sourceforge.net/DTD/sodipodi-0.dtd"
   xmlns:inkscape="http://www.inkscape.org/namespaces/inkscape"
   width="744.09448819"
   height="1052.3622047"
   id="svg1454"
   sodipodi:version="0.32"
   inkscape:version="0.44.1"
   sodipodi:docbase="/usr/home/chmbrlnd/Courses"
   sodipodi:docname="setpartition3.svg"
   inkscape:export-filename="/usr/home/chmbrlnd/Courses/setpartition3.png"
   inkscape:export-xdpi="59.888721"
   inkscape:export-ydpi="59.888721">
  <defs
     id="defs1456">
    <marker
       inkscape:stockid="Arrow1Mend"
       orient="auto"
       refY="0.0"
       refX="0.0"
       id="Arrow1Mend"
       style="overflow:visible;">
      <path
         id="path2936"
         d="M 0.0,0.0 L 5.0,-5.0 L -12.5,0.0 L 5.0,5.0 L 0.0,0.0 z "
         style="fill-rule:evenodd;stroke:#000000;stroke-width:1.0pt;marker-start:none;"
         transform="scale(0.4) rotate(180)" />
    </marker>
  </defs>
  <sodipodi:namedview
     id="base"
     pagecolor="#ffffff"
     bordercolor="#ffffff"
     borderopacity="0.0"
     inkscape:pageopacity="0.0"
     inkscape:pageshadow="0"
     inkscape:zoom="1"
     inkscape:cx="275.99348"
     inkscape:cy="143.44672"
     inkscape:document-units="px"
     inkscape:current-layer="layer1"
     showgrid="true"
     inkscape:window-width="1280"
     inkscape:window-height="768"
     inkscape:window-x="11"
     inkscape:window-y="33" />
  <metadata
     id="metadata1459">
    <rdf:RDF>
      <cc:Work
         rdf:about="">
        <dc:format>image/svg+xml</dc:format>
        <dc:type
           rdf:resource="http://purl.org/dc/dcmitype/StillImage" />
      </cc:Work>
    </rdf:RDF>
  </metadata>
  <g
     inkscape:label="Layer 1"
     inkscape:groupmode="layer"
     id="layer1">
    <path
       style="fill:#e0e0e0;fill-opacity:1;fill-rule:nonzero;stroke:gray;stroke-width:3.18499994;stroke-miterlimit:4;stroke-dasharray:none;stroke-dashoffset:0;stroke-opacity:1"
       d="M 503.04584,993.875 C 538.53663,994.5501 569.49707,1013.8416 586.57709,1042.375 C 569.18543,1071.4102 537.39324,1090.875 501.10834,1090.875 C 464.82368,1090.875 433.06258,1071.4099 415.67084,1042.375 C 433.05955,1013.3273 464.81403,993.875 501.10834,993.875 C 501.75217,993.875 502.40491,993.86281 503.04584,993.875 z "
       id="path5067" />
    <path
       style="fill:#a0a0e0;fill-opacity:1;fill-rule:nonzero;stroke:black;stroke-width:3.18527365;stroke-miterlimit:4;stroke-dasharray:none;stroke-opacity:1"
       d="M 501.124,993.89265 C 477.09132,993.89265 455.04163,1002.4151 437.84275,1016.6114 L 437.84275,1054.6114 L 564.40525,1054.6114 L 564.40525,1016.5802 C 547.66417,1002.7682 526.33669,994.33537 503.0615,993.89265 C 502.42057,993.88046 501.76783,993.89263 501.124,993.89265 z "
       id="path5069" />
    <path
       style="fill:#e0e0e0;fill-opacity:1;fill-rule:nonzero;stroke:gray;stroke-width:3.18499994;stroke-miterlimit:4;stroke-dasharray:none;stroke-dashoffset:0;stroke-opacity:1"
       d="M 587.18646,901.34375 C 595.74344,916.03677 600.65521,933.12623 600.65521,951.34375 C 600.65521,969.98981 595.5266,987.45161 586.59271,1002.375 C 569.51269,973.84153 538.55226,954.55012 503.06146,953.875 C 502.42053,953.86281 501.7678,953.87502 501.12396,953.875 C 464.82965,953.875 433.07515,973.32729 415.68646,1002.375 C 406.74379,987.4477 401.59271,969.99837 401.59271,951.34375 C 401.59271,933.12623 406.50448,916.03677 415.06146,901.34375 C 432.31336,930.95014 464.41005,950.87502 501.12396,950.875 C 537.83788,950.87501 569.93457,930.95016 587.18646,901.34375 z M 415.99896,1002.875 C 416.05057,1002.96 416.10331,1003.0401 416.15521,1003.125 C 416.10253,1003.0388 416.05139,1002.9614 415.99896,1002.875 z "
       id="path5055" />
    <path
       style="fill:#a0e0a0;fill-opacity:1;fill-rule:nonzero;stroke:black;stroke-width:3.18527365;stroke-miterlimit:4;stroke-dasharray:none;stroke-opacity:1"
       d="M 437.84275,928.1739 L 437.84275,976.64265 C 455.0444,962.43697 477.08246,953.89264 501.124,953.89265 C 501.76784,953.89267 502.42057,953.88044 503.0615,953.89265 C 526.33656,954.3354 547.66421,962.76838 564.40525,976.58015 L 564.40525,928.1739 C 547.20158,942.36451 525.1458,950.89264 501.124,950.89265 C 477.1022,950.89266 455.04642,942.36451 437.84275,928.1739 z "
       id="path5057" />
    <path
       style="fill:#e0e0e0;fill-opacity:1;fill-rule:nonzero;stroke:gray;stroke-width:3.18499994;stroke-miterlimit:4;stroke-dasharray:none;stroke-dashoffset:0;stroke-opacity:1"
       d="M 503.06146,811.80361 C 538.97775,812.4868 570.23988,832.23626 587.18646,861.33486 C 569.93456,890.94125 537.83788,910.86612 501.12396,910.86611 C 464.41004,910.86611 432.31336,890.94125 415.06146,861.33486 C 432.31045,831.71699 464.40145,811.8036 501.12396,811.80361 C 501.76779,811.80361 502.42053,811.79142 503.06146,811.80361 z "
       id="path5061" />
    <path
       style="fill:#e0a0a0;fill-opacity:1;fill-rule:nonzero;stroke:black;stroke-width:3.18527198;stroke-miterlimit:4;stroke-dasharray:none;stroke-opacity:1"
       d="M 437.84275,848.07126 L 437.84275,888.16501 C 455.04642,902.35561 477.1022,910.88375 501.124,910.88376 C 525.1458,910.88377 547.20158,902.35562 564.40525,888.16501 L 564.40525,848.07126 L 437.84275,848.07126 z "
       id="path5063" />
    <path
       sodipodi:type="arc"
       style="fill:white;fill-opacity:1;fill-rule:nonzero;stroke:gray;stroke-width:3.18527365;stroke-miterlimit:4;stroke-dasharray:none;stroke-opacity:1"
       id="path2223"
       sodipodi:cx="302.85715"
       sodipodi:cy="438.07648"
       sodipodi:rx="108.57143"
       sodipodi:ry="102.85714"
       d="M 411.42857 438.07648 A 108.57143 102.85714 0 1 1  194.28572,438.07648 A 108.57143 102.85714 0 1 1  411.42857 438.07648 z"
       transform="matrix(0,-0.916714,-0.967643,0,525.0255,1228.967)" />
    <path
       style="fill:#e0e0e0;fill-opacity:1;fill-rule:nonzero;stroke:gray;stroke-width:3.18499994;stroke-miterlimit:4;stroke-dasharray:none;stroke-dashoffset:0;stroke-opacity:1"
       d="M 103.04574,953.875 C 138.53653,954.5501 169.49697,973.84156 186.57699,1002.375 C 169.18533,1031.4102 137.39314,1050.875 101.10824,1050.875 C 64.82358,1050.875 33.06248,1031.4099 15.67074,1002.375 C 33.05945,973.32733 64.81393,953.875 101.10824,953.875 C 101.75207,953.875 102.40481,953.86281 103.04574,953.875 z "
       id="path2369" />
    <path
       style="fill:#a0a0e0;fill-opacity:1;fill-rule:nonzero;stroke:black;stroke-width:3.18527365;stroke-miterlimit:4;stroke-dasharray:none;stroke-opacity:1"
       d="M 101.1239,953.89265 C 77.09122,953.89265 55.041528,962.41514 37.84265,976.6114 L 37.84265,1014.6114 L 164.40515,1014.6114 L 164.40515,976.58015 C 147.66407,962.76823 126.33659,954.33537 103.0614,953.89265 C 102.42047,953.88046 101.76773,953.89263 101.1239,953.89265 z "
       id="path4994" />
    <path
       style="fill:#e0e0e0;fill-opacity:1;fill-rule:nonzero;stroke:gray;stroke-width:3.18499994;stroke-miterlimit:4;stroke-dasharray:none;stroke-dashoffset:0;stroke-opacity:1"
       d="M 187.18636,901.34375 C 195.74334,916.03677 200.65511,933.12623 200.65511,951.34375 C 200.65511,969.98981 195.5265,987.45161 186.59261,1002.375 C 169.51259,973.84153 138.55216,954.55012 103.06136,953.875 C 102.42043,953.86281 101.7677,953.87502 101.12386,953.875 C 64.82955,953.875 33.07505,973.32729 15.68636,1002.375 C 6.74369,987.4477 1.59261,969.99837 1.59261,951.34375 C 1.59261,933.12623 6.50438,916.03677 15.06136,901.34375 C 32.31326,930.95014 64.40995,950.87502 101.12386,950.875 C 137.83778,950.87501 169.93447,930.95016 187.18636,901.34375 z M 15.99886,1002.875 C 16.05047,1002.96 16.10321,1003.0401 16.15511,1003.125 C 16.10243,1003.0388 16.05129,1002.9614 15.99886,1002.875 z "
       id="path2395" />
    <path
       style="fill:#a0e0a0;fill-opacity:1;fill-rule:nonzero;stroke:black;stroke-width:3.18527365;stroke-miterlimit:4;stroke-dasharray:none;stroke-opacity:1"
       d="M 37.84265,928.1739 L 37.84265,976.64265 C 55.044296,962.43697 77.08236,953.89264 101.1239,953.89265 C 101.76774,953.89267 102.42047,953.88044 103.0614,953.89265 C 126.33646,954.3354 147.66411,962.76838 164.40515,976.58015 L 164.40515,928.1739 C 147.20148,942.36451 125.1457,950.89264 101.1239,950.89265 C 77.102103,950.89266 55.046324,942.36451 37.84265,928.1739 z "
       id="path4990" />
    <path
       style="fill:#e0e0e0;fill-opacity:1;fill-rule:nonzero;stroke:gray;stroke-width:3.18499994;stroke-miterlimit:4;stroke-dasharray:none;stroke-dashoffset:0;stroke-opacity:1"
       d="M 103.06136,851.8125 C 138.97765,852.49569 170.23978,872.24515 187.18636,901.34375 C 169.93446,930.95014 137.83778,950.87501 101.12386,950.875 C 64.40994,950.875 32.31326,930.95014 15.06136,901.34375 C 32.31035,871.72588 64.40135,851.81249 101.12386,851.8125 C 101.76769,851.8125 102.42043,851.80031 103.06136,851.8125 z "
       id="path2221" />
    <path
       style="fill:#e0a0a0;fill-opacity:1;fill-rule:nonzero;stroke:black;stroke-width:3.18527198;stroke-miterlimit:4;stroke-dasharray:none;stroke-opacity:1"
       d="M 37.84265,888.08015 L 37.84265,928.1739 C 55.046322,942.3645 77.102097,950.89264 101.1239,950.89265 C 125.1457,950.89266 147.20148,942.36451 164.40515,928.1739 L 164.40515,888.08015 L 37.84265,888.08015 z "
       id="path4992" />
    <path
       style="fill:none;fill-opacity:0.75;fill-rule:evenodd;stroke:black;stroke-width:5;stroke-linecap:butt;stroke-linejoin:miter;marker-mid:none;marker-end:url(#Arrow1Mend);stroke-miterlimit:4;stroke-dasharray:none;stroke-opacity:1"
       d="M 252.22994,951.34104 L 326.2679,951.34104"
       id="path2770" />
  </g>
</svg>
