<?xml version="1.0" encoding="UTF-8" standalone="no"?>
<!-- Created with Inkscape (http://www.inkscape.org/) -->
<svg
   xmlns:dc="http://purl.org/dc/elements/1.1/"
   xmlns:cc="http://web.resource.org/cc/"
   xmlns:rdf="http://www.w3.org/1999/02/22-rdf-syntax-ns#"
   xmlns:svg="http://www.w3.org/2000/svg"
   xmlns="http://www.w3.org/2000/svg"
   xmlns:sodipodi="http://inkscape.sourceforge.net/DTD/sodipodi-0.dtd"
   xmlns:inkscape="http://www.inkscape.org/namespaces/inkscape"
   width="744.09448819"
   height="1052.3622047"
   id="svg3267"
   sodipodi:version="0.32"
   inkscape:version="0.43"
   sodipodi:docbase="/home/chmbrlnd/Courses"
   sodipodi:docname="dices.svg">
  <defs
     id="defs3269" />
  <sodipodi:namedview
     id="base"
     pagecolor="#ffffff"
     bordercolor="#ffffff"
     borderopacity="0.0"
     inkscape:pageopacity="0.0"
     inkscape:pageshadow="0"
     inkscape:zoom="1"
     inkscape:cx="237.57197"
     inkscape:cy="86.62718"
     inkscape:document-units="px"
     inkscape:current-layer="layer1"
     showgrid="true"
     inkscape:window-width="713"
     inkscape:window-height="538"
     inkscape:window-x="322"
     inkscape:window-y="72" />
  <metadata
     id="metadata3272">
    <rdf:RDF>
      <cc:Work
         rdf:about="">
        <dc:format>image/svg+xml</dc:format>
        <dc:type
           rdf:resource="http://purl.org/dc/dcmitype/StillImage" />
      </cc:Work>
    </rdf:RDF>
  </metadata>
  <g
     inkscape:label="Layer 1"
     inkscape:groupmode="layer"
     id="layer1">
    <rect
       style="opacity:1;fill:#ffffff;fill-opacity:0;fill-rule:nonzero;stroke:#000000;stroke-width:2.5;stroke-linecap:round;stroke-linejoin:round;stroke-miterlimit:4;stroke-dasharray:none;stroke-dashoffset:0;stroke-opacity:1"
       id="rect2210"
       width="310.58591"
       height="223.0858"
       x="-11.073348"
       y="853.31927" />
    <g
       id="g4358">
      <path
         id="rect3542"
         d="M 95.814207,864.86606 C 95.279557,864.90649 94.755707,865.01824 94.251707,865.14731 C 94.215707,865.15653 94.162527,865.16891 94.126707,865.17856 C 90.293777,866.21112 87.501707,869.69808 87.501707,873.86606 L 87.501707,955.86606 C 87.501707,956.02187 87.493957,956.14974 87.501707,956.30356 L 87.501707,1055.866 C 87.501707,1060.852 91.515707,1064.866 96.501707,1064.866 L 178.50171,1064.866 C 183.48771,1064.866 187.50171,1060.852 187.50171,1055.866 L 187.50171,964.86606 L 278.50171,964.86606 C 283.48771,964.86606 287.50171,960.85206 287.50171,955.86606 L 287.50171,873.86606 C 287.50171,868.88006 283.48771,864.86606 278.50171,864.86606 L 179.18921,864.86606 L 96.501707,864.86606 C 96.267987,864.86606 96.043337,864.84873 95.814207,864.86606 z "
         style="fill:#ffffff;fill-opacity:0;fill-rule:nonzero;stroke:#000000;stroke-width:1.875;stroke-linecap:round;stroke-linejoin:round;stroke-miterlimit:4;stroke-dasharray:3.75,7.5;stroke-dashoffset:0;stroke-opacity:1" />
      <g
         id="g3640">
        <rect
           style="fill:#ffffff;fill-opacity:0;fill-rule:nonzero;stroke:#808080;stroke-width:2.5;stroke-linecap:round;stroke-linejoin:round;stroke-miterlimit:4;stroke-dasharray:none;stroke-dashoffset:0;stroke-opacity:1"
           id="rect3275"
           width="72.499931"
           height="72.499947"
           x="1.2500342"
           y="978.61218"
           ry="10" />
        <rect
           style="fill:#ffffff;fill-opacity:0;fill-rule:nonzero;stroke:#808080;stroke-width:2.5;stroke-linecap:round;stroke-linejoin:round;stroke-miterlimit:4;stroke-dasharray:none;stroke-dashoffset:0;stroke-opacity:1"
           id="rect3364"
           width="72.499931"
           height="72.499947"
           x="201.25003"
           y="978.61218"
           ry="10" />
        <rect
           style="fill:#ffffff;fill-opacity:0;fill-rule:nonzero;stroke:#808080;stroke-width:2.5;stroke-linecap:round;stroke-linejoin:round;stroke-miterlimit:4;stroke-dasharray:none;stroke-dashoffset:0;stroke-opacity:1"
           id="rect3408"
           width="72.499931"
           height="72.499947"
           x="1.25"
           y="878.61224"
           ry="10" />
        <rect
           style="fill:#ffffff;fill-opacity:0;fill-rule:nonzero;stroke:#808080;stroke-width:2.5;stroke-linecap:round;stroke-linejoin:round;stroke-miterlimit:4;stroke-dasharray:none;stroke-dashoffset:0;stroke-opacity:1"
           id="rect3342"
           width="72.499931"
           height="72.499947"
           x="101.25001"
           y="978.61218"
           ry="10" />
        <rect
           style="fill:#ffffff;fill-opacity:0;fill-rule:nonzero;stroke:#808080;stroke-width:2.5;stroke-linecap:round;stroke-linejoin:round;stroke-miterlimit:4;stroke-dasharray:none;stroke-dashoffset:0;stroke-opacity:1"
           id="rect3386"
           width="72.499931"
           height="72.499947"
           x="101.25001"
           y="878.61224"
           ry="10" />
        <rect
           style="fill:#ffffff;fill-opacity:0;fill-rule:nonzero;stroke:#808080;stroke-width:2.5;stroke-linecap:round;stroke-linejoin:round;stroke-miterlimit:4;stroke-dasharray:none;stroke-dashoffset:0;stroke-opacity:1"
           id="rect3430"
           width="72.499931"
           height="72.499947"
           x="201.25003"
           y="878.61224"
           ry="10" />
        <path
           sodipodi:type="arc"
           style="fill:#6060e0;fill-opacity:1;fill-rule:nonzero;stroke:#000000;stroke-width:0;stroke-linecap:round;stroke-linejoin:round;stroke-miterlimit:4;stroke-dasharray:none;stroke-dashoffset:0;stroke-opacity:1"
           id="path3280"
           sodipodi:cx="109"
           sodipodi:cy="912.86218"
           sodipodi:rx="16"
           sodipodi:ry="11.5"
           d="M 125 912.86218 A 16 11.5 0 1 1  93,912.86218 A 16 11.5 0 1 1  125 912.86218 z"
           transform="matrix(0.46875,0,0,0.652174,-33.59375,439.5172)" />
        <path
           sodipodi:type="arc"
           style="fill:#6060e0;fill-opacity:1;fill-rule:nonzero;stroke:#000000;stroke-width:0;stroke-linecap:round;stroke-linejoin:round;stroke-miterlimit:4;stroke-dasharray:none;stroke-dashoffset:0;stroke-opacity:1"
           id="path3284"
           sodipodi:cx="109"
           sodipodi:cy="912.86218"
           sodipodi:rx="16"
           sodipodi:ry="11.5"
           d="M 125 912.86218 A 16 11.5 0 1 1  93,912.86218 A 16 11.5 0 1 1  125 912.86218 z"
           transform="matrix(0.46875,0,0,0.652174,-33.59375,399.5172)" />
        <path
           sodipodi:type="arc"
           style="fill:#6060e0;fill-opacity:1;fill-rule:nonzero;stroke:#000000;stroke-width:0;stroke-linecap:round;stroke-linejoin:round;stroke-miterlimit:4;stroke-dasharray:none;stroke-dashoffset:0;stroke-opacity:1"
           id="path3302"
           sodipodi:cx="109"
           sodipodi:cy="912.86218"
           sodipodi:rx="16"
           sodipodi:ry="11.5"
           d="M 125 912.86218 A 16 11.5 0 1 1  93,912.86218 A 16 11.5 0 1 1  125 912.86218 z"
           transform="matrix(0.46875,0,0,0.652174,6.40625,439.5172)" />
        <path
           sodipodi:type="arc"
           style="fill:#6060e0;fill-opacity:1;fill-rule:nonzero;stroke:#000000;stroke-width:0;stroke-linecap:round;stroke-linejoin:round;stroke-miterlimit:4;stroke-dasharray:none;stroke-dashoffset:0;stroke-opacity:1"
           id="path3306"
           sodipodi:cx="109"
           sodipodi:cy="912.86218"
           sodipodi:rx="16"
           sodipodi:ry="11.5"
           d="M 125 912.86218 A 16 11.5 0 1 1  93,912.86218 A 16 11.5 0 1 1  125 912.86218 z"
           transform="matrix(0.46875,0,0,0.652174,6.40625,399.5172)" />
        <path
           sodipodi:type="arc"
           style="fill:#6060e0;fill-opacity:1;fill-rule:nonzero;stroke:#000000;stroke-width:0;stroke-linecap:round;stroke-linejoin:round;stroke-miterlimit:4;stroke-dasharray:none;stroke-dashoffset:0;stroke-opacity:1"
           id="path3344"
           sodipodi:cx="109"
           sodipodi:cy="912.86218"
           sodipodi:rx="16"
           sodipodi:ry="11.5"
           d="M 125 912.86218 A 16 11.5 0 1 1  93,912.86218 A 16 11.5 0 1 1  125 912.86218 z"
           transform="matrix(0.46875,0,0,0.652174,66.40622,439.5172)" />
        <path
           sodipodi:type="arc"
           style="fill:#6060e0;fill-opacity:1;fill-rule:nonzero;stroke:#000000;stroke-width:0;stroke-linecap:round;stroke-linejoin:round;stroke-miterlimit:4;stroke-dasharray:none;stroke-dashoffset:0;stroke-opacity:1"
           id="path3348"
           sodipodi:cx="109"
           sodipodi:cy="912.86218"
           sodipodi:rx="16"
           sodipodi:ry="11.5"
           d="M 125 912.86218 A 16 11.5 0 1 1  93,912.86218 A 16 11.5 0 1 1  125 912.86218 z"
           transform="matrix(0.46875,0,0,0.652174,66.40622,399.5172)" />
        <path
           sodipodi:type="arc"
           style="fill:#6060e0;fill-opacity:1;fill-rule:nonzero;stroke:#000000;stroke-width:0;stroke-linecap:round;stroke-linejoin:round;stroke-miterlimit:4;stroke-dasharray:none;stroke-dashoffset:0;stroke-opacity:1"
           id="path3352"
           sodipodi:cx="109"
           sodipodi:cy="912.86218"
           sodipodi:rx="16"
           sodipodi:ry="11.5"
           d="M 125 912.86218 A 16 11.5 0 1 1  93,912.86218 A 16 11.5 0 1 1  125 912.86218 z"
           transform="matrix(0.46875,0,0,0.652174,86.40622,419.5172)" />
        <path
           sodipodi:type="arc"
           style="fill:#6060e0;fill-opacity:1;fill-rule:nonzero;stroke:#000000;stroke-width:0;stroke-linecap:round;stroke-linejoin:round;stroke-miterlimit:4;stroke-dasharray:none;stroke-dashoffset:0;stroke-opacity:1"
           id="path3356"
           sodipodi:cx="109"
           sodipodi:cy="912.86218"
           sodipodi:rx="16"
           sodipodi:ry="11.5"
           d="M 125 912.86218 A 16 11.5 0 1 1  93,912.86218 A 16 11.5 0 1 1  125 912.86218 z"
           transform="matrix(0.46875,0,0,0.652174,106.4062,439.5172)" />
        <path
           sodipodi:type="arc"
           style="fill:#6060e0;fill-opacity:1;fill-rule:nonzero;stroke:#000000;stroke-width:0;stroke-linecap:round;stroke-linejoin:round;stroke-miterlimit:4;stroke-dasharray:none;stroke-dashoffset:0;stroke-opacity:1"
           id="path3360"
           sodipodi:cx="109"
           sodipodi:cy="912.86218"
           sodipodi:rx="16"
           sodipodi:ry="11.5"
           d="M 125 912.86218 A 16 11.5 0 1 1  93,912.86218 A 16 11.5 0 1 1  125 912.86218 z"
           transform="matrix(0.46875,0,0,0.652174,106.4062,399.5172)" />
        <path
           sodipodi:type="arc"
           style="fill:#6060e0;fill-opacity:1;fill-rule:nonzero;stroke:#000000;stroke-width:0;stroke-linecap:round;stroke-linejoin:round;stroke-miterlimit:4;stroke-dasharray:none;stroke-dashoffset:0;stroke-opacity:1"
           id="path3366"
           sodipodi:cx="109"
           sodipodi:cy="912.86218"
           sodipodi:rx="16"
           sodipodi:ry="11.5"
           d="M 125 912.86218 A 16 11.5 0 1 1  93,912.86218 A 16 11.5 0 1 1  125 912.86218 z"
           transform="matrix(0.46875,0,0,0.652174,166.4062,439.5172)" />
        <path
           sodipodi:type="arc"
           style="fill:#6060e0;fill-opacity:1;fill-rule:nonzero;stroke:#000000;stroke-width:0;stroke-linecap:round;stroke-linejoin:round;stroke-miterlimit:4;stroke-dasharray:none;stroke-dashoffset:0;stroke-opacity:1"
           id="path3368"
           sodipodi:cx="109"
           sodipodi:cy="912.86218"
           sodipodi:rx="16"
           sodipodi:ry="11.5"
           d="M 125 912.86218 A 16 11.5 0 1 1  93,912.86218 A 16 11.5 0 1 1  125 912.86218 z"
           transform="matrix(0.46875,0,0,0.652174,166.4062,419.5172)" />
        <path
           sodipodi:type="arc"
           style="fill:#6060e0;fill-opacity:1;fill-rule:nonzero;stroke:#000000;stroke-width:0;stroke-linecap:round;stroke-linejoin:round;stroke-miterlimit:4;stroke-dasharray:none;stroke-dashoffset:0;stroke-opacity:1"
           id="path3370"
           sodipodi:cx="109"
           sodipodi:cy="912.86218"
           sodipodi:rx="16"
           sodipodi:ry="11.5"
           d="M 125 912.86218 A 16 11.5 0 1 1  93,912.86218 A 16 11.5 0 1 1  125 912.86218 z"
           transform="matrix(0.46875,0,0,0.652174,166.4062,399.5172)" />
        <path
           sodipodi:type="arc"
           style="fill:#6060e0;fill-opacity:1;fill-rule:nonzero;stroke:#000000;stroke-width:0;stroke-linecap:round;stroke-linejoin:round;stroke-miterlimit:4;stroke-dasharray:none;stroke-dashoffset:0;stroke-opacity:1"
           id="path3378"
           sodipodi:cx="109"
           sodipodi:cy="912.86218"
           sodipodi:rx="16"
           sodipodi:ry="11.5"
           d="M 125 912.86218 A 16 11.5 0 1 1  93,912.86218 A 16 11.5 0 1 1  125 912.86218 z"
           transform="matrix(0.46875,0,0,0.652174,206.4062,439.5172)" />
        <path
           sodipodi:type="arc"
           style="fill:#6060e0;fill-opacity:1;fill-rule:nonzero;stroke:#000000;stroke-width:0;stroke-linecap:round;stroke-linejoin:round;stroke-miterlimit:4;stroke-dasharray:none;stroke-dashoffset:0;stroke-opacity:1"
           id="path3380"
           sodipodi:cx="109"
           sodipodi:cy="912.86218"
           sodipodi:rx="16"
           sodipodi:ry="11.5"
           d="M 125 912.86218 A 16 11.5 0 1 1  93,912.86218 A 16 11.5 0 1 1  125 912.86218 z"
           transform="matrix(0.46875,0,0,0.652174,206.4062,419.5172)" />
        <path
           sodipodi:type="arc"
           style="fill:#6060e0;fill-opacity:1;fill-rule:nonzero;stroke:#000000;stroke-width:0;stroke-linecap:round;stroke-linejoin:round;stroke-miterlimit:4;stroke-dasharray:none;stroke-dashoffset:0;stroke-opacity:1"
           id="path3382"
           sodipodi:cx="109"
           sodipodi:cy="912.86218"
           sodipodi:rx="16"
           sodipodi:ry="11.5"
           d="M 125 912.86218 A 16 11.5 0 1 1  93,912.86218 A 16 11.5 0 1 1  125 912.86218 z"
           transform="matrix(0.46875,0,0,0.652174,206.4062,399.5172)" />
        <path
           sodipodi:type="arc"
           style="fill:#6060e0;fill-opacity:1;fill-rule:nonzero;stroke:#000000;stroke-width:0;stroke-linecap:round;stroke-linejoin:round;stroke-miterlimit:4;stroke-dasharray:none;stroke-dashoffset:0;stroke-opacity:1"
           id="path3392"
           sodipodi:cx="109"
           sodipodi:cy="912.86218"
           sodipodi:rx="16"
           sodipodi:ry="11.5"
           d="M 125 912.86218 A 16 11.5 0 1 1  93,912.86218 A 16 11.5 0 1 1  125 912.86218 z"
           transform="matrix(0.46875,0,0,0.652174,66.40622,299.5172)" />
        <path
           sodipodi:type="arc"
           style="fill:#6060e0;fill-opacity:1;fill-rule:nonzero;stroke:#000000;stroke-width:0;stroke-linecap:round;stroke-linejoin:round;stroke-miterlimit:4;stroke-dasharray:none;stroke-dashoffset:0;stroke-opacity:1"
           id="path3400"
           sodipodi:cx="109"
           sodipodi:cy="912.86218"
           sodipodi:rx="16"
           sodipodi:ry="11.5"
           d="M 125 912.86218 A 16 11.5 0 1 1  93,912.86218 A 16 11.5 0 1 1  125 912.86218 z"
           transform="matrix(0.46875,0,0,0.652174,106.4062,339.5172)" />
        <path
           sodipodi:type="arc"
           style="fill:#6060e0;fill-opacity:1;fill-rule:nonzero;stroke:#000000;stroke-width:0;stroke-linecap:round;stroke-linejoin:round;stroke-miterlimit:4;stroke-dasharray:none;stroke-dashoffset:0;stroke-opacity:1"
           id="path3418"
           sodipodi:cx="109"
           sodipodi:cy="912.86218"
           sodipodi:rx="16"
           sodipodi:ry="11.5"
           d="M 125 912.86218 A 16 11.5 0 1 1  93,912.86218 A 16 11.5 0 1 1  125 912.86218 z"
           transform="matrix(0.46875,0,0,0.652174,-13.59378,319.5172)" />
        <path
           sodipodi:type="arc"
           style="fill:#6060e0;fill-opacity:1;fill-rule:nonzero;stroke:#000000;stroke-width:0;stroke-linecap:round;stroke-linejoin:round;stroke-miterlimit:4;stroke-dasharray:none;stroke-dashoffset:0;stroke-opacity:1"
           id="path3436"
           sodipodi:cx="109"
           sodipodi:cy="912.86218"
           sodipodi:rx="16"
           sodipodi:ry="11.5"
           d="M 125 912.86218 A 16 11.5 0 1 1  93,912.86218 A 16 11.5 0 1 1  125 912.86218 z"
           transform="matrix(0.46875,0,0,0.652174,166.4062,299.5172)" />
        <path
           sodipodi:type="arc"
           style="fill:#6060e0;fill-opacity:1;fill-rule:nonzero;stroke:#000000;stroke-width:0;stroke-linecap:round;stroke-linejoin:round;stroke-miterlimit:4;stroke-dasharray:none;stroke-dashoffset:0;stroke-opacity:1"
           id="path3440"
           sodipodi:cx="109"
           sodipodi:cy="912.86218"
           sodipodi:rx="16"
           sodipodi:ry="11.5"
           d="M 125 912.86218 A 16 11.5 0 1 1  93,912.86218 A 16 11.5 0 1 1  125 912.86218 z"
           transform="matrix(0.46875,0,0,0.652174,186.4062,319.5172)" />
        <path
           sodipodi:type="arc"
           style="fill:#6060e0;fill-opacity:1;fill-rule:nonzero;stroke:#000000;stroke-width:0;stroke-linecap:round;stroke-linejoin:round;stroke-miterlimit:4;stroke-dasharray:none;stroke-dashoffset:0;stroke-opacity:1"
           id="path3444"
           sodipodi:cx="109"
           sodipodi:cy="912.86218"
           sodipodi:rx="16"
           sodipodi:ry="11.5"
           d="M 125 912.86218 A 16 11.5 0 1 1  93,912.86218 A 16 11.5 0 1 1  125 912.86218 z"
           transform="matrix(0.46875,0,0,0.652174,206.4062,339.5172)" />
      </g>
    </g>
  </g>
</svg>
