<?xml version="1.0" encoding="UTF-8" standalone="no"?>
<!-- Created with Inkscape (http://www.inkscape.org/) -->
<svg
   xmlns:dc="http://purl.org/dc/elements/1.1/"
   xmlns:cc="http://web.resource.org/cc/"
   xmlns:rdf="http://www.w3.org/1999/02/22-rdf-syntax-ns#"
   xmlns:svg="http://www.w3.org/2000/svg"
   xmlns="http://www.w3.org/2000/svg"
   xmlns:sodipodi="http://inkscape.sourceforge.net/DTD/sodipodi-0.dtd"
   xmlns:inkscape="http://www.inkscape.org/namespaces/inkscape"
   width="744.09448819"
   height="1052.3622047"
   id="svg1498"
   sodipodi:version="0.32"
   inkscape:version="0.43"
   sodipodi:docbase="/usr/home/chmbrlnd/Courses"
   sodipodi:docname="intervals.svg"
   inkscape:export-filename="/usr/home/chmbrlnd/Courses/intervals.png"
   inkscape:export-xdpi="90"
   inkscape:export-ydpi="90">
  <defs
     id="defs1500">
    <marker
       inkscape:stockid="Arrow1Mend"
       orient="auto"
       refY="0.0"
       refX="0.0"
       id="Arrow1Mend"
       style="overflow:visible;">
      <path
         id="path2545"
         d="M 0.0,0.0 L 5.0,-5.0 L -12.5,0.0 L 5.0,5.0 L 0.0,0.0 z "
         style="fill-rule:evenodd;stroke:#000000;stroke-width:1.0pt;marker-start:none;"
         transform="scale(0.4) rotate(180)" />
    </marker>
  </defs>
  <sodipodi:namedview
     id="base"
     pagecolor="#ffffff"
     bordercolor="#ffffff"
     borderopacity="0.0"
     inkscape:pageopacity="0.0"
     inkscape:pageshadow="0"
     inkscape:zoom="1"
     inkscape:cx="251.47198"
     inkscape:cy="27.009289"
     inkscape:document-units="px"
     inkscape:current-layer="layer1"
     showgrid="true"
     inkscape:window-width="779"
     inkscape:window-height="556"
     inkscape:window-x="126"
     inkscape:window-y="46" />
  <metadata
     id="metadata1503">
    <rdf:RDF>
      <cc:Work
         rdf:about="">
        <dc:format>image/svg+xml</dc:format>
        <dc:type
           rdf:resource="http://purl.org/dc/dcmitype/StillImage" />
      </cc:Work>
    </rdf:RDF>
  </metadata>
  <g
     inkscape:label="Layer 1"
     inkscape:groupmode="layer"
     id="layer1">
    <path
       style="opacity:1;fill:#e0a0a0;fill-opacity:1;fill-rule:nonzero;stroke:#400000;stroke-width:1;stroke-linecap:round;stroke-linejoin:round;stroke-miterlimit:4;stroke-dasharray:none;stroke-dashoffset:0;stroke-opacity:1"
       d="M 64.375,1001.8622 C 51.05345,1002.4491 40.5,1013.3909 40.5,1026.8622 C 40.5,1040.604 51.48804,1051.6898 65.1875,1051.8622 L 114.5,1051.8622 L 114.8125,1051.8622 C 128.51196,1051.6899 139.5,1040.604 139.5,1026.8622 C 139.5,1013.3909 128.94656,1002.4491 115.625,1001.8622 L 114.5,1001.8622 L 64.375,1001.8622 z "
       id="path2751" />
    <path
       style="opacity:1;fill:#a0e0a0;fill-opacity:1;fill-rule:nonzero;stroke:#004000;stroke-width:1;stroke-linecap:round;stroke-linejoin:round;stroke-miterlimit:4;stroke-dasharray:none;stroke-dashoffset:0;stroke-opacity:1"
       d="M 364.37513,1001.8622 C 351.05358,1002.4491 340.50013,1013.3909 340.50013,1026.8622 C 340.50013,1040.604 351.48817,1051.6898 365.18763,1051.8622 L 414.50013,1051.8622 L 414.81263,1051.8622 C 428.51209,1051.6898 439.50013,1040.604 439.50013,1026.8622 C 439.50013,1013.3909 428.94669,1002.4491 415.62513,1001.8622 L 414.50013,1001.8622 L 364.37513,1001.8622 z "
       id="rect2746" />
    <text
       xml:space="preserve"
       style="font-size:18px;font-style:normal;font-variant:normal;font-weight:normal;font-stretch:normal;text-align:start;line-height:125%;writing-mode:lr-tb;text-anchor:start;fill:#000000;fill-opacity:1;stroke:none;stroke-width:1px;stroke-linecap:butt;stroke-linejoin:miter;stroke-opacity:1;font-family:Bitstream Vera Sans"
       x="38.62891"
       y="1077.6073"
       id="text2686"
       sodipodi:linespacing="125%"><tspan
         sodipodi:role="line"
         id="tspan2688"
         x="38.62891"
         y="1077.6073">0</tspan></text>
    <path
       sodipodi:type="arc"
       style="opacity:1;fill:#000000;fill-opacity:1;fill-rule:nonzero;stroke:#808080;stroke-width:0;stroke-linecap:round;stroke-linejoin:round;stroke-miterlimit:4;stroke-dasharray:none;stroke-dashoffset:0;stroke-opacity:1"
       id="path2591"
       sodipodi:cx="278"
       sodipodi:cy="846.86218"
       sodipodi:rx="6"
       sodipodi:ry="4.5"
       d="M 284 846.86218 A 6 4.5 0 1 1  272,846.86218 A 6 4.5 0 1 1  284 846.86218 z"
       transform="matrix(0.416667,0,0,0.555556,428.5,556.3828)" />
    <path
       sodipodi:type="arc"
       style="opacity:1;fill:#000000;fill-opacity:1;fill-rule:nonzero;stroke:#808080;stroke-width:0;stroke-linecap:round;stroke-linejoin:round;stroke-miterlimit:4;stroke-dasharray:none;stroke-dashoffset:0;stroke-opacity:1"
       id="path2593"
       sodipodi:cx="278"
       sodipodi:cy="846.86218"
       sodipodi:rx="6"
       sodipodi:ry="4.5"
       d="M 284 846.86218 A 6 4.5 0 1 1  272,846.86218 A 6 4.5 0 1 1  284 846.86218 z"
       transform="matrix(0.416667,0,0,0.555556,451.6666,556.3828)" />
    <path
       sodipodi:type="arc"
       style="opacity:1;fill:#000000;fill-opacity:1;fill-rule:nonzero;stroke:#808080;stroke-width:0;stroke-linecap:round;stroke-linejoin:round;stroke-miterlimit:4;stroke-dasharray:none;stroke-dashoffset:0;stroke-opacity:1"
       id="path2595"
       sodipodi:cx="278"
       sodipodi:cy="846.86218"
       sodipodi:rx="6"
       sodipodi:ry="4.5"
       d="M 284 846.86218 A 6 4.5 0 1 1  272,846.86218 A 6 4.5 0 1 1  284 846.86218 z"
       transform="matrix(0.416667,0,0,0.555556,440.0833,556.3828)" />
    <path
       sodipodi:type="arc"
       style="opacity:1;fill:#000000;fill-opacity:1;fill-rule:nonzero;stroke:#808080;stroke-width:0;stroke-linecap:round;stroke-linejoin:round;stroke-miterlimit:4;stroke-dasharray:none;stroke-dashoffset:0;stroke-opacity:1"
       id="path2690"
       sodipodi:cx="278"
       sodipodi:cy="846.86218"
       sodipodi:rx="6"
       sodipodi:ry="4.5"
       d="M 284 846.86218 A 6 4.5 0 1 1  272,846.86218 A 6 4.5 0 1 1  284 846.86218 z"
       transform="matrix(0.416667,0,0,0.555556,-148.3334,556.3828)" />
    <path
       sodipodi:type="arc"
       style="opacity:1;fill:#000000;fill-opacity:1;fill-rule:nonzero;stroke:#808080;stroke-width:0;stroke-linecap:round;stroke-linejoin:round;stroke-miterlimit:4;stroke-dasharray:none;stroke-dashoffset:0;stroke-opacity:1"
       id="path2692"
       sodipodi:cx="278"
       sodipodi:cy="846.86218"
       sodipodi:rx="6"
       sodipodi:ry="4.5"
       d="M 284 846.86218 A 6 4.5 0 1 1  272,846.86218 A 6 4.5 0 1 1  284 846.86218 z"
       transform="matrix(0.416667,0,0,0.555556,-125.1667,556.3828)" />
    <path
       sodipodi:type="arc"
       style="opacity:1;fill:#000000;fill-opacity:1;fill-rule:nonzero;stroke:#808080;stroke-width:0;stroke-linecap:round;stroke-linejoin:round;stroke-miterlimit:4;stroke-dasharray:none;stroke-dashoffset:0;stroke-opacity:1"
       id="path2694"
       sodipodi:cx="278"
       sodipodi:cy="846.86218"
       sodipodi:rx="6"
       sodipodi:ry="4.5"
       d="M 284 846.86218 A 6 4.5 0 1 1  272,846.86218 A 6 4.5 0 1 1  284 846.86218 z"
       transform="matrix(0.416667,0,0,0.555556,-136.7501,556.3828)" />
    <path
       style="fill:none;fill-opacity:0.75;fill-rule:evenodd;stroke:#000000;stroke-width:5.00000525;stroke-linecap:round;stroke-linejoin:miter;marker-start:none;marker-end:none;stroke-miterlimit:4;stroke-dasharray:none;stroke-opacity:1"
       d="M 1.5000026,1026.8622 L 531.99999,1026.8622"
       id="path2379" />
    <text
       xml:space="preserve"
       style="font-size:18px;font-style:normal;font-variant:normal;font-weight:normal;font-stretch:normal;text-align:start;line-height:125%;writing-mode:lr-tb;text-anchor:start;fill:#000000;fill-opacity:1;stroke:none;stroke-width:1px;stroke-linecap:butt;stroke-linejoin:miter;stroke-opacity:1;font-family:Bitstream Vera Sans"
       x="430.20898"
       y="1077.6161"
       id="text2713"
       sodipodi:linespacing="125%"><tspan
         sodipodi:role="line"
         id="tspan2715"
         x="430.20898"
         y="1077.6161">1</tspan></text>
    <path
       style="fill:none;fill-opacity:0.75;fill-rule:evenodd;stroke:#000000;stroke-width:5.00053072;stroke-linecap:round;stroke-linejoin:miter;stroke-miterlimit:4;stroke-dasharray:none;stroke-opacity:1"
       d="M 423.50039,1051.8621 C 423.50039,1051.8621 437.49986,1044.5486 437.49986,1026.8621 C 437.49986,1010.1955 423.50039,1001.8623 423.50039,1001.8623"
       id="path2738"
       sodipodi:nodetypes="csc" />
    <path
       style="fill:none;fill-opacity:0.75;fill-rule:evenodd;stroke:#000000;stroke-width:5.00053072;stroke-linecap:round;stroke-linejoin:miter;stroke-miterlimit:4;stroke-dasharray:none;stroke-opacity:1"
       d="M 56.49974,1051.8621 C 56.49974,1051.8621 42.500265,1044.5486 42.500265,1026.8621 C 42.500265,1010.1955 56.49974,1001.8623 56.49974,1001.8623"
       id="path2744"
       sodipodi:nodetypes="csc" />
    <path
       style="fill:none;fill-opacity:0.75;fill-rule:evenodd;stroke:#000000;stroke-width:5.00053072;stroke-linecap:round;stroke-linejoin:miter;stroke-miterlimit:4;stroke-dasharray:none;stroke-opacity:1"
       d="M 123.50026,1051.8621 C 123.50026,1051.8621 137.49973,1044.5486 137.49973,1026.8621 C 137.49973,1010.1955 123.50026,1001.8623 123.50026,1001.8623"
       id="path2753"
       sodipodi:nodetypes="csc" />
    <path
       style="fill:none;fill-opacity:0.75;fill-rule:evenodd;stroke:#000000;stroke-width:5.00053072;stroke-linecap:round;stroke-linejoin:miter;stroke-miterlimit:4;stroke-dasharray:none;stroke-opacity:1"
       d="M 356.49988,1051.8621 C 356.49988,1051.8621 342.5004,1044.5486 342.5004,1026.8621 C 342.5004,1010.1955 356.49988,1001.8623 356.49988,1001.8623"
       id="path2755"
       sodipodi:nodetypes="csc" />
    <text
       xml:space="preserve"
       style="font-size:18px;font-style:normal;font-variant:normal;font-weight:normal;font-stretch:normal;text-align:start;line-height:125%;writing-mode:lr-tb;text-anchor:start;fill:#000000;fill-opacity:1;stroke:none;stroke-width:1px;stroke-linecap:butt;stroke-linejoin:miter;stroke-opacity:1;font-family:Bitstream Vera Sans"
       x="110.64111"
       y="1077.6073"
       id="text2757"
       sodipodi:linespacing="125%"><tspan
         sodipodi:role="line"
         x="110.64111"
         y="1077.6073"
         id="tspan2765">0.25</tspan></text>
    <text
       xml:space="preserve"
       style="font-size:18px;font-style:normal;font-variant:normal;font-weight:normal;font-stretch:normal;text-align:start;line-height:125%;writing-mode:lr-tb;text-anchor:start;fill:#000000;fill-opacity:1;stroke:none;stroke-width:1px;stroke-linecap:butt;stroke-linejoin:miter;stroke-opacity:1;font-family:Bitstream Vera Sans"
       x="329.64127"
       y="1077.6073"
       id="text2761"
       sodipodi:linespacing="125%"><tspan
         sodipodi:role="line"
         id="tspan2763"
         x="329.64127"
         y="1077.6073">0.75</tspan></text>
  </g>
</svg>
