<?xml version="1.0" encoding="UTF-8" standalone="no"?>
<!-- Created with Inkscape (http://www.inkscape.org/) -->
<svg
   xmlns:dc="http://purl.org/dc/elements/1.1/"
   xmlns:cc="http://web.resource.org/cc/"
   xmlns:rdf="http://www.w3.org/1999/02/22-rdf-syntax-ns#"
   xmlns:svg="http://www.w3.org/2000/svg"
   xmlns="http://www.w3.org/2000/svg"
   xmlns:sodipodi="http://sodipodi.sourceforge.net/DTD/sodipodi-0.dtd"
   xmlns:inkscape="http://www.inkscape.org/namespaces/inkscape"
   width="744.09448819"
   height="1052.3622047"
   id="svg1498"
   sodipodi:version="0.32"
   inkscape:version="0.45.1"
   sodipodi:docbase="/Users/chmbrlnd/Desktop/FREDsvn/EduDocs/Probability/Figures/2Chapter"
   sodipodi:docname="lineintervals.svg"
   inkscape:export-filename="/usr/home/chmbrlnd/Courses/lineintervals.png"
   inkscape:export-xdpi="90"
   inkscape:export-ydpi="90"
   inkscape:output_extension="org.inkscape.output.svg.inkscape">
  <defs
     id="defs1500">
    <marker
       inkscape:stockid="Arrow1Mend"
       orient="auto"
       refY="0.0"
       refX="0.0"
       id="Arrow1Mend"
       style="overflow:visible;">
      <path
         id="path2545"
         d="M 0.0,0.0 L 5.0,-5.0 L -12.5,0.0 L 5.0,5.0 L 0.0,0.0 z "
         style="fill-rule:evenodd;stroke:#000000;stroke-width:1.0pt;marker-start:none;"
         transform="scale(0.4) rotate(180)" />
    </marker>
  </defs>
  <sodipodi:namedview
     id="base"
     pagecolor="#ffffff"
     bordercolor="#ffffff"
     borderopacity="0.0"
     inkscape:pageopacity="0.0"
     inkscape:pageshadow="0"
     inkscape:zoom="1"
     inkscape:cx="255.79568"
     inkscape:cy="124.98432"
     inkscape:document-units="px"
     inkscape:current-layer="layer1"
     showgrid="true"
     inkscape:window-width="779"
     inkscape:window-height="581"
     inkscape:window-x="126"
     inkscape:window-y="46" />
  <metadata
     id="metadata1503">
    <rdf:RDF>
      <cc:Work
         rdf:about="">
        <dc:format>image/svg+xml</dc:format>
        <dc:type
           rdf:resource="http://purl.org/dc/dcmitype/StillImage" />
      </cc:Work>
    </rdf:RDF>
  </metadata>
  <g
     inkscape:label="Layer 1"
     inkscape:groupmode="layer"
     id="layer1">
    <g
       id="g3194"
       transform="translate(0,29.99981)">
      <path
         id="path3143"
         d="M 63.906225,901.86377 C 50.805965,902.68257 40.499975,913.55037 40.499975,926.86377 C 40.499975,940.60557 51.488015,951.69137 65.187475,951.86377 L 90.031225,951.86377 L 114.49997,951.86377 L 114.96872,951.86377 L 139.49997,951.86377 L 139.81247,951.86377 C 153.51193,951.69137 164.49997,940.60557 164.49997,926.86377 C 164.49997,913.39247 153.94653,902.45067 140.62497,901.86377 L 139.49997,901.86377 L 116.09372,901.86377 L 114.49997,901.86377 L 88.906225,901.86377 L 64.374975,901.86377 C 64.218865,901.87067 64.061565,901.85407 63.906225,901.86377 z "
         style="fill:#a0e0e0;fill-opacity:1;fill-rule:nonzero;stroke:#004040;stroke-width:1;stroke-linecap:round;stroke-linejoin:round;stroke-miterlimit:4;stroke-dasharray:none;stroke-dashoffset:0;stroke-opacity:1" />
      <path
         id="path3134"
         d="M 213.90635,901.8635 C 200.80609,902.6823 190.5001,913.5501 190.5001,926.8635 C 190.5001,940.6053 201.48814,951.6911 215.1876,951.8635 L 264.5001,951.8635 L 264.8126,951.8635 C 264.86611,951.8628 264.91542,951.8645 264.96885,951.8635 C 264.98939,951.8639 265.0108,951.8631 265.03135,951.8635 C 265.08478,951.8645 265.13409,951.8628 265.1876,951.8635 L 314.5001,951.8635 L 314.8126,951.8635 C 314.86611,951.8628 314.91542,951.8645 314.96885,951.8635 C 315.04279,951.8651 315.1135,951.8626 315.1876,951.8635 L 364.5001,951.8635 L 364.8126,951.8635 C 364.86611,951.8628 364.91542,951.8645 364.96885,951.8635 C 365.04279,951.8651 365.1135,951.8626 365.1876,951.8635 L 414.5001,951.8635 L 414.8126,951.8635 C 428.51206,951.6911 439.5001,940.6053 439.5001,926.8635 C 439.5001,913.3922 428.94666,902.4504 415.6251,901.8635 L 414.5001,901.8635 L 364.5001,901.8635 L 314.5001,901.8635 L 266.09385,901.8635 L 264.5001,901.8635 L 263.90635,901.8635 L 214.3751,901.8635 C 214.21899,901.8704 214.06169,901.8538 213.90635,901.8635 z "
         style="fill:#a0e0e0;fill-opacity:1;fill-rule:nonzero;stroke:#004040;stroke-width:1;stroke-linecap:round;stroke-linejoin:round;stroke-miterlimit:4;stroke-dasharray:none;stroke-dashoffset:0;stroke-opacity:1" />
      <path
         transform="matrix(0.416667,0,0,0.555556,428.5,456.3828)"
         d="M 284 846.86218 A 6 4.5 0 1 1  272,846.86218 A 6 4.5 0 1 1  284 846.86218 z"
         sodipodi:ry="4.5"
         sodipodi:rx="6"
         sodipodi:cy="846.86218"
         sodipodi:cx="278"
         id="path2891"
         style="fill:#000000;fill-opacity:1;fill-rule:nonzero;stroke:#808080;stroke-width:0;stroke-linecap:round;stroke-linejoin:round;stroke-miterlimit:4;stroke-dasharray:none;stroke-dashoffset:0;stroke-opacity:1"
         sodipodi:type="arc" />
      <path
         transform="matrix(0.416667,0,0,0.555556,451.6666,456.3828)"
         d="M 284 846.86218 A 6 4.5 0 1 1  272,846.86218 A 6 4.5 0 1 1  284 846.86218 z"
         sodipodi:ry="4.5"
         sodipodi:rx="6"
         sodipodi:cy="846.86218"
         sodipodi:cx="278"
         id="path2893"
         style="fill:#000000;fill-opacity:1;fill-rule:nonzero;stroke:#808080;stroke-width:0;stroke-linecap:round;stroke-linejoin:round;stroke-miterlimit:4;stroke-dasharray:none;stroke-dashoffset:0;stroke-opacity:1"
         sodipodi:type="arc" />
      <path
         transform="matrix(0.416667,0,0,0.555556,440.0833,456.3828)"
         d="M 284 846.86218 A 6 4.5 0 1 1  272,846.86218 A 6 4.5 0 1 1  284 846.86218 z"
         sodipodi:ry="4.5"
         sodipodi:rx="6"
         sodipodi:cy="846.86218"
         sodipodi:cx="278"
         id="path2895"
         style="fill:#000000;fill-opacity:1;fill-rule:nonzero;stroke:#808080;stroke-width:0;stroke-linecap:round;stroke-linejoin:round;stroke-miterlimit:4;stroke-dasharray:none;stroke-dashoffset:0;stroke-opacity:1"
         sodipodi:type="arc" />
      <path
         transform="matrix(0.416667,0,0,0.555556,-148.3334,456.3828)"
         d="M 284 846.86218 A 6 4.5 0 1 1  272,846.86218 A 6 4.5 0 1 1  284 846.86218 z"
         sodipodi:ry="4.5"
         sodipodi:rx="6"
         sodipodi:cy="846.86218"
         sodipodi:cx="278"
         id="path2897"
         style="fill:#000000;fill-opacity:1;fill-rule:nonzero;stroke:#808080;stroke-width:0;stroke-linecap:round;stroke-linejoin:round;stroke-miterlimit:4;stroke-dasharray:none;stroke-dashoffset:0;stroke-opacity:1"
         sodipodi:type="arc" />
      <path
         transform="matrix(0.416667,0,0,0.555556,-125.1667,456.3828)"
         d="M 284 846.86218 A 6 4.5 0 1 1  272,846.86218 A 6 4.5 0 1 1  284 846.86218 z"
         sodipodi:ry="4.5"
         sodipodi:rx="6"
         sodipodi:cy="846.86218"
         sodipodi:cx="278"
         id="path2899"
         style="fill:#000000;fill-opacity:1;fill-rule:nonzero;stroke:#808080;stroke-width:0;stroke-linecap:round;stroke-linejoin:round;stroke-miterlimit:4;stroke-dasharray:none;stroke-dashoffset:0;stroke-opacity:1"
         sodipodi:type="arc" />
      <path
         transform="matrix(0.416667,0,0,0.555556,-136.7501,456.3828)"
         d="M 284 846.86218 A 6 4.5 0 1 1  272,846.86218 A 6 4.5 0 1 1  284 846.86218 z"
         sodipodi:ry="4.5"
         sodipodi:rx="6"
         sodipodi:cy="846.86218"
         sodipodi:cx="278"
         id="path2901"
         style="fill:#000000;fill-opacity:1;fill-rule:nonzero;stroke:#808080;stroke-width:0;stroke-linecap:round;stroke-linejoin:round;stroke-miterlimit:4;stroke-dasharray:none;stroke-dashoffset:0;stroke-opacity:1"
         sodipodi:type="arc" />
      <path
         id="path2903"
         d="M 1.49998,926.86221 L 531.99996,926.86221"
         style="fill:none;fill-opacity:0.75;fill-rule:evenodd;stroke:#000000;stroke-width:5.00000525;stroke-linecap:round;stroke-linejoin:miter;marker-start:none;marker-end:none;stroke-miterlimit:4;stroke-dasharray:none;stroke-opacity:1" />
      <path
         sodipodi:nodetypes="csc"
         id="path2909"
         d="M 423.50036,951.86211 C 423.50036,951.86211 437.49983,944.54861 437.49983,926.86211 C 437.49983,910.19551 423.50036,901.86231 423.50036,901.86231"
         style="fill:none;fill-opacity:0.75;fill-rule:evenodd;stroke:#000000;stroke-width:5.00053072;stroke-linecap:round;stroke-linejoin:miter;stroke-miterlimit:4;stroke-dasharray:none;stroke-opacity:1" />
      <path
         sodipodi:nodetypes="csc"
         id="path2911"
         d="M 56.49971,951.86211 C 56.49971,951.86211 42.50024,944.54861 42.50024,926.86211 C 42.50024,910.19551 56.49971,901.86231 56.49971,901.86231"
         style="fill:none;fill-opacity:0.75;fill-rule:evenodd;stroke:#000000;stroke-width:5.00053072;stroke-linecap:round;stroke-linejoin:miter;stroke-miterlimit:4;stroke-dasharray:none;stroke-opacity:1" />
      <path
         sodipodi:nodetypes="csc"
         id="path2913"
         d="M 148.50023,951.86211 C 148.50023,951.86211 162.4997,944.54861 162.4997,926.86211 C 162.4997,910.19551 148.50023,901.86231 148.50023,901.86231"
         style="fill:none;fill-opacity:0.75;fill-rule:evenodd;stroke:#000000;stroke-width:5.00053072;stroke-linecap:round;stroke-linejoin:miter;stroke-miterlimit:4;stroke-dasharray:none;stroke-opacity:1" />
      <path
         sodipodi:nodetypes="csc"
         id="path2915"
         d="M 206.49985,951.86211 C 206.49985,951.86211 192.50037,944.54861 192.50037,926.86211 C 192.50037,910.19551 206.49985,901.86231 206.49985,901.86231"
         style="fill:none;fill-opacity:0.75;fill-rule:evenodd;stroke:#000000;stroke-width:5.00053072;stroke-linecap:round;stroke-linejoin:miter;stroke-miterlimit:4;stroke-dasharray:none;stroke-opacity:1" />
    </g>
    <text
       xml:space="preserve"
       style="font-size:18px;font-style:normal;font-variant:normal;font-weight:normal;font-stretch:normal;text-align:start;line-height:125%;writing-mode:lr-tb;text-anchor:start;fill:#000000;fill-opacity:1;stroke:none;stroke-width:1px;stroke-linecap:butt;stroke-linejoin:miter;stroke-opacity:1;font-family:Bitstream Vera Sans"
       x="38.81348"
       y="1077.6073"
       id="text2686"
       sodipodi:linespacing="125%"><tspan
         sodipodi:role="line"
         id="tspan2688"
         x="38.81348"
         y="1077.6073">0</tspan></text>
    <text
       xml:space="preserve"
       style="font-size:18px;font-style:normal;font-variant:normal;font-weight:normal;font-stretch:normal;text-align:start;line-height:125%;writing-mode:lr-tb;text-anchor:start;fill:#000000;fill-opacity:1;stroke:none;stroke-width:1px;stroke-linecap:butt;stroke-linejoin:miter;stroke-opacity:1;font-family:Bitstream Vera Sans"
       x="438.02258"
       y="1077.6161"
       id="text2713"
       sodipodi:linespacing="125%"><tspan
         sodipodi:role="line"
         id="tspan2715"
         x="438.02258"
         y="1077.6161">1</tspan></text>
    <path
       style="fill:#e0a0e0;fill-opacity:1;fill-rule:nonzero;stroke:#400040;stroke-width:1;stroke-linecap:round;stroke-linejoin:round;stroke-miterlimit:4;stroke-dasharray:none;stroke-dashoffset:0;stroke-opacity:1"
       d="M 388.90638,1001.8622 C 375.80612,1002.681 365.50013,1013.5488 365.50013,1026.8622 C 365.50013,1040.5503 376.40666,1051.6057 390.03138,1051.8622 L 414.50013,1051.8622 L 414.96888,1051.8622 C 428.5936,1051.6057 439.50013,1040.5503 439.50013,1026.8622 C 439.50013,1013.5488 429.19415,1002.681 416.09388,1001.8622 L 414.50013,1001.8622 L 388.90638,1001.8622 z "
       id="rect2746" />
    <path
       sodipodi:type="arc"
       style="fill:#000000;fill-opacity:1;fill-rule:nonzero;stroke:#808080;stroke-width:0;stroke-linecap:round;stroke-linejoin:round;stroke-miterlimit:4;stroke-dasharray:none;stroke-dashoffset:0;stroke-opacity:1"
       id="path2591"
       sodipodi:cx="278"
       sodipodi:cy="846.86218"
       sodipodi:rx="6"
       sodipodi:ry="4.5"
       d="M 284 846.86218 A 6 4.5 0 1 1  272,846.86218 A 6 4.5 0 1 1  284 846.86218 z"
       transform="matrix(0.416667,0,0,0.555556,428.5,556.3828)" />
    <path
       sodipodi:type="arc"
       style="fill:#000000;fill-opacity:1;fill-rule:nonzero;stroke:#808080;stroke-width:0;stroke-linecap:round;stroke-linejoin:round;stroke-miterlimit:4;stroke-dasharray:none;stroke-dashoffset:0;stroke-opacity:1"
       id="path2593"
       sodipodi:cx="278"
       sodipodi:cy="846.86218"
       sodipodi:rx="6"
       sodipodi:ry="4.5"
       d="M 284 846.86218 A 6 4.5 0 1 1  272,846.86218 A 6 4.5 0 1 1  284 846.86218 z"
       transform="matrix(0.416667,0,0,0.555556,451.6666,556.3828)" />
    <path
       sodipodi:type="arc"
       style="fill:#000000;fill-opacity:1;fill-rule:nonzero;stroke:#808080;stroke-width:0;stroke-linecap:round;stroke-linejoin:round;stroke-miterlimit:4;stroke-dasharray:none;stroke-dashoffset:0;stroke-opacity:1"
       id="path2595"
       sodipodi:cx="278"
       sodipodi:cy="846.86218"
       sodipodi:rx="6"
       sodipodi:ry="4.5"
       d="M 284 846.86218 A 6 4.5 0 1 1  272,846.86218 A 6 4.5 0 1 1  284 846.86218 z"
       transform="matrix(0.416667,0,0,0.555556,440.0833,556.3828)" />
    <path
       sodipodi:type="arc"
       style="fill:#000000;fill-opacity:1;fill-rule:nonzero;stroke:#808080;stroke-width:0;stroke-linecap:round;stroke-linejoin:round;stroke-miterlimit:4;stroke-dasharray:none;stroke-dashoffset:0;stroke-opacity:1"
       id="path2690"
       sodipodi:cx="278"
       sodipodi:cy="846.86218"
       sodipodi:rx="6"
       sodipodi:ry="4.5"
       d="M 284 846.86218 A 6 4.5 0 1 1  272,846.86218 A 6 4.5 0 1 1  284 846.86218 z"
       transform="matrix(0.416667,0,0,0.555556,-148.3334,556.3828)" />
    <path
       sodipodi:type="arc"
       style="fill:#000000;fill-opacity:1;fill-rule:nonzero;stroke:#808080;stroke-width:0;stroke-linecap:round;stroke-linejoin:round;stroke-miterlimit:4;stroke-dasharray:none;stroke-dashoffset:0;stroke-opacity:1"
       id="path2692"
       sodipodi:cx="278"
       sodipodi:cy="846.86218"
       sodipodi:rx="6"
       sodipodi:ry="4.5"
       d="M 284 846.86218 A 6 4.5 0 1 1  272,846.86218 A 6 4.5 0 1 1  284 846.86218 z"
       transform="matrix(0.416667,0,0,0.555556,-125.1667,556.3828)" />
    <path
       sodipodi:type="arc"
       style="fill:#000000;fill-opacity:1;fill-rule:nonzero;stroke:#808080;stroke-width:0;stroke-linecap:round;stroke-linejoin:round;stroke-miterlimit:4;stroke-dasharray:none;stroke-dashoffset:0;stroke-opacity:1"
       id="path2694"
       sodipodi:cx="278"
       sodipodi:cy="846.86218"
       sodipodi:rx="6"
       sodipodi:ry="4.5"
       d="M 284 846.86218 A 6 4.5 0 1 1  272,846.86218 A 6 4.5 0 1 1  284 846.86218 z"
       transform="matrix(0.416667,0,0,0.555556,-136.7501,556.3828)" />
    <path
       style="fill:#e0a0e0;fill-opacity:1;fill-rule:nonzero;stroke:#400040;stroke-width:1;stroke-linecap:round;stroke-linejoin:round;stroke-miterlimit:4;stroke-dasharray:none;stroke-dashoffset:0;stroke-opacity:1"
       d="M 64.375,1001.8622 C 51.05345,1002.4491 40.5,1013.3909 40.5,1026.8622 C 40.5,1040.604 51.48804,1051.6898 65.1875,1051.8622 L 114.5,1051.8622 L 114.8125,1051.8622 C 128.51196,1051.6898 139.5,1040.604 139.5,1026.8622 C 139.5,1013.3909 128.94656,1002.4491 115.625,1001.8622 L 114.5,1001.8622 L 64.375,1001.8622 z "
       id="path2969" />
    <path
       style="fill:#e0a0e0;fill-opacity:1;fill-rule:nonzero;stroke:#400040;stroke-width:1;stroke-linecap:round;stroke-linejoin:round;stroke-miterlimit:4;stroke-dasharray:none;stroke-dashoffset:0;stroke-opacity:1"
       d="M 323.90625,1001.8621 C 310.80599,1002.6809 300.5,1013.5487 300.5,1026.8621 C 300.5,1040.5296 311.3728,1051.5735 324.96875,1051.8621 C 324.98929,1051.8626 325.0107,1051.8617 325.03125,1051.8621 C 338.6272,1051.5735 349.5,1040.5296 349.5,1026.8621 C 349.5,1013.5487 339.19402,1002.6809 326.09375,1001.8621 L 324.5,1001.8621 L 323.90625,1001.8621 z "
       id="path2963" />
    <path
       style="fill:#e0a0e0;fill-opacity:1;fill-rule:nonzero;stroke:#400040;stroke-width:1;stroke-linecap:round;stroke-linejoin:round;stroke-miterlimit:4;stroke-dasharray:none;stroke-dashoffset:0;stroke-opacity:1"
       d="M 173.90625,1001.8638 C 160.80599,1002.6826 150.5,1013.5504 150.5,1026.8638 C 150.5,1040.6056 161.48804,1051.6914 175.1875,1051.8638 L 200.03125,1051.8638 L 224.5,1051.8638 L 224.96875,1051.8638 L 249.5,1051.8638 L 249.8125,1051.8638 C 263.51196,1051.6914 274.5,1040.6056 274.5,1026.8638 C 274.5,1013.3925 263.94656,1002.4507 250.625,1001.8638 L 249.5,1001.8638 L 226.09375,1001.8638 L 224.5,1001.8638 L 198.90625,1001.8638 L 174.375,1001.8638 C 174.21889,1001.8707 174.06159,1001.8541 173.90625,1001.8638 z "
       id="path2975" />
    <path
       style="fill:none;fill-opacity:0.75;fill-rule:evenodd;stroke:#000000;stroke-width:5.00053072;stroke-linecap:round;stroke-linejoin:miter;stroke-miterlimit:4;stroke-dasharray:none;stroke-opacity:1"
       d="M 423.50039,1051.8621 C 423.50039,1051.8621 437.49986,1044.5486 437.49986,1026.8621 C 437.49986,1010.1955 423.50039,1001.8623 423.50039,1001.8623"
       id="path2738"
       sodipodi:nodetypes="csc" />
    <path
       style="fill:none;fill-opacity:0.75;fill-rule:evenodd;stroke:#000000;stroke-width:5.00053072;stroke-linecap:round;stroke-linejoin:miter;stroke-miterlimit:4;stroke-dasharray:none;stroke-opacity:1"
       d="M 123.50026,1051.8621 C 123.50026,1051.8621 137.49973,1044.5486 137.49973,1026.8621 C 137.49973,1010.1955 123.50026,1001.8623 123.50026,1001.8623"
       id="path2971"
       sodipodi:nodetypes="csc" />
    <path
       style="fill:none;fill-opacity:0.75;fill-rule:evenodd;stroke:#000000;stroke-width:5.00053072;stroke-linecap:round;stroke-linejoin:miter;stroke-miterlimit:4;stroke-dasharray:none;stroke-opacity:1"
       d="M 56.49975,1051.8621 C 56.49975,1051.8621 42.50027,1044.5486 42.50027,1026.8621 C 42.50027,1010.1955 56.49975,1001.8623 56.49975,1001.8623"
       id="path2973"
       sodipodi:nodetypes="csc" />
    <path
       style="fill:none;fill-opacity:0.75;fill-rule:evenodd;stroke:#000000;stroke-width:5.00053072;stroke-linecap:round;stroke-linejoin:miter;stroke-miterlimit:4;stroke-dasharray:none;stroke-opacity:1"
       d="M 381.49988,1051.8621 C 381.49988,1051.8621 367.5004,1044.5486 367.5004,1026.8621 C 367.5004,1010.1955 381.49988,1001.8623 381.49988,1001.8623"
       id="path2961"
       sodipodi:nodetypes="csc" />
    <path
       style="fill:none;fill-opacity:0.75;fill-rule:evenodd;stroke:#000000;stroke-width:5.00053072;stroke-linecap:round;stroke-linejoin:miter;stroke-miterlimit:4;stroke-dasharray:none;stroke-opacity:1"
       d="M 333.50027,1051.8621 C 333.50027,1051.8621 347.49973,1044.5486 347.49973,1026.8621 C 347.49973,1010.1955 333.50027,1001.8623 333.50027,1001.8623"
       id="path2965"
       sodipodi:nodetypes="csc" />
    <path
       style="fill:none;fill-opacity:0.75;fill-rule:evenodd;stroke:#000000;stroke-width:5.00053072;stroke-linecap:round;stroke-linejoin:miter;stroke-miterlimit:4;stroke-dasharray:none;stroke-opacity:1"
       d="M 316.49975,1051.8621 C 316.49975,1051.8621 302.50027,1044.5486 302.50027,1026.8621 C 302.50027,1010.1955 316.49975,1001.8623 316.49975,1001.8623"
       id="path2967"
       sodipodi:nodetypes="csc" />
    <path
       style="fill:none;fill-opacity:0.75;fill-rule:evenodd;stroke:#000000;stroke-width:5.00053072;stroke-linecap:round;stroke-linejoin:miter;stroke-miterlimit:4;stroke-dasharray:none;stroke-opacity:1"
       d="M 258.50026,1051.8621 C 258.50026,1051.8621 272.49973,1044.5486 272.49973,1026.8621 C 272.49973,1010.1955 258.50026,1001.8623 258.50026,1001.8623"
       id="path2977"
       sodipodi:nodetypes="csc" />
    <path
       style="fill:none;fill-opacity:0.75;fill-rule:evenodd;stroke:#000000;stroke-width:5.00053072;stroke-linecap:round;stroke-linejoin:miter;stroke-miterlimit:4;stroke-dasharray:none;stroke-opacity:1"
       d="M 166.49975,1051.8621 C 166.49975,1051.8621 152.50027,1044.5486 152.50027,1026.8621 C 152.50027,1010.1955 166.49975,1001.8623 166.49975,1001.8623"
       id="path2979"
       sodipodi:nodetypes="csc" />
    <path
       style="fill:none;fill-opacity:0.75;fill-rule:evenodd;stroke:#000000;stroke-width:5.00000525;stroke-linecap:round;stroke-linejoin:miter;marker-start:none;marker-end:none;stroke-miterlimit:4;stroke-dasharray:none;stroke-opacity:1"
       d="M 1.5000026,1026.8622 L 531.99999,1026.8622"
       id="path2379" />
    <g
       id="g3182"
       transform="translate(0,59.48702)">
      <path
         id="path3147"
         d="M 213.59375,802.375 C 200.63961,803.34272 190.5,814.16561 190.5,827.375 C 190.5,841.06311 201.40653,852.11847 215.03125,852.375 L 244.5,852.375 L 264.5,852.375 L 294.5,852.375 L 314.5,852.375 L 344.5,852.375 L 344.96875,852.375 C 358.59347,852.11846 369.5,841.06312 369.5,827.375 C 369.5,814.06155 359.19402,803.19381 346.09375,802.375 L 344.5,802.375 L 314.5,802.375 L 294.5,802.375 L 263.90625,802.375 L 244.5,802.375 L 213.59375,802.375 z "
         style="fill:#e0e0a0;fill-opacity:1;fill-rule:nonzero;stroke:#404000;stroke-width:1;stroke-linecap:round;stroke-linejoin:round;stroke-miterlimit:4;stroke-dasharray:none;stroke-dashoffset:0;stroke-opacity:1" />
      <path
         transform="matrix(0.416667,0,0,0.555556,428.5,356.8956)"
         d="M 284 846.86218 A 6 4.5 0 1 1  272,846.86218 A 6 4.5 0 1 1  284 846.86218 z"
         sodipodi:ry="4.5"
         sodipodi:rx="6"
         sodipodi:cy="846.86218"
         sodipodi:cx="278"
         id="path3153"
         style="fill:#000000;fill-opacity:1;fill-rule:nonzero;stroke:#808080;stroke-width:0;stroke-linecap:round;stroke-linejoin:round;stroke-miterlimit:4;stroke-dasharray:none;stroke-dashoffset:0;stroke-opacity:1"
         sodipodi:type="arc" />
      <path
         transform="matrix(0.416667,0,0,0.555556,451.6666,356.8956)"
         d="M 284 846.86218 A 6 4.5 0 1 1  272,846.86218 A 6 4.5 0 1 1  284 846.86218 z"
         sodipodi:ry="4.5"
         sodipodi:rx="6"
         sodipodi:cy="846.86218"
         sodipodi:cx="278"
         id="path3155"
         style="fill:#000000;fill-opacity:1;fill-rule:nonzero;stroke:#808080;stroke-width:0;stroke-linecap:round;stroke-linejoin:round;stroke-miterlimit:4;stroke-dasharray:none;stroke-dashoffset:0;stroke-opacity:1"
         sodipodi:type="arc" />
      <path
         transform="matrix(0.416667,0,0,0.555556,440.0833,356.8956)"
         d="M 284 846.86218 A 6 4.5 0 1 1  272,846.86218 A 6 4.5 0 1 1  284 846.86218 z"
         sodipodi:ry="4.5"
         sodipodi:rx="6"
         sodipodi:cy="846.86218"
         sodipodi:cx="278"
         id="path3157"
         style="fill:#000000;fill-opacity:1;fill-rule:nonzero;stroke:#808080;stroke-width:0;stroke-linecap:round;stroke-linejoin:round;stroke-miterlimit:4;stroke-dasharray:none;stroke-dashoffset:0;stroke-opacity:1"
         sodipodi:type="arc" />
      <path
         transform="matrix(0.416667,0,0,0.555556,-148.3334,356.8956)"
         d="M 284 846.86218 A 6 4.5 0 1 1  272,846.86218 A 6 4.5 0 1 1  284 846.86218 z"
         sodipodi:ry="4.5"
         sodipodi:rx="6"
         sodipodi:cy="846.86218"
         sodipodi:cx="278"
         id="path3159"
         style="fill:#000000;fill-opacity:1;fill-rule:nonzero;stroke:#808080;stroke-width:0;stroke-linecap:round;stroke-linejoin:round;stroke-miterlimit:4;stroke-dasharray:none;stroke-dashoffset:0;stroke-opacity:1"
         sodipodi:type="arc" />
      <path
         transform="matrix(0.416667,0,0,0.555556,-125.1667,356.8956)"
         d="M 284 846.86218 A 6 4.5 0 1 1  272,846.86218 A 6 4.5 0 1 1  284 846.86218 z"
         sodipodi:ry="4.5"
         sodipodi:rx="6"
         sodipodi:cy="846.86218"
         sodipodi:cx="278"
         id="path3161"
         style="fill:#000000;fill-opacity:1;fill-rule:nonzero;stroke:#808080;stroke-width:0;stroke-linecap:round;stroke-linejoin:round;stroke-miterlimit:4;stroke-dasharray:none;stroke-dashoffset:0;stroke-opacity:1"
         sodipodi:type="arc" />
      <path
         transform="matrix(0.416667,0,0,0.555556,-136.7501,356.8956)"
         d="M 284 846.86218 A 6 4.5 0 1 1  272,846.86218 A 6 4.5 0 1 1  284 846.86218 z"
         sodipodi:ry="4.5"
         sodipodi:rx="6"
         sodipodi:cy="846.86218"
         sodipodi:cx="278"
         id="path3163"
         style="fill:#000000;fill-opacity:1;fill-rule:nonzero;stroke:#808080;stroke-width:0;stroke-linecap:round;stroke-linejoin:round;stroke-miterlimit:4;stroke-dasharray:none;stroke-dashoffset:0;stroke-opacity:1"
         sodipodi:type="arc" />
      <path
         id="path3165"
         d="M 1.49996,827.375 L 531.99994,827.375"
         style="fill:none;fill-opacity:0.75;fill-rule:evenodd;stroke:#000000;stroke-width:5.00000525;stroke-linecap:round;stroke-linejoin:miter;marker-start:none;marker-end:none;stroke-miterlimit:4;stroke-dasharray:none;stroke-opacity:1" />
      <path
         sodipodi:nodetypes="csc"
         id="path3171"
         d="M 353.50026,852.3749 C 353.50026,852.3749 367.49973,845.0614 367.49973,827.3749 C 367.49973,810.7083 353.50026,802.3751 353.50026,802.3751"
         style="fill:none;fill-opacity:0.75;fill-rule:evenodd;stroke:#000000;stroke-width:5.00053072;stroke-linecap:round;stroke-linejoin:miter;stroke-miterlimit:4;stroke-dasharray:none;stroke-opacity:1" />
      <path
         sodipodi:nodetypes="csc"
         id="path3173"
         d="M 206.49974,852.3749 C 206.49974,852.3749 192.50027,845.0614 192.50027,827.3749 C 192.50027,810.7083 206.49974,802.3751 206.49974,802.3751"
         style="fill:none;fill-opacity:0.75;fill-rule:evenodd;stroke:#000000;stroke-width:5.00053072;stroke-linecap:round;stroke-linejoin:miter;stroke-miterlimit:4;stroke-dasharray:none;stroke-opacity:1" />
    </g>
  </g>
</svg>
