<?xml version="1.0" encoding="UTF-8" standalone="no"?>
<!-- Created with Inkscape (http://www.inkscape.org/) -->
<svg
   xmlns:dc="http://purl.org/dc/elements/1.1/"
   xmlns:cc="http://web.resource.org/cc/"
   xmlns:rdf="http://www.w3.org/1999/02/22-rdf-syntax-ns#"
   xmlns:svg="http://www.w3.org/2000/svg"
   xmlns="http://www.w3.org/2000/svg"
   xmlns:sodipodi="http://inkscape.sourceforge.net/DTD/sodipodi-0.dtd"
   xmlns:inkscape="http://www.inkscape.org/namespaces/inkscape"
   width="744.09448819"
   height="1052.3622047"
   id="svg3267"
   sodipodi:version="0.32"
   inkscape:version="0.43"
   sodipodi:docbase="/home/chmbrlnd/Courses"
   sodipodi:docname="samplespaced2.svg"
   inkscape:export-filename="/usr/home/chmbrlnd/Courses/samplespaced2.png"
   inkscape:export-xdpi="89.999969"
   inkscape:export-ydpi="89.999969">
  <defs
     id="defs3269" />
  <sodipodi:namedview
     id="base"
     pagecolor="#ffffff"
     bordercolor="#ffffff"
     borderopacity="0.0"
     inkscape:pageopacity="0.0"
     inkscape:pageshadow="0"
     inkscape:zoom="1"
     inkscape:cx="305.00521"
     inkscape:cy="31.611211"
     inkscape:document-units="px"
     inkscape:current-layer="layer1"
     showgrid="true"
     inkscape:window-width="954"
     inkscape:window-height="654"
     inkscape:window-x="303"
     inkscape:window-y="33" />
  <metadata
     id="metadata3272">
    <rdf:RDF>
      <cc:Work
         rdf:about="">
        <dc:format>image/svg+xml</dc:format>
        <dc:type
           rdf:resource="http://purl.org/dc/dcmitype/StillImage" />
      </cc:Work>
    </rdf:RDF>
  </metadata>
  <g
     inkscape:label="Layer 1"
     inkscape:groupmode="layer"
     id="layer1">
    <rect
       style="opacity:1;fill:#ffffff;fill-opacity:0;fill-rule:nonzero;stroke:#000000;stroke-width:2.4999845;stroke-linecap:round;stroke-linejoin:round;stroke-miterlimit:4;stroke-dasharray:none;stroke-dashoffset:0;stroke-opacity:1"
       id="rect2210"
       width="335"
       height="272.50003"
       x="-23.748434"
       y="816.1236" />
    <rect
       style="fill:#ffffff;fill-opacity:0;fill-rule:nonzero;stroke:#6060e0;stroke-width:1.87501407;stroke-linecap:round;stroke-linejoin:round;stroke-miterlimit:4;stroke-dasharray:none;stroke-dashoffset:0;stroke-opacity:1"
       id="rect3739"
       width="98.124985"
       height="298.12454"
       x="840.79974"
       y="-286.56226"
       ry="8.9999866"
       transform="matrix(0,1,-1,0,0,0)" />
    <rect
       style="fill:#ffffff;fill-opacity:0;fill-rule:nonzero;stroke:#e06060;stroke-width:1.87501383;stroke-linecap:round;stroke-linejoin:round;stroke-miterlimit:4;stroke-dasharray:none;stroke-dashoffset:0;stroke-opacity:1"
       id="rect3729"
       width="98.12484"
       height="298.125"
       x="965.79974"
       y="-286.5625"
       ry="8.999999"
       transform="matrix(0,1,-1,0,0,0)" />
    <path
       style="fill:#ffffff;fill-opacity:0;fill-rule:nonzero;stroke:#60e060;stroke-width:1.87501407;stroke-linecap:round;stroke-linejoin:round;stroke-miterlimit:4;stroke-dasharray:none;stroke-dashoffset:0;stroke-opacity:1"
       d="M 96.3125,828.3125 C 91.860846,828.86485 88.4375,832.70755 88.4375,837.3125 L 88.4375,861.84375 C 88.430452,861.9905 88.4375,862.16399 88.4375,862.3125 L 88.4375,874 C 88.434316,874.03627 88.440252,874.0886 88.4375,874.125 L 88.4375,874.8125 L 88.4375,917.4375 C 88.437502,917.5921 88.42989,917.7224 88.4375,917.875 L 88.4375,942.4375 C 88.4375,942.59209 88.429888,942.72236 88.4375,942.875 L 88.4375,1068.125 C 88.789799,1072.784 92.6852,1076.4375 97.4375,1076.4375 L 177.5625,1076.4375 C 182.5095,1076.4375 186.5004,1072.4943 186.5625,1067.5625 L 186.5625,951.4375 L 290.0625,951.4375 L 290.1875,951.4375 C 295.1193,951.3755 299.0625,947.3845 299.0625,942.4375 L 299.0625,917.875 L 299.0625,862.3125 C 299.0625,862.16399 299.06955,861.9905 299.0625,861.84375 L 299.0625,837.3125 C 299.06251,832.56023 295.40906,828.6648 290.75,828.3125 L 290.0625,828.3125 L 96.75,828.3125 C 96.722701,828.31456 96.683673,828.31355 96.65625,828.3125 C 96.6197,828.31091 96.5674,828.30889 96.53125,828.3125 C 96.460083,828.31961 96.383161,828.30373 96.3125,828.3125 z "
       id="rect3954" />
    <rect
       style="fill:#ffffff;fill-opacity:0;fill-rule:nonzero;stroke:#808080;stroke-width:2.5;stroke-linecap:round;stroke-linejoin:round;stroke-miterlimit:4;stroke-dasharray:none;stroke-dashoffset:0;stroke-opacity:1"
       id="rect3275"
       width="72.499931"
       height="72.499947"
       x="1.2500342"
       y="978.61218"
       ry="10" />
    <path
       sodipodi:type="arc"
       style="fill:#6060e0;fill-opacity:1;fill-rule:nonzero;stroke:#000000;stroke-width:0;stroke-linecap:round;stroke-linejoin:round;stroke-miterlimit:4;stroke-dasharray:none;stroke-dashoffset:0;stroke-opacity:1"
       id="path3280"
       sodipodi:cx="109"
       sodipodi:cy="912.86218"
       sodipodi:rx="16"
       sodipodi:ry="11.5"
       d="M 125 912.86218 A 16 11.5 0 1 1  93,912.86218 A 16 11.5 0 1 1  125 912.86218 z"
       transform="matrix(0.46875,0,0,0.652174,-33.59375,439.5172)" />
    <path
       sodipodi:type="arc"
       style="fill:#6060e0;fill-opacity:1;fill-rule:nonzero;stroke:#000000;stroke-width:0;stroke-linecap:round;stroke-linejoin:round;stroke-miterlimit:4;stroke-dasharray:none;stroke-dashoffset:0;stroke-opacity:1"
       id="path3284"
       sodipodi:cx="109"
       sodipodi:cy="912.86218"
       sodipodi:rx="16"
       sodipodi:ry="11.5"
       d="M 125 912.86218 A 16 11.5 0 1 1  93,912.86218 A 16 11.5 0 1 1  125 912.86218 z"
       transform="matrix(0.46875,0,0,0.652174,-33.59375,399.5172)" />
    <path
       sodipodi:type="arc"
       style="fill:#6060e0;fill-opacity:1;fill-rule:nonzero;stroke:#000000;stroke-width:0;stroke-linecap:round;stroke-linejoin:round;stroke-miterlimit:4;stroke-dasharray:none;stroke-dashoffset:0;stroke-opacity:1"
       id="path3302"
       sodipodi:cx="109"
       sodipodi:cy="912.86218"
       sodipodi:rx="16"
       sodipodi:ry="11.5"
       d="M 125 912.86218 A 16 11.5 0 1 1  93,912.86218 A 16 11.5 0 1 1  125 912.86218 z"
       transform="matrix(0.46875,0,0,0.652174,6.40625,439.5172)" />
    <path
       sodipodi:type="arc"
       style="fill:#6060e0;fill-opacity:1;fill-rule:nonzero;stroke:#000000;stroke-width:0;stroke-linecap:round;stroke-linejoin:round;stroke-miterlimit:4;stroke-dasharray:none;stroke-dashoffset:0;stroke-opacity:1"
       id="path3306"
       sodipodi:cx="109"
       sodipodi:cy="912.86218"
       sodipodi:rx="16"
       sodipodi:ry="11.5"
       d="M 125 912.86218 A 16 11.5 0 1 1  93,912.86218 A 16 11.5 0 1 1  125 912.86218 z"
       transform="matrix(0.46875,0,0,0.652174,6.40625,399.5172)" />
    <rect
       style="fill:#ffffff;fill-opacity:0;fill-rule:nonzero;stroke:#808080;stroke-width:2.5;stroke-linecap:round;stroke-linejoin:round;stroke-miterlimit:4;stroke-dasharray:none;stroke-dashoffset:0;stroke-opacity:1"
       id="rect3364"
       width="72.499931"
       height="72.499947"
       x="201.25003"
       y="978.61218"
       ry="10" />
    <path
       sodipodi:type="arc"
       style="fill:#6060e0;fill-opacity:1;fill-rule:nonzero;stroke:#000000;stroke-width:0;stroke-linecap:round;stroke-linejoin:round;stroke-miterlimit:4;stroke-dasharray:none;stroke-dashoffset:0;stroke-opacity:1"
       id="path3366"
       sodipodi:cx="109"
       sodipodi:cy="912.86218"
       sodipodi:rx="16"
       sodipodi:ry="11.5"
       d="M 125 912.86218 A 16 11.5 0 1 1  93,912.86218 A 16 11.5 0 1 1  125 912.86218 z"
       transform="matrix(0.46875,0,0,0.652174,166.4062,439.5172)" />
    <path
       sodipodi:type="arc"
       style="fill:#6060e0;fill-opacity:1;fill-rule:nonzero;stroke:#000000;stroke-width:0;stroke-linecap:round;stroke-linejoin:round;stroke-miterlimit:4;stroke-dasharray:none;stroke-dashoffset:0;stroke-opacity:1"
       id="path3368"
       sodipodi:cx="109"
       sodipodi:cy="912.86218"
       sodipodi:rx="16"
       sodipodi:ry="11.5"
       d="M 125 912.86218 A 16 11.5 0 1 1  93,912.86218 A 16 11.5 0 1 1  125 912.86218 z"
       transform="matrix(0.46875,0,0,0.652174,166.4062,419.5172)" />
    <path
       sodipodi:type="arc"
       style="fill:#6060e0;fill-opacity:1;fill-rule:nonzero;stroke:#000000;stroke-width:0;stroke-linecap:round;stroke-linejoin:round;stroke-miterlimit:4;stroke-dasharray:none;stroke-dashoffset:0;stroke-opacity:1"
       id="path3370"
       sodipodi:cx="109"
       sodipodi:cy="912.86218"
       sodipodi:rx="16"
       sodipodi:ry="11.5"
       d="M 125 912.86218 A 16 11.5 0 1 1  93,912.86218 A 16 11.5 0 1 1  125 912.86218 z"
       transform="matrix(0.46875,0,0,0.652174,166.4062,399.5172)" />
    <path
       sodipodi:type="arc"
       style="fill:#6060e0;fill-opacity:1;fill-rule:nonzero;stroke:#000000;stroke-width:0;stroke-linecap:round;stroke-linejoin:round;stroke-miterlimit:4;stroke-dasharray:none;stroke-dashoffset:0;stroke-opacity:1"
       id="path3378"
       sodipodi:cx="109"
       sodipodi:cy="912.86218"
       sodipodi:rx="16"
       sodipodi:ry="11.5"
       d="M 125 912.86218 A 16 11.5 0 1 1  93,912.86218 A 16 11.5 0 1 1  125 912.86218 z"
       transform="matrix(0.46875,0,0,0.652174,206.4062,439.5172)" />
    <path
       sodipodi:type="arc"
       style="fill:#6060e0;fill-opacity:1;fill-rule:nonzero;stroke:#000000;stroke-width:0;stroke-linecap:round;stroke-linejoin:round;stroke-miterlimit:4;stroke-dasharray:none;stroke-dashoffset:0;stroke-opacity:1"
       id="path3380"
       sodipodi:cx="109"
       sodipodi:cy="912.86218"
       sodipodi:rx="16"
       sodipodi:ry="11.5"
       d="M 125 912.86218 A 16 11.5 0 1 1  93,912.86218 A 16 11.5 0 1 1  125 912.86218 z"
       transform="matrix(0.46875,0,0,0.652174,206.4062,419.5172)" />
    <path
       sodipodi:type="arc"
       style="fill:#6060e0;fill-opacity:1;fill-rule:nonzero;stroke:#000000;stroke-width:0;stroke-linecap:round;stroke-linejoin:round;stroke-miterlimit:4;stroke-dasharray:none;stroke-dashoffset:0;stroke-opacity:1"
       id="path3382"
       sodipodi:cx="109"
       sodipodi:cy="912.86218"
       sodipodi:rx="16"
       sodipodi:ry="11.5"
       d="M 125 912.86218 A 16 11.5 0 1 1  93,912.86218 A 16 11.5 0 1 1  125 912.86218 z"
       transform="matrix(0.46875,0,0,0.652174,206.4062,399.5172)" />
    <rect
       style="fill:#ffffff;fill-opacity:0;fill-rule:nonzero;stroke:#808080;stroke-width:2.5;stroke-linecap:round;stroke-linejoin:round;stroke-miterlimit:4;stroke-dasharray:none;stroke-dashoffset:0;stroke-opacity:1"
       id="rect3408"
       width="72.499931"
       height="72.499947"
       x="1.25"
       y="853.61224"
       ry="10" />
    <path
       sodipodi:type="arc"
       style="fill:#6060e0;fill-opacity:1;fill-rule:nonzero;stroke:#000000;stroke-width:0;stroke-linecap:round;stroke-linejoin:round;stroke-miterlimit:4;stroke-dasharray:none;stroke-dashoffset:0;stroke-opacity:1"
       id="path3418"
       sodipodi:cx="109"
       sodipodi:cy="912.86218"
       sodipodi:rx="16"
       sodipodi:ry="11.5"
       d="M 125 912.86218 A 16 11.5 0 1 1  93,912.86218 A 16 11.5 0 1 1  125 912.86218 z"
       transform="matrix(0.46875,0,0,0.652174,-13.59378,294.5172)" />
    <rect
       style="fill:#ffffff;fill-opacity:0;fill-rule:nonzero;stroke:#808080;stroke-width:2.5;stroke-linecap:round;stroke-linejoin:round;stroke-miterlimit:4;stroke-dasharray:none;stroke-dashoffset:0;stroke-opacity:1"
       id="rect3430"
       width="72.499931"
       height="72.499947"
       x="201.25003"
       y="853.61224"
       ry="10" />
    <rect
       style="fill:#ffffff;fill-opacity:0;fill-rule:nonzero;stroke:#808080;stroke-width:2.5;stroke-linecap:round;stroke-linejoin:round;stroke-miterlimit:4;stroke-dasharray:none;stroke-dashoffset:0;stroke-opacity:1"
       id="rect3342"
       width="72.499931"
       height="72.499947"
       x="101.25"
       y="-926.11182"
       ry="10"
       transform="scale(1,-1)" />
    <path
       sodipodi:type="arc"
       style="fill:#6060e0;fill-opacity:1;fill-rule:nonzero;stroke:#000000;stroke-width:0;stroke-linecap:round;stroke-linejoin:round;stroke-miterlimit:4;stroke-dasharray:none;stroke-dashoffset:0;stroke-opacity:1"
       id="path3344"
       sodipodi:cx="109"
       sodipodi:cy="912.86218"
       sodipodi:rx="16"
       sodipodi:ry="11.5"
       d="M 125 912.86218 A 16 11.5 0 1 1  93,912.86218 A 16 11.5 0 1 1  125 912.86218 z"
       transform="matrix(0.46875,0,0,-0.652174,66.40621,1465.207)" />
    <path
       sodipodi:type="arc"
       style="fill:#6060e0;fill-opacity:1;fill-rule:nonzero;stroke:#000000;stroke-width:0;stroke-linecap:round;stroke-linejoin:round;stroke-miterlimit:4;stroke-dasharray:none;stroke-dashoffset:0;stroke-opacity:1"
       id="path3348"
       sodipodi:cx="109"
       sodipodi:cy="912.86218"
       sodipodi:rx="16"
       sodipodi:ry="11.5"
       d="M 125 912.86218 A 16 11.5 0 1 1  93,912.86218 A 16 11.5 0 1 1  125 912.86218 z"
       transform="matrix(0.46875,0,0,-0.652174,66.40621,1505.207)" />
    <path
       sodipodi:type="arc"
       style="fill:#6060e0;fill-opacity:1;fill-rule:nonzero;stroke:#000000;stroke-width:0;stroke-linecap:round;stroke-linejoin:round;stroke-miterlimit:4;stroke-dasharray:none;stroke-dashoffset:0;stroke-opacity:1"
       id="path3352"
       sodipodi:cx="109"
       sodipodi:cy="912.86218"
       sodipodi:rx="16"
       sodipodi:ry="11.5"
       d="M 125 912.86218 A 16 11.5 0 1 1  93,912.86218 A 16 11.5 0 1 1  125 912.86218 z"
       transform="matrix(0.46875,0,0,-0.652174,86.40621,1485.207)" />
    <path
       sodipodi:type="arc"
       style="fill:#6060e0;fill-opacity:1;fill-rule:nonzero;stroke:#000000;stroke-width:0;stroke-linecap:round;stroke-linejoin:round;stroke-miterlimit:4;stroke-dasharray:none;stroke-dashoffset:0;stroke-opacity:1"
       id="path3356"
       sodipodi:cx="109"
       sodipodi:cy="912.86218"
       sodipodi:rx="16"
       sodipodi:ry="11.5"
       d="M 125 912.86218 A 16 11.5 0 1 1  93,912.86218 A 16 11.5 0 1 1  125 912.86218 z"
       transform="matrix(0.46875,0,0,-0.652174,106.4062,1465.207)" />
    <path
       sodipodi:type="arc"
       style="fill:#6060e0;fill-opacity:1;fill-rule:nonzero;stroke:#000000;stroke-width:0;stroke-linecap:round;stroke-linejoin:round;stroke-miterlimit:4;stroke-dasharray:none;stroke-dashoffset:0;stroke-opacity:1"
       id="path3360"
       sodipodi:cx="109"
       sodipodi:cy="912.86218"
       sodipodi:rx="16"
       sodipodi:ry="11.5"
       d="M 125 912.86218 A 16 11.5 0 1 1  93,912.86218 A 16 11.5 0 1 1  125 912.86218 z"
       transform="matrix(0.46875,0,0,-0.652174,106.4062,1505.207)" />
    <g
       id="g4224"
       transform="matrix(1,0,0,-1,0,2029.724)">
      <rect
         transform="scale(1,-1)"
         ry="10"
         y="-1051.1118"
         x="101.25"
         height="72.499947"
         width="72.499931"
         id="rect3386"
         style="fill:#ffffff;fill-opacity:0;fill-rule:nonzero;stroke:#808080;stroke-width:2.5;stroke-linecap:round;stroke-linejoin:round;stroke-miterlimit:4;stroke-dasharray:none;stroke-dashoffset:0;stroke-opacity:1" />
      <path
         transform="matrix(0.46875,0,0,-0.652174,66.40621,1630.207)"
         d="M 125 912.86218 A 16 11.5 0 1 1  93,912.86218 A 16 11.5 0 1 1  125 912.86218 z"
         sodipodi:ry="11.5"
         sodipodi:rx="16"
         sodipodi:cy="912.86218"
         sodipodi:cx="109"
         id="path3392"
         style="fill:#6060e0;fill-opacity:1;fill-rule:nonzero;stroke:#000000;stroke-width:0;stroke-linecap:round;stroke-linejoin:round;stroke-miterlimit:4;stroke-dasharray:none;stroke-dashoffset:0;stroke-opacity:1"
         sodipodi:type="arc" />
      <path
         transform="matrix(0.46875,0,0,-0.652174,106.4062,1590.207)"
         d="M 125 912.86218 A 16 11.5 0 1 1  93,912.86218 A 16 11.5 0 1 1  125 912.86218 z"
         sodipodi:ry="11.5"
         sodipodi:rx="16"
         sodipodi:cy="912.86218"
         sodipodi:cx="109"
         id="path3400"
         style="fill:#6060e0;fill-opacity:1;fill-rule:nonzero;stroke:#000000;stroke-width:0;stroke-linecap:round;stroke-linejoin:round;stroke-miterlimit:4;stroke-dasharray:none;stroke-dashoffset:0;stroke-opacity:1"
         sodipodi:type="arc" />
    </g>
    <path
       sodipodi:type="arc"
       style="fill:#6060e0;fill-opacity:1;fill-rule:nonzero;stroke:#000000;stroke-width:0;stroke-linecap:round;stroke-linejoin:round;stroke-miterlimit:4;stroke-dasharray:none;stroke-dashoffset:0;stroke-opacity:1"
       id="path3436"
       sodipodi:cx="109"
       sodipodi:cy="912.86218"
       sodipodi:rx="16"
       sodipodi:ry="11.5"
       d="M 125 912.86218 A 16 11.5 0 1 1  93,912.86218 A 16 11.5 0 1 1  125 912.86218 z"
       transform="matrix(0.46875,0,0,0.652174,166.4062,274.5172)" />
    <path
       sodipodi:type="arc"
       style="fill:#6060e0;fill-opacity:1;fill-rule:nonzero;stroke:#000000;stroke-width:0;stroke-linecap:round;stroke-linejoin:round;stroke-miterlimit:4;stroke-dasharray:none;stroke-dashoffset:0;stroke-opacity:1"
       id="path3440"
       sodipodi:cx="109"
       sodipodi:cy="912.86218"
       sodipodi:rx="16"
       sodipodi:ry="11.5"
       d="M 125 912.86218 A 16 11.5 0 1 1  93,912.86218 A 16 11.5 0 1 1  125 912.86218 z"
       transform="matrix(0.46875,0,0,0.652174,186.4062,294.5172)" />
    <path
       sodipodi:type="arc"
       style="fill:#6060e0;fill-opacity:1;fill-rule:nonzero;stroke:#000000;stroke-width:0;stroke-linecap:round;stroke-linejoin:round;stroke-miterlimit:4;stroke-dasharray:none;stroke-dashoffset:0;stroke-opacity:1"
       id="path3444"
       sodipodi:cx="109"
       sodipodi:cy="912.86218"
       sodipodi:rx="16"
       sodipodi:ry="11.5"
       d="M 125 912.86218 A 16 11.5 0 1 1  93,912.86218 A 16 11.5 0 1 1  125 912.86218 z"
       transform="matrix(0.46875,0,0,0.652174,206.4062,314.5172)" />
  </g>
</svg>
