<?xml version="1.0" encoding="UTF-8" standalone="no"?>
<!-- Created with Inkscape (http://www.inkscape.org/) -->
<svg
   xmlns:dc="http://purl.org/dc/elements/1.1/"
   xmlns:cc="http://web.resource.org/cc/"
   xmlns:rdf="http://www.w3.org/1999/02/22-rdf-syntax-ns#"
   xmlns:svg="http://www.w3.org/2000/svg"
   xmlns="http://www.w3.org/2000/svg"
   xmlns:sodipodi="http://sodipodi.sourceforge.net/DTD/sodipodi-0.dtd"
   xmlns:inkscape="http://www.inkscape.org/namespaces/inkscape"
   width="744.09448819"
   height="1052.3622047"
   id="svg3267"
   sodipodi:version="0.32"
   inkscape:version="0.45.1"
   sodipodi:docbase="/Users/chmbrlnd/Desktop/FREDsvn/EduDocs/Probability/Figures/2Chapter"
   sodipodi:docname="nonadmissiblespace.svg"
   inkscape:export-filename="/usr/home/chmbrlnd/Courses/samplespaced2.png"
   inkscape:export-xdpi="89.999969"
   inkscape:export-ydpi="89.999969"
   inkscape:output_extension="org.inkscape.output.svg.inkscape">
  <defs
     id="defs3269" />
  <sodipodi:namedview
     id="base"
     pagecolor="#ffffff"
     bordercolor="#ffffff"
     borderopacity="0.0"
     inkscape:pageopacity="0.0"
     inkscape:pageshadow="0"
     inkscape:zoom="1"
     inkscape:cx="305.00521"
     inkscape:cy="31.611211"
     inkscape:document-units="px"
     inkscape:current-layer="layer1"
     showgrid="true"
     inkscape:window-width="954"
     inkscape:window-height="654"
     inkscape:window-x="303"
     inkscape:window-y="33" />
  <metadata
     id="metadata3272">
    <rdf:RDF>
      <cc:Work
         rdf:about="">
        <dc:format>image/svg+xml</dc:format>
        <dc:type
           rdf:resource="http://purl.org/dc/dcmitype/StillImage" />
      </cc:Work>
    </rdf:RDF>
  </metadata>
  <g
     inkscape:label="Layer 1"
     inkscape:groupmode="layer"
     id="layer1">
    <rect
       style="opacity:1;fill:#ffffff;fill-opacity:0;fill-rule:nonzero;stroke:#000000;stroke-width:2.4999845;stroke-linecap:round;stroke-linejoin:round;stroke-miterlimit:4;stroke-dasharray:none;stroke-dashoffset:0;stroke-opacity:1"
       id="rect2210"
       width="335"
       height="272.50003"
       x="-25.748434"
       y="814.1236"
       ry="12"
       rx="13" />
    <rect
       style="fill:#ffffff;fill-opacity:0;fill-rule:nonzero;stroke:#6060e0;stroke-width:1.87501407;stroke-linecap:round;stroke-linejoin:round;stroke-miterlimit:4;stroke-dasharray:none;stroke-dashoffset:0;stroke-opacity:1"
       id="rect3739"
       width="98.124985"
       height="298.12454"
       x="838.79974"
       y="-284.56226"
       ry="8.9999866"
       transform="matrix(0,1,-1,0,0,0)" />
    <rect
       style="fill:#ffffff;fill-opacity:0;fill-rule:nonzero;stroke:#e06060;stroke-width:1.87501383;stroke-linecap:round;stroke-linejoin:round;stroke-miterlimit:4;stroke-dasharray:none;stroke-dashoffset:0;stroke-opacity:1"
       id="rect3729"
       width="98.12484"
       height="298.125"
       x="963.79974"
       y="-284.5625"
       ry="8.999999"
       transform="matrix(0,1,-1,0,0,0)" />
    <path
       style="fill:#ffffff;fill-opacity:0;fill-rule:nonzero;stroke:#60e060;stroke-width:1.87501407;stroke-linecap:round;stroke-linejoin:round;stroke-miterlimit:4;stroke-dasharray:none;stroke-dashoffset:0;stroke-opacity:1"
       d="M 94.3125,826.3125 C 89.860846,826.86485 86.4375,830.70755 86.4375,835.3125 L 86.4375,859.84375 C 86.430452,859.9905 86.4375,860.16399 86.4375,860.3125 L 86.4375,872 C 86.434316,872.03627 86.440252,872.0886 86.4375,872.125 L 86.4375,872.8125 L 86.4375,915.4375 C 86.437502,915.5921 86.42989,915.7224 86.4375,915.875 L 86.4375,940.4375 C 86.4375,940.59209 86.429888,940.72236 86.4375,940.875 L 86.4375,1066.125 C 86.789799,1070.784 90.6852,1074.4375 95.4375,1074.4375 L 175.5625,1074.4375 C 180.5095,1074.4375 184.5004,1070.4943 184.5625,1065.5625 L 184.5625,949.4375 L 288.0625,949.4375 L 288.1875,949.4375 C 293.1193,949.3755 297.0625,945.3845 297.0625,940.4375 L 297.0625,915.875 L 297.0625,860.3125 C 297.0625,860.16399 297.06955,859.9905 297.0625,859.84375 L 297.0625,835.3125 C 297.06251,830.56023 293.40906,826.6648 288.75,826.3125 L 288.0625,826.3125 L 94.75,826.3125 C 94.722701,826.31456 94.683673,826.31355 94.65625,826.3125 C 94.6197,826.31091 94.5674,826.30889 94.53125,826.3125 C 94.460083,826.31961 94.383161,826.30373 94.3125,826.3125 z "
       id="rect3954" />
    <rect
       style="fill:#ffffff;fill-opacity:0;fill-rule:nonzero;stroke:#808080;stroke-width:2.5;stroke-linecap:round;stroke-linejoin:round;stroke-miterlimit:4;stroke-dasharray:none;stroke-dashoffset:0;stroke-opacity:1"
       id="rect3275"
       width="72.499931"
       height="72.499947"
       x="-0.74996567"
       y="976.61218"
       ry="10" />
    <path
       sodipodi:type="arc"
       style="fill:#6060e0;fill-opacity:1;fill-rule:nonzero;stroke:#000000;stroke-width:0;stroke-linecap:round;stroke-linejoin:round;stroke-miterlimit:4;stroke-dasharray:none;stroke-dashoffset:0;stroke-opacity:1"
       id="path3280"
       sodipodi:cx="109"
       sodipodi:cy="912.86218"
       sodipodi:rx="16"
       sodipodi:ry="11.5"
       d="M 125 912.86218 A 16 11.5 0 1 1  93,912.86218 A 16 11.5 0 1 1  125 912.86218 z"
       transform="matrix(0.46875,0,0,0.652174,-35.59375,437.5172)" />
    <path
       sodipodi:type="arc"
       style="fill:#6060e0;fill-opacity:1;fill-rule:nonzero;stroke:#000000;stroke-width:0;stroke-linecap:round;stroke-linejoin:round;stroke-miterlimit:4;stroke-dasharray:none;stroke-dashoffset:0;stroke-opacity:1"
       id="path3284"
       sodipodi:cx="109"
       sodipodi:cy="912.86218"
       sodipodi:rx="16"
       sodipodi:ry="11.5"
       d="M 125 912.86218 A 16 11.5 0 1 1  93,912.86218 A 16 11.5 0 1 1  125 912.86218 z"
       transform="matrix(0.46875,0,0,0.652174,-35.59375,397.5172)" />
    <path
       sodipodi:type="arc"
       style="fill:#6060e0;fill-opacity:1;fill-rule:nonzero;stroke:#000000;stroke-width:0;stroke-linecap:round;stroke-linejoin:round;stroke-miterlimit:4;stroke-dasharray:none;stroke-dashoffset:0;stroke-opacity:1"
       id="path3302"
       sodipodi:cx="109"
       sodipodi:cy="912.86218"
       sodipodi:rx="16"
       sodipodi:ry="11.5"
       d="M 125 912.86218 A 16 11.5 0 1 1  93,912.86218 A 16 11.5 0 1 1  125 912.86218 z"
       transform="matrix(0.46875,0,0,0.652174,4.40625,437.5172)" />
    <path
       sodipodi:type="arc"
       style="fill:#6060e0;fill-opacity:1;fill-rule:nonzero;stroke:#000000;stroke-width:0;stroke-linecap:round;stroke-linejoin:round;stroke-miterlimit:4;stroke-dasharray:none;stroke-dashoffset:0;stroke-opacity:1"
       id="path3306"
       sodipodi:cx="109"
       sodipodi:cy="912.86218"
       sodipodi:rx="16"
       sodipodi:ry="11.5"
       d="M 125 912.86218 A 16 11.5 0 1 1  93,912.86218 A 16 11.5 0 1 1  125 912.86218 z"
       transform="matrix(0.46875,0,0,0.652174,4.40625,397.5172)" />
    <rect
       style="fill:#ffffff;fill-opacity:0;fill-rule:nonzero;stroke:#808080;stroke-width:2.5;stroke-linecap:round;stroke-linejoin:round;stroke-miterlimit:4;stroke-dasharray:none;stroke-dashoffset:0;stroke-opacity:1"
       id="rect3364"
       width="72.499931"
       height="72.499947"
       x="199.25003"
       y="976.61218"
       ry="10" />
    <path
       sodipodi:type="arc"
       style="fill:#6060e0;fill-opacity:1;fill-rule:nonzero;stroke:#000000;stroke-width:0;stroke-linecap:round;stroke-linejoin:round;stroke-miterlimit:4;stroke-dasharray:none;stroke-dashoffset:0;stroke-opacity:1"
       id="path3366"
       sodipodi:cx="109"
       sodipodi:cy="912.86218"
       sodipodi:rx="16"
       sodipodi:ry="11.5"
       d="M 125 912.86218 A 16 11.5 0 1 1  93,912.86218 A 16 11.5 0 1 1  125 912.86218 z"
       transform="matrix(0.46875,0,0,0.652174,164.4062,437.5172)" />
    <path
       sodipodi:type="arc"
       style="fill:#6060e0;fill-opacity:1;fill-rule:nonzero;stroke:#000000;stroke-width:0;stroke-linecap:round;stroke-linejoin:round;stroke-miterlimit:4;stroke-dasharray:none;stroke-dashoffset:0;stroke-opacity:1"
       id="path3368"
       sodipodi:cx="109"
       sodipodi:cy="912.86218"
       sodipodi:rx="16"
       sodipodi:ry="11.5"
       d="M 125 912.86218 A 16 11.5 0 1 1  93,912.86218 A 16 11.5 0 1 1  125 912.86218 z"
       transform="matrix(0.46875,0,0,0.652174,164.4062,417.5172)" />
    <path
       sodipodi:type="arc"
       style="fill:#6060e0;fill-opacity:1;fill-rule:nonzero;stroke:#000000;stroke-width:0;stroke-linecap:round;stroke-linejoin:round;stroke-miterlimit:4;stroke-dasharray:none;stroke-dashoffset:0;stroke-opacity:1"
       id="path3370"
       sodipodi:cx="109"
       sodipodi:cy="912.86218"
       sodipodi:rx="16"
       sodipodi:ry="11.5"
       d="M 125 912.86218 A 16 11.5 0 1 1  93,912.86218 A 16 11.5 0 1 1  125 912.86218 z"
       transform="matrix(0.46875,0,0,0.652174,164.4062,397.5172)" />
    <path
       sodipodi:type="arc"
       style="fill:#6060e0;fill-opacity:1;fill-rule:nonzero;stroke:#000000;stroke-width:0;stroke-linecap:round;stroke-linejoin:round;stroke-miterlimit:4;stroke-dasharray:none;stroke-dashoffset:0;stroke-opacity:1"
       id="path3378"
       sodipodi:cx="109"
       sodipodi:cy="912.86218"
       sodipodi:rx="16"
       sodipodi:ry="11.5"
       d="M 125 912.86218 A 16 11.5 0 1 1  93,912.86218 A 16 11.5 0 1 1  125 912.86218 z"
       transform="matrix(0.46875,0,0,0.652174,204.4062,437.5172)" />
    <path
       sodipodi:type="arc"
       style="fill:#6060e0;fill-opacity:1;fill-rule:nonzero;stroke:#000000;stroke-width:0;stroke-linecap:round;stroke-linejoin:round;stroke-miterlimit:4;stroke-dasharray:none;stroke-dashoffset:0;stroke-opacity:1"
       id="path3380"
       sodipodi:cx="109"
       sodipodi:cy="912.86218"
       sodipodi:rx="16"
       sodipodi:ry="11.5"
       d="M 125 912.86218 A 16 11.5 0 1 1  93,912.86218 A 16 11.5 0 1 1  125 912.86218 z"
       transform="matrix(0.46875,0,0,0.652174,204.4062,417.5172)" />
    <path
       sodipodi:type="arc"
       style="fill:#6060e0;fill-opacity:1;fill-rule:nonzero;stroke:#000000;stroke-width:0;stroke-linecap:round;stroke-linejoin:round;stroke-miterlimit:4;stroke-dasharray:none;stroke-dashoffset:0;stroke-opacity:1"
       id="path3382"
       sodipodi:cx="109"
       sodipodi:cy="912.86218"
       sodipodi:rx="16"
       sodipodi:ry="11.5"
       d="M 125 912.86218 A 16 11.5 0 1 1  93,912.86218 A 16 11.5 0 1 1  125 912.86218 z"
       transform="matrix(0.46875,0,0,0.652174,204.4062,397.5172)" />
    <rect
       style="fill:#ffffff;fill-opacity:0;fill-rule:nonzero;stroke:#808080;stroke-width:2.5;stroke-linecap:round;stroke-linejoin:round;stroke-miterlimit:4;stroke-dasharray:none;stroke-dashoffset:0;stroke-opacity:1"
       id="rect3408"
       width="72.499931"
       height="72.499947"
       x="-0.75"
       y="851.61224"
       ry="10" />
    <path
       sodipodi:type="arc"
       style="fill:#6060e0;fill-opacity:1;fill-rule:nonzero;stroke:#000000;stroke-width:0;stroke-linecap:round;stroke-linejoin:round;stroke-miterlimit:4;stroke-dasharray:none;stroke-dashoffset:0;stroke-opacity:1"
       id="path3418"
       sodipodi:cx="109"
       sodipodi:cy="912.86218"
       sodipodi:rx="16"
       sodipodi:ry="11.5"
       d="M 125 912.86218 A 16 11.5 0 1 1  93,912.86218 A 16 11.5 0 1 1  125 912.86218 z"
       transform="matrix(0.46875,0,0,0.652174,-15.59378,292.5172)" />
    <rect
       style="fill:#ffffff;fill-opacity:0;fill-rule:nonzero;stroke:#808080;stroke-width:2.5;stroke-linecap:round;stroke-linejoin:round;stroke-miterlimit:4;stroke-dasharray:none;stroke-dashoffset:0;stroke-opacity:1"
       id="rect3430"
       width="72.499931"
       height="72.499947"
       x="199.25003"
       y="851.61224"
       ry="10" />
    <rect
       style="fill:#ffffff;fill-opacity:0;fill-rule:nonzero;stroke:#808080;stroke-width:2.5;stroke-linecap:round;stroke-linejoin:round;stroke-miterlimit:4;stroke-dasharray:none;stroke-dashoffset:0;stroke-opacity:1"
       id="rect3342"
       width="72.499931"
       height="72.499947"
       x="99.25"
       y="-924.11182"
       ry="10"
       transform="scale(1,-1)" />
    <path
       sodipodi:type="arc"
       style="fill:#6060e0;fill-opacity:1;fill-rule:nonzero;stroke:#000000;stroke-width:0;stroke-linecap:round;stroke-linejoin:round;stroke-miterlimit:4;stroke-dasharray:none;stroke-dashoffset:0;stroke-opacity:1"
       id="path3344"
       sodipodi:cx="109"
       sodipodi:cy="912.86218"
       sodipodi:rx="16"
       sodipodi:ry="11.5"
       d="M 125 912.86218 A 16 11.5 0 1 1  93,912.86218 A 16 11.5 0 1 1  125 912.86218 z"
       transform="matrix(0.46875,0,0,-0.652174,64.40621,1463.207)" />
    <path
       sodipodi:type="arc"
       style="fill:#6060e0;fill-opacity:1;fill-rule:nonzero;stroke:#000000;stroke-width:0;stroke-linecap:round;stroke-linejoin:round;stroke-miterlimit:4;stroke-dasharray:none;stroke-dashoffset:0;stroke-opacity:1"
       id="path3348"
       sodipodi:cx="109"
       sodipodi:cy="912.86218"
       sodipodi:rx="16"
       sodipodi:ry="11.5"
       d="M 125 912.86218 A 16 11.5 0 1 1  93,912.86218 A 16 11.5 0 1 1  125 912.86218 z"
       transform="matrix(0.46875,0,0,-0.652174,64.40621,1503.207)" />
    <path
       sodipodi:type="arc"
       style="fill:#6060e0;fill-opacity:1;fill-rule:nonzero;stroke:#000000;stroke-width:0;stroke-linecap:round;stroke-linejoin:round;stroke-miterlimit:4;stroke-dasharray:none;stroke-dashoffset:0;stroke-opacity:1"
       id="path3352"
       sodipodi:cx="109"
       sodipodi:cy="912.86218"
       sodipodi:rx="16"
       sodipodi:ry="11.5"
       d="M 125 912.86218 A 16 11.5 0 1 1  93,912.86218 A 16 11.5 0 1 1  125 912.86218 z"
       transform="matrix(0.46875,0,0,-0.652174,84.40621,1483.207)" />
    <path
       sodipodi:type="arc"
       style="fill:#6060e0;fill-opacity:1;fill-rule:nonzero;stroke:#000000;stroke-width:0;stroke-linecap:round;stroke-linejoin:round;stroke-miterlimit:4;stroke-dasharray:none;stroke-dashoffset:0;stroke-opacity:1"
       id="path3356"
       sodipodi:cx="109"
       sodipodi:cy="912.86218"
       sodipodi:rx="16"
       sodipodi:ry="11.5"
       d="M 125 912.86218 A 16 11.5 0 1 1  93,912.86218 A 16 11.5 0 1 1  125 912.86218 z"
       transform="matrix(0.46875,0,0,-0.652174,104.4062,1463.207)" />
    <path
       sodipodi:type="arc"
       style="fill:#6060e0;fill-opacity:1;fill-rule:nonzero;stroke:#000000;stroke-width:0;stroke-linecap:round;stroke-linejoin:round;stroke-miterlimit:4;stroke-dasharray:none;stroke-dashoffset:0;stroke-opacity:1"
       id="path3360"
       sodipodi:cx="109"
       sodipodi:cy="912.86218"
       sodipodi:rx="16"
       sodipodi:ry="11.5"
       d="M 125 912.86218 A 16 11.5 0 1 1  93,912.86218 A 16 11.5 0 1 1  125 912.86218 z"
       transform="matrix(0.46875,0,0,-0.652174,104.4062,1503.207)" />
    <g
       id="g4224"
       transform="matrix(1,0,0,-1,-2,2027.724)">
      <rect
         transform="scale(1,-1)"
         ry="10"
         y="-1051.1118"
         x="101.25"
         height="72.499947"
         width="72.499931"
         id="rect3386"
         style="fill:#ffffff;fill-opacity:0;fill-rule:nonzero;stroke:#808080;stroke-width:2.5;stroke-linecap:round;stroke-linejoin:round;stroke-miterlimit:4;stroke-dasharray:none;stroke-dashoffset:0;stroke-opacity:1" />
      <path
         transform="matrix(0.46875,0,0,-0.652174,66.40621,1630.207)"
         d="M 125 912.86218 A 16 11.5 0 1 1  93,912.86218 A 16 11.5 0 1 1  125 912.86218 z"
         sodipodi:ry="11.5"
         sodipodi:rx="16"
         sodipodi:cy="912.86218"
         sodipodi:cx="109"
         id="path3392"
         style="fill:#6060e0;fill-opacity:1;fill-rule:nonzero;stroke:#000000;stroke-width:0;stroke-linecap:round;stroke-linejoin:round;stroke-miterlimit:4;stroke-dasharray:none;stroke-dashoffset:0;stroke-opacity:1"
         sodipodi:type="arc" />
      <path
         transform="matrix(0.46875,0,0,-0.652174,106.4062,1590.207)"
         d="M 125 912.86218 A 16 11.5 0 1 1  93,912.86218 A 16 11.5 0 1 1  125 912.86218 z"
         sodipodi:ry="11.5"
         sodipodi:rx="16"
         sodipodi:cy="912.86218"
         sodipodi:cx="109"
         id="path3400"
         style="fill:#6060e0;fill-opacity:1;fill-rule:nonzero;stroke:#000000;stroke-width:0;stroke-linecap:round;stroke-linejoin:round;stroke-miterlimit:4;stroke-dasharray:none;stroke-dashoffset:0;stroke-opacity:1"
         sodipodi:type="arc" />
    </g>
    <path
       sodipodi:type="arc"
       style="fill:#6060e0;fill-opacity:1;fill-rule:nonzero;stroke:#000000;stroke-width:0;stroke-linecap:round;stroke-linejoin:round;stroke-miterlimit:4;stroke-dasharray:none;stroke-dashoffset:0;stroke-opacity:1"
       id="path3436"
       sodipodi:cx="109"
       sodipodi:cy="912.86218"
       sodipodi:rx="16"
       sodipodi:ry="11.5"
       d="M 125 912.86218 A 16 11.5 0 1 1  93,912.86218 A 16 11.5 0 1 1  125 912.86218 z"
       transform="matrix(0.46875,0,0,0.652174,164.4062,272.5172)" />
    <path
       sodipodi:type="arc"
       style="fill:#6060e0;fill-opacity:1;fill-rule:nonzero;stroke:#000000;stroke-width:0;stroke-linecap:round;stroke-linejoin:round;stroke-miterlimit:4;stroke-dasharray:none;stroke-dashoffset:0;stroke-opacity:1"
       id="path3440"
       sodipodi:cx="109"
       sodipodi:cy="912.86218"
       sodipodi:rx="16"
       sodipodi:ry="11.5"
       d="M 125 912.86218 A 16 11.5 0 1 1  93,912.86218 A 16 11.5 0 1 1  125 912.86218 z"
       transform="matrix(0.46875,0,0,0.652174,184.4062,292.5172)" />
    <path
       sodipodi:type="arc"
       style="fill:#6060e0;fill-opacity:1;fill-rule:nonzero;stroke:#000000;stroke-width:0;stroke-linecap:round;stroke-linejoin:round;stroke-miterlimit:4;stroke-dasharray:none;stroke-dashoffset:0;stroke-opacity:1"
       id="path3444"
       sodipodi:cx="109"
       sodipodi:cy="912.86218"
       sodipodi:rx="16"
       sodipodi:ry="11.5"
       d="M 125 912.86218 A 16 11.5 0 1 1  93,912.86218 A 16 11.5 0 1 1  125 912.86218 z"
       transform="matrix(0.46875,0,0,0.652174,204.4062,312.5172)" />
  </g>
</svg>
