<?xml version="1.0" encoding="UTF-8" standalone="no"?>
<!-- Created with Inkscape (http://www.inkscape.org/) -->
<svg
   xmlns:dc="http://purl.org/dc/elements/1.1/"
   xmlns:cc="http://web.resource.org/cc/"
   xmlns:rdf="http://www.w3.org/1999/02/22-rdf-syntax-ns#"
   xmlns:svg="http://www.w3.org/2000/svg"
   xmlns="http://www.w3.org/2000/svg"
   xmlns:sodipodi="http://sodipodi.sourceforge.net/DTD/sodipodi-0.dtd"
   xmlns:inkscape="http://www.inkscape.org/namespaces/inkscape"
   width="744.09448819"
   height="1052.3622047"
   id="svg1454"
   sodipodi:version="0.32"
   inkscape:version="0.44.1"
   sodipodi:docbase="/usr/home/chmbrlnd/Courses"
   sodipodi:docname="difference.svg"
   inkscape:export-filename="/usr/home/chmbrlnd/Courses/difference.png"
   inkscape:export-xdpi="90"
   inkscape:export-ydpi="90">
  <defs
     id="defs1456" />
  <sodipodi:namedview
     id="base"
     pagecolor="#ffffff"
     bordercolor="#ffffff"
     borderopacity="0.0"
     inkscape:pageopacity="0.0"
     inkscape:pageshadow="0"
     inkscape:zoom="1"
     inkscape:cx="167.42857"
     inkscape:cy="115.63782"
     inkscape:document-units="px"
     inkscape:current-layer="layer1"
     showgrid="true"
     inkscape:window-width="810"
     inkscape:window-height="576"
     inkscape:window-x="129"
     inkscape:window-y="177" />
  <metadata
     id="metadata1459">
    <rdf:RDF>
      <cc:Work
         rdf:about="">
        <dc:format>image/svg+xml</dc:format>
        <dc:type
           rdf:resource="http://purl.org/dc/dcmitype/StillImage" />
      </cc:Work>
    </rdf:RDF>
  </metadata>
  <g
     inkscape:label="Layer 1"
     inkscape:groupmode="layer"
     id="layer1">
    <path
       sodipodi:type="arc"
       style="opacity:1;fill:#e0e0e0;fill-opacity:1;fill-rule:nonzero;stroke:#808080;stroke-width:3.18527198;stroke-miterlimit:4;stroke-dasharray:none;stroke-opacity:1"
       id="path2221"
       sodipodi:cx="302.85715"
       sodipodi:cy="438.07648"
       sodipodi:rx="108.57143"
       sodipodi:ry="102.85714"
       d="M 411.42857 438.07648 A 108.57143 102.85714 0 1 1  194.28572,438.07648 A 108.57143 102.85714 0 1 1  411.42857 438.07648 z"
       transform="matrix(0.916714,0,0,0.967644,-76.60211,527.416)" />
    <path
       sodipodi:type="arc"
       style="opacity:1;fill:#e0e0e0;fill-opacity:1;fill-rule:nonzero;stroke:#808080;stroke-width:3.18527365;stroke-miterlimit:4;stroke-dasharray:none;stroke-opacity:1"
       id="path2223"
       sodipodi:cx="302.85715"
       sodipodi:cy="438.07648"
       sodipodi:rx="108.57143"
       sodipodi:ry="102.85714"
       d="M 411.42857 438.07648 A 108.57143 102.85714 0 1 1  194.28572,438.07648 A 108.57143 102.85714 0 1 1  411.42857 438.07648 z"
       transform="matrix(0.916714,0,0,0.967643,-176.6021,527.4163)" />
    <path
       style="opacity:1;fill:#a0a0e0;fill-opacity:1;fill-rule:nonzero;stroke:#000000;stroke-width:3;stroke-miterlimit:4;stroke-dasharray:none;stroke-opacity:1"
       d="M 99.09375,851.79966 C 45.042,852.82782 1.5,897.03469 1.5,951.33091 C 1.5,1006.271 46.09126,1050.8622 101.03125,1050.8622 C 119.2481,1050.8622 136.33859,1045.9498 151.03125,1037.3934 C 121.41249,1020.1447 101.5,988.05406 101.5,951.33091 C 101.5,914.60776 121.41249,882.48591 151.03125,865.23716 C 136.33859,856.68075 119.24809,851.79966 101.03125,851.79966 C 100.38742,851.79966 99.73468,851.78747 99.09375,851.79966 z "
       id="path2252" />
  </g>
</svg>
