<?xml version="1.0" encoding="UTF-8" standalone="no"?>
<!-- Created with Inkscape (http://www.inkscape.org/) -->
<svg
   xmlns:dc="http://purl.org/dc/elements/1.1/"
   xmlns:cc="http://web.resource.org/cc/"
   xmlns:rdf="http://www.w3.org/1999/02/22-rdf-syntax-ns#"
   xmlns:svg="http://www.w3.org/2000/svg"
   xmlns="http://www.w3.org/2000/svg"
   xmlns:sodipodi="http://sodipodi.sourceforge.net/DTD/sodipodi-0.dtd"
   xmlns:inkscape="http://www.inkscape.org/namespaces/inkscape"
   width="744.09448819"
   height="1052.3622047"
   id="svg1454"
   sodipodi:version="0.32"
   inkscape:version="0.45.1"
   sodipodi:docbase="/Users/chmbrlnd/Desktop/FREDsvn/EduDocs/Probability/Figures/1Chapter"
   sodipodi:docname="setpartition.svg"
   inkscape:export-filename="/usr/home/chmbrlnd/Courses/setpartition.png"
   inkscape:export-xdpi="59.888721"
   inkscape:export-ydpi="59.888721"
   inkscape:output_extension="org.inkscape.output.svg.inkscape">
  <defs
     id="defs1456">
    <marker
       inkscape:stockid="Arrow1Mend"
       orient="auto"
       refY="0.0"
       refX="0.0"
       id="Arrow1Mend"
       style="overflow:visible;">
      <path
         id="path2936"
         d="M 0.0,0.0 L 5.0,-5.0 L -12.5,0.0 L 5.0,5.0 L 0.0,0.0 z "
         style="fill-rule:evenodd;stroke:#000000;stroke-width:1.0pt;marker-start:none;"
         transform="scale(0.4) rotate(180)" />
    </marker>
  </defs>
  <sodipodi:namedview
     id="base"
     pagecolor="#ffffff"
     bordercolor="#ffffff"
     borderopacity="0.0"
     inkscape:pageopacity="0.0"
     inkscape:pageshadow="0"
     inkscape:zoom="1"
     inkscape:cx="275.99348"
     inkscape:cy="122.87905"
     inkscape:document-units="px"
     inkscape:current-layer="layer1"
     showgrid="true"
     inkscape:window-width="810"
     inkscape:window-height="581"
     inkscape:window-x="132"
     inkscape:window-y="115" />
  <metadata
     id="metadata1459">
    <rdf:RDF>
      <cc:Work
         rdf:about="">
        <dc:format>image/svg+xml</dc:format>
        <dc:type
           rdf:resource="http://purl.org/dc/dcmitype/StillImage" />
      </cc:Work>
    </rdf:RDF>
  </metadata>
  <g
     inkscape:label="Layer 1"
     inkscape:groupmode="layer"
     id="layer1">
    <path
       sodipodi:type="arc"
       style="fill:#ffffff;fill-opacity:1;fill-rule:nonzero;stroke:#808080;stroke-width:3.18527365;stroke-miterlimit:4;stroke-dasharray:none;stroke-opacity:1"
       id="path2223"
       sodipodi:cx="302.85715"
       sodipodi:cy="438.07648"
       sodipodi:rx="108.57143"
       sodipodi:ry="102.85714"
       d="M 411.42857 438.07648 A 108.57143 102.85714 0 1 1  194.28572,438.07648 A 108.57143 102.85714 0 1 1  411.42857 438.07648 z"
       transform="matrix(0,-0.916714,0.967643,0,77.2223,1228.967)" />
    <g
       id="g3508"
       transform="matrix(0,-1,1,0,-450.2171,1452.465)">
      <path
         id="path2395"
         d="M 415.06144,901.34375 C 406.50446,916.03677 401.59269,933.12623 401.59269,951.34375 C 401.59269,969.98981 406.7213,987.45161 415.65519,1002.375 C 432.73521,973.84153 463.69564,954.55012 499.18644,953.875 C 499.82737,953.86281 500.4801,953.87502 501.12394,953.875 C 537.41825,953.875 569.17275,973.32729 586.56144,1002.375 C 595.50411,987.4477 600.65519,969.99837 600.65519,951.34375 C 600.65519,933.12623 595.74342,916.03677 587.18644,901.34375 C 569.93454,930.95014 537.83785,950.87502 501.12394,950.875 C 464.41002,950.87501 432.31333,930.95016 415.06144,901.34375 z M 586.24894,1002.875 C 586.19733,1002.96 586.14459,1003.0401 586.09269,1003.125 C 586.14537,1003.0388 586.19651,1002.9614 586.24894,1002.875 z "
         style="fill:#a0e0a0;fill-opacity:1;fill-rule:nonzero;stroke:#000000;stroke-width:3.18527365;stroke-miterlimit:4;stroke-dasharray:none;stroke-opacity:1" />
      <path
         id="path2221"
         d="M 499.18644,851.8125 C 463.27015,852.49569 432.00802,872.24515 415.06144,901.34375 C 432.31334,930.95014 464.41002,950.87501 501.12394,950.875 C 537.83786,950.875 569.93454,930.95014 587.18644,901.34375 C 569.93745,871.72588 537.84645,851.81249 501.12394,851.8125 C 500.48011,851.8125 499.82737,851.80031 499.18644,851.8125 z "
         style="fill:#e0a0a0;fill-opacity:1;fill-rule:nonzero;stroke:#000000;stroke-width:3.18527198;stroke-miterlimit:4;stroke-dasharray:none;stroke-opacity:1" />
      <path
         id="path2369"
         d="M 499.20206,953.875 C 463.71127,954.5501 432.75083,973.84156 415.67081,1002.375 C 433.06247,1031.4102 464.85466,1050.875 501.13956,1050.875 C 537.42422,1050.875 569.18532,1031.4099 586.57706,1002.375 C 569.18835,973.32733 537.43387,953.875 501.13956,953.875 C 500.49573,953.875 499.84299,953.86281 499.20206,953.875 z "
         style="fill:#a0a0e0;fill-opacity:1;fill-rule:nonzero;stroke:#000000;stroke-width:3.18527365;stroke-miterlimit:4;stroke-dasharray:none;stroke-opacity:1" />
    </g>
    <path
       style="fill:none;fill-opacity:0.75;fill-rule:evenodd;stroke:#000000;stroke-width:5;stroke-linecap:round;stroke-linejoin:miter;marker-mid:none;marker-end:url(#Arrow1Mend);stroke-miterlimit:4;stroke-dasharray:none;stroke-opacity:1"
       d="M 252.2299,951.34104 L 326.26786,951.34104"
       id="path2770" />
    <g
       id="g3500"
       transform="matrix(0,-1,1,0,-890.21991,1052.4649)">
      <path
         id="path3502"
         d="M 15.06134,901.34375 C 6.50436,916.03677 1.59259,933.12623 1.59259,951.34375 C 1.59259,969.98981 6.7212,987.45161 15.65509,1002.375 C 32.73511,973.84153 63.69554,954.55012 99.18634,953.875 C 99.82727,953.86281 100.48,953.87502 101.12384,953.875 C 137.41815,953.875 169.17265,973.32729 186.56134,1002.375 C 195.50401,987.4477 200.65509,969.99837 200.65509,951.34375 C 200.65509,933.12623 195.74332,916.03677 187.18634,901.34375 C 169.93444,930.95014 137.83775,950.87502 101.12384,950.875 C 64.40992,950.87501 32.31323,930.95016 15.06134,901.34375 z M 186.24884,1002.875 C 186.19723,1002.96 186.14449,1003.0401 186.09259,1003.125 C 186.14527,1003.0388 186.19641,1002.9614 186.24884,1002.875 z "
         style="fill:#a0e0a0;fill-opacity:1;fill-rule:nonzero;stroke:#000000;stroke-width:3.18527365;stroke-miterlimit:4;stroke-dasharray:none;stroke-opacity:1" />
      <path
         id="path3504"
         d="M 99.18634,811.8125 C 63.27005,812.49569 32.00792,832.24515 15.06134,861.34375 C 32.31324,890.95014 64.40992,910.87501 101.12384,910.875 C 137.83776,910.875 169.93444,890.95014 187.18634,861.34375 C 169.93735,831.72588 137.84635,811.81249 101.12384,811.8125 C 100.48001,811.8125 99.82727,811.80031 99.18634,811.8125 z "
         style="fill:#e0a0a0;fill-opacity:1;fill-rule:nonzero;stroke:#000000;stroke-width:3.18527198;stroke-miterlimit:4;stroke-dasharray:none;stroke-opacity:1" />
      <path
         id="path3506"
         d="M 99.20196,993.875 C 63.71117,994.5501 32.75073,1013.8416 15.67071,1042.375 C 33.06237,1071.4102 64.85456,1090.875 101.13946,1090.875 C 137.42412,1090.875 169.18522,1071.4099 186.57696,1042.375 C 169.18825,1013.3273 137.43377,993.875 101.13946,993.875 C 100.49563,993.875 99.84289,993.86281 99.20196,993.875 z "
         style="fill:#a0a0e0;fill-opacity:1;fill-rule:nonzero;stroke:#000000;stroke-width:3.18527365;stroke-miterlimit:4;stroke-dasharray:none;stroke-opacity:1" />
    </g>
  </g>
</svg>
