<?xml version="1.0" encoding="UTF-8" standalone="no"?>
<!-- Created with Inkscape (http://www.inkscape.org/) -->
<svg
   xmlns:dc="http://purl.org/dc/elements/1.1/"
   xmlns:cc="http://web.resource.org/cc/"
   xmlns:rdf="http://www.w3.org/1999/02/22-rdf-syntax-ns#"
   xmlns:svg="http://www.w3.org/2000/svg"
   xmlns="http://www.w3.org/2000/svg"
   xmlns:sodipodi="http://sodipodi.sourceforge.net/DTD/sodipodi-0.dtd"
   xmlns:inkscape="http://www.inkscape.org/namespaces/inkscape"
   width="744.09448819"
   height="1052.3622047"
   id="svg1524"
   sodipodi:version="0.32"
   inkscape:version="0.44.1"
   sodipodi:docbase="/usr/home/chmbrlnd/Courses"
   sodipodi:docname="triple.svg"
   inkscape:export-filename="/usr/home/chmbrlnd/Courses/triple.png"
   inkscape:export-xdpi="60.04335"
   inkscape:export-ydpi="60.04335">
  <defs
     id="defs1526" />
  <sodipodi:namedview
     id="base"
     pagecolor="#ffffff"
     bordercolor="#ffffff"
     borderopacity="0.0"
     inkscape:pageopacity="0.0"
     inkscape:pageshadow="0"
     inkscape:zoom="1"
     inkscape:cx="302.47103"
     inkscape:cy="148.51429"
     inkscape:document-units="px"
     inkscape:current-layer="layer1"
     showgrid="true"
     inkscape:window-width="810"
     inkscape:window-height="609"
     inkscape:window-x="155"
     inkscape:window-y="153" />
  <metadata
     id="metadata1529">
    <rdf:RDF>
      <cc:Work
         rdf:about="">
        <dc:format>image/svg+xml</dc:format>
        <dc:type
           rdf:resource="http://purl.org/dc/dcmitype/StillImage" />
      </cc:Work>
    </rdf:RDF>
  </metadata>
  <g
     inkscape:label="Layer 1"
     inkscape:groupmode="layer"
     id="layer1">
    <path
       sodipodi:type="arc"
       style="fill:#e0e0e0;fill-opacity:1;fill-rule:nonzero;stroke:#808080;stroke-width:3.18527198;stroke-miterlimit:4;stroke-dasharray:none;stroke-opacity:1"
       id="path2209"
       sodipodi:cx="302.85715"
       sodipodi:cy="438.07648"
       sodipodi:rx="108.57143"
       sodipodi:ry="102.85714"
       d="M 411.42857 438.07648 A 108.57143 102.85714 0 1 1  194.28572,438.07648 A 108.57143 102.85714 0 1 1  411.42857 438.07648 z"
       transform="matrix(0.916714,0,0,0.967644,273.3666,427.2291)" />
    <path
       sodipodi:type="arc"
       style="fill:#e0e0e0;fill-opacity:1;fill-rule:nonzero;stroke:#808080;stroke-width:3.18527365;stroke-miterlimit:4;stroke-dasharray:none;stroke-opacity:1"
       id="path2211"
       sodipodi:cx="302.85715"
       sodipodi:cy="438.07648"
       sodipodi:rx="108.57143"
       sodipodi:ry="102.85714"
       d="M 411.42857 438.07648 A 108.57143 102.85714 0 1 1  194.28572,438.07648 A 108.57143 102.85714 0 1 1  411.42857 438.07648 z"
       transform="matrix(0.916714,0,0,0.967643,173.3956,427.2584)" />
    <path
       sodipodi:type="arc"
       style="opacity:1;fill:#a0a0e0;fill-opacity:1;fill-rule:nonzero;stroke:#808080;stroke-width:3.98159194;stroke-miterlimit:4;stroke-dasharray:none;stroke-opacity:1"
       id="path1318"
       sodipodi:cx="302.85715"
       sodipodi:cy="438.07648"
       sodipodi:rx="108.57143"
       sodipodi:ry="102.85714"
       d="M 411.42857 438.07648 A 108.57143 102.85714 0 1 1  194.28572,438.07648 A 108.57143 102.85714 0 1 1  411.42857 438.07648 z"
       transform="matrix(0.916714,0,0,0.967643,-176.2294,427.4314)" />
    <path
       sodipodi:type="arc"
       style="opacity:1;fill:#e0e0e0;fill-opacity:1;fill-rule:nonzero;stroke:#808080;stroke-width:3.18527198;stroke-miterlimit:4;stroke-dasharray:none;stroke-opacity:1"
       id="path1316"
       sodipodi:cx="302.85715"
       sodipodi:cy="438.07648"
       sodipodi:rx="108.57143"
       sodipodi:ry="102.85714"
       d="M 411.42857 438.07648 A 108.57143 102.85714 0 1 1  194.28572,438.07648 A 108.57143 102.85714 0 1 1  411.42857 438.07648 z"
       transform="matrix(0.916714,0,0,0.967644,-76.22944,427.4312)" />
    <path
       sodipodi:type="arc"
       style="opacity:1;fill:#e0e0e0;fill-opacity:1;fill-rule:nonzero;stroke:#808080;stroke-width:3.18527365;stroke-miterlimit:4;stroke-dasharray:none;stroke-opacity:1"
       id="path1320"
       sodipodi:cx="302.85715"
       sodipodi:cy="438.07648"
       sodipodi:rx="108.57143"
       sodipodi:ry="102.85714"
       d="M 411.42857 438.07648 A 108.57143 102.85714 0 1 1  194.28572,438.07648 A 108.57143 102.85714 0 1 1  411.42857 438.07648 z"
       transform="matrix(0.916714,0,0,0.967643,-126.2294,527.4316)" />
    <path
       sodipodi:type="arc"
       style="opacity:1;fill:#e0e0e0;fill-opacity:1;fill-rule:nonzero;stroke:#808080;stroke-width:3.18527365;stroke-miterlimit:4;stroke-dasharray:none;stroke-opacity:1"
       id="path1314"
       sodipodi:cx="302.85715"
       sodipodi:cy="438.07648"
       sodipodi:rx="108.57143"
       sodipodi:ry="102.85714"
       d="M 411.42857 438.07648 A 108.57143 102.85714 0 1 1  194.28572,438.07648 A 108.57143 102.85714 0 1 1  411.42857 438.07648 z"
       transform="matrix(0.916714,0,0,0.967643,223.3956,527.2586)" />
    <path
       style="opacity:1;fill:#e0e0e0;fill-opacity:1;fill-rule:nonzero;stroke:#808080;stroke-width:3.18527198;stroke-miterlimit:4;stroke-dasharray:none;stroke-opacity:1"
       d="M 501.01449,765.06743 C 471.39662,782.31642 451.48324,814.4074 451.48324,851.12993 C 451.48324,887.86819 471.40685,919.98008 501.04574,937.22368 C 530.65134,919.97158 550.54572,887.87445 550.54574,851.16118 C 550.54574,814.43803 530.63325,782.31618 501.01449,765.06743 z "
       id="path2346" />
    <g
       id="g1337"
       transform="translate(-50.00014,600.1731)"
       style="fill:#a0a0e0;fill-opacity:1;stroke:#000000;stroke-width:3;stroke-miterlimit:4;stroke-dasharray:none;stroke-opacity:1;opacity:1">
      <path
         style="opacity:1;fill:#a0a0e0;fill-opacity:1;fill-rule:nonzero;stroke:#000000;stroke-width:3.18527198;stroke-miterlimit:4;stroke-dasharray:none;stroke-opacity:1"
         d="M 549.09375,251.8125 C 499.48621,252.75612 458.7426,290.05522 452.375,338.15625 C 466.76835,346.24759 483.35494,350.875 501.03125,350.875 C 519.25712,350.875 536.33368,345.97051 551.03125,337.40625 C 565.71569,345.94953 582.79823,350.84375 601,350.84375 C 618.68568,350.84375 635.28886,346.22431 649.6875,338.125 C 643.22413,289.41743 601.49632,251.8125 551.03125,251.8125 C 550.38742,251.8125 549.73468,251.80031 549.09375,251.8125 z "
         transform="translate(4.026177e-5,-0.173025)"
         id="path1339" />
    </g>
    <path
       style="fill:#a0a0e0;fill-opacity:1;fill-rule:nonzero;stroke:#000000;stroke-width:3;stroke-miterlimit:4;stroke-dasharray:none;stroke-opacity:1;opacity:1"
       d="M 99.46642,751.81481 C 45.41467,752.84297 1.8726697,797.04988 1.8726697,851.34606 C 1.8726697,906.28606 46.46393,950.87731 101.40392,950.87731 C 119.62077,950.87731 136.71126,945.96496 151.40392,937.40856 C 166.09747,945.97105 183.18303,950.87731 201.40392,950.87731 C 219.07671,950.87731 235.66913,946.24659 250.06017,938.15856 C 245.86863,906.4956 226.76865,879.54145 200.06017,864.53356 C 200.6333,860.21448 200.93517,855.82098 200.93517,851.34606 C 200.93517,796.40606 156.34389,751.81481 101.40392,751.81481 C 100.76009,751.81481 100.10735,751.80262 99.46642,751.81481 z "
       id="path2203" />
  </g>
</svg>
