<?xml version="1.0" encoding="UTF-8" standalone="no"?>
<!-- Created with Inkscape (http://www.inkscape.org/) -->
<svg
   xmlns:dc="http://purl.org/dc/elements/1.1/"
   xmlns:cc="http://web.resource.org/cc/"
   xmlns:rdf="http://www.w3.org/1999/02/22-rdf-syntax-ns#"
   xmlns:svg="http://www.w3.org/2000/svg"
   xmlns="http://www.w3.org/2000/svg"
   xmlns:sodipodi="http://sodipodi.sourceforge.net/DTD/sodipodi-0.dtd"
   xmlns:inkscape="http://www.inkscape.org/namespaces/inkscape"
   width="744.09448819"
   height="1052.3622047"
   id="svg1323"
   sodipodi:version="0.32"
   inkscape:version="0.45.1"
   sodipodi:docbase="/Users/courses/Desktop/FREDsvn/EduDocs/Probability/Figures/1Chapter"
   sodipodi:docname="union.svg"
   inkscape:export-filename="/usr/home/chmbrlnd/Courses/union.png"
   inkscape:export-xdpi="59.888264"
   inkscape:export-ydpi="59.888264"
   inkscape:output_extension="org.inkscape.output.svg.inkscape">
  <defs
     id="defs1325" />
  <sodipodi:namedview
     id="base"
     pagecolor="#ffffff"
     bordercolor="#ffffff"
     borderopacity="0.0"
     inkscape:pageopacity="0.0"
     inkscape:pageshadow="0"
     inkscape:zoom="1"
     inkscape:cx="87.7281"
     inkscape:cy="126"
     inkscape:document-units="px"
     inkscape:current-layer="layer1"
     showgrid="true"
     inkscape:window-width="810"
     inkscape:window-height="581"
     inkscape:window-x="44"
     inkscape:window-y="115" />
  <metadata
     id="metadata1328">
    <rdf:RDF>
      <cc:Work
         rdf:about="">
        <dc:format>image/svg+xml</dc:format>
        <dc:type
           rdf:resource="http://purl.org/dc/dcmitype/StillImage" />
      </cc:Work>
    </rdf:RDF>
  </metadata>
  <g
     inkscape:label="Layer 1"
     inkscape:groupmode="layer"
     id="layer1">
    <g
       id="g2229">
      <path
         transform="matrix(0.916714,0,0,0.967644,-76.60214,527.4159)"
         d="M 411.42857 438.07648 A 108.57143 102.85714 0 1 1  194.28572,438.07648 A 108.57143 102.85714 0 1 1  411.42857 438.07648 z"
         sodipodi:ry="102.85714"
         sodipodi:rx="108.57143"
         sodipodi:cy="438.07648"
         sodipodi:cx="302.85715"
         id="path1307"
         style="opacity:1;fill:#a0a0e0;fill-opacity:1;fill-rule:nonzero;stroke:#808080;stroke-width:3.18527198;stroke-miterlimit:4;stroke-dasharray:none;stroke-opacity:1"
         sodipodi:type="arc" />
      <path
         transform="matrix(0.916714,0,0,0.967643,-176.6021,527.4163)"
         d="M 411.42857 438.07648 A 108.57143 102.85714 0 1 1  194.28572,438.07648 A 108.57143 102.85714 0 1 1  411.42857 438.07648 z"
         sodipodi:ry="102.85714"
         sodipodi:rx="108.57143"
         sodipodi:cy="438.07648"
         sodipodi:cx="302.85715"
         id="path2182"
         style="opacity:1;fill:#a0a0e0;fill-opacity:1;fill-rule:nonzero;stroke:#808080;stroke-width:3.18527365;stroke-miterlimit:4;stroke-dasharray:none;stroke-opacity:1"
         sodipodi:type="arc" />
    </g>
    <path
       style="opacity:1;fill:#a0a0e0;fill-opacity:1;fill-rule:nonzero;stroke:#000000;stroke-width:3;stroke-miterlimit:4;stroke-dasharray:none;stroke-opacity:1"
       d="M 99.093767,851.7894 C 45.042017,852.81756 1.5000168,897.02447 1.5000168,951.32067 C 1.5000168,1006.2607 46.091287,1050.852 101.03127,1050.852 C 119.24812,1050.852 136.33861,1045.9396 151.03127,1037.3832 C 165.72393,1045.9396 182.81442,1050.852 201.03127,1050.852 C 255.97125,1050.852 300.56253,1006.2608 300.56252,951.32067 C 300.56252,896.38057 255.97125,851.7894 201.03127,851.7894 C 182.81442,851.7894 165.72393,856.67049 151.03127,865.2269 C 136.33861,856.6705 119.24812,851.7894 101.03127,851.7894 C 100.38744,851.7894 99.734697,851.77721 99.093767,851.7894 z "
       id="path2247" />
    <text
       xml:space="preserve"
       style="font-size:12px;font-style:normal;font-weight:normal;fill:#000000;fill-opacity:1;stroke:none;stroke-width:1px;stroke-linecap:butt;stroke-linejoin:miter;stroke-opacity:1;font-family:Bitstream Vera Sans"
       x="150.63966"
       y="955.60706"
       id="text2362"><tspan
         sodipodi:role="line"
         id="tspan2364"
         x="150.63966"
         y="955.60706">U</tspan></text>
  </g>
</svg>
